
<svg width="0" height="0" class="hidden">
  <symbol viewBox="0 0 24 24" fill="none" xmlns="http://www.w3.org/2000/svg" id="arm-sofa-single-chair">
    <path d="M14.853 4.364a23 23 0 0 0-5.706 0l-.544.068a3 3 0 0 0-2.538 3.705l1.148 4.59-1.94.486-1.148-4.591a5 5 0 0 1 4.23-6.174L8.9 2.38a25 25 0 0 1 6.202 0l.544.068a5 5 0 0 1 4.23 6.174l-1.147 4.59-1.94-.484 1.147-4.591a3 3 0 0 0-2.538-3.705l-.544-.068zM7.447 18.105a1 1 0 0 1 .448 1.342l-1 2a1 1 0 1 1-1.79-.894l1-2a1 1 0 0 1 1.342-.448zm8.658 1.342a1 1 0 1 1 1.79-.894l1 2a1 1 0 1 1-1.79.894l-1-2z" fill="#152C70"></path>
    <path fill-rule="evenodd" clip-rule="evenodd" d="M2.203 14.39c-.726-1.936 1.298-3.758 3.147-2.833l1.097.549a12.416 12.416 0 0 0 11.106 0l1.097-.55c1.849-.924 3.873.898 3.147 2.834A8.646 8.646 0 0 1 13.7 20h-3.4a8.646 8.646 0 0 1-8.096-5.61zm2.252-1.044a.274.274 0 0 0-.38.341A6.646 6.646 0 0 0 10.3 18h3.4c2.77 0 5.25-1.718 6.223-4.313a.274.274 0 0 0-.38-.341l-1.097.548a14.416 14.416 0 0 1-12.894 0l-1.098-.548z" fill="#4296FF"></path>
  </symbol>
  <symbol viewBox="0 0 24 24" fill="none" xmlns="http://www.w3.org/2000/svg" id="attachment-pin-vertical">
    <path fill-rule="evenodd" clip-rule="evenodd" d="M7 15a5 5 0 0 0 10 0V6a1 1 0 1 1 2 0v9a7 7 0 0 1-14 0V7a5 5 0 0 1 10 0v8.172a3 3 0 0 1-6 0V7a1 1 0 1 1 2 0v8.172a1 1 0 0 0 2 0V7a3 3 0 1 0-6 0v8z" fill="#152C70"></path>
  </symbol>
  <symbol viewBox="0 0 24 24" fill="none" xmlns="http://www.w3.org/2000/svg" id="bank">
    <path fill-rule="evenodd" clip-rule="evenodd" d="M19.5 5.158a14.15 14.15 0 0 0-15 0A3.192 3.192 0 0 0 3 7.864V9.65a1 1 0 0 0 1 1h3v6a1 1 0 1 0 2 0v-6h2v6a1 1 0 1 0 2 0v-6h2v6a1 1 0 1 0 2 0v-6h3a1 1 0 0 0 1-1V7.864c0-1.1-.567-2.123-1.5-2.706zM5.56 6.854a12.15 12.15 0 0 1 12.88 0c.348.218.56.6.56 1.01v.786H5v-.786c0-.41.212-.792.56-1.01z" fill="#152C70"></path>
    <path d="M4 15.65a1 1 0 1 0 0 2h16a1 1 0 1 0 0-2H4zm1 4a1 1 0 1 0 0 2h14a1 1 0 1 0 0-2H5z" fill="#4296FF"></path>
  </symbol>
  <symbol viewBox="0 0 24 24" fill="none" xmlns="http://www.w3.org/2000/svg" id="beach-umbrella-sunny">
    <path fill-rule="evenodd" clip-rule="evenodd" d="M11.485 2C6.325 2 2 5.694 2 11.007c0 2.459.963 5.37 2.778 7.185l.515.515a1 1 0 0 0 1.414 0l12-12a1 1 0 0 0 0-1.414l-.515-.515A9.485 9.485 0 0 0 11.485 2zM7.408 5.062C8.572 4.382 9.968 4 11.485 4c1.895 0 3.715.718 5.097 2.003L14.89 7.697a16 16 0 0 0-7.481-2.635zM5.054 7.308C4.382 8.363 4 9.62 4 11.008c0 1.946.75 4.184 2.005 5.573l1.692-1.692a16 16 0 0 1-2.643-7.58zm4.089 6.135l4.3-4.3A14 14 0 0 0 7.04 7.039a14 14 0 0 0 2.104 6.404z" fill="#152C70"></path>
    <path d="M14.293 14.293a1 1 0 0 1 1.414 0l6 6a1 1 0 0 1-1.414 1.414l-6-6a1 1 0 0 1 0-1.414z" fill="#4296FF"></path>
  </symbol>
  <symbol viewBox="0 0 24 24" fill="none" xmlns="http://www.w3.org/2000/svg" id="bell-alert-notifications">
    <path fill-rule="evenodd" clip-rule="evenodd" d="M10 18a2 2 0 1 0 4 0h-4zm-2-.778C8 16.547 8.547 16 9.222 16h5.556c.675 0 1.222.547 1.222 1.222V18a4 4 0 0 1-8 0v-.778z" fill="#4296FF"></path>
    <path fill-rule="evenodd" clip-rule="evenodd" d="M9.81 2.606a7.707 7.707 0 0 1 4.38 0 6.589 6.589 0 0 1 4.716 6.317v2.038c0 .966.192 1.923.563 2.815l.082.196c.342.82.332 2.098-.796 2.75C17.679 17.343 15.677 18 12 18c-3.166 0-5.088-.486-6.247-1.017a2.303 2.303 0 0 1-1.302-1.58c-.154-.635-.057-1.298.182-1.871l.18-.433a3.65 3.65 0 0 0 .28-1.404V8.923a6.589 6.589 0 0 1 4.718-6.317zm3.811 1.917a5.707 5.707 0 0 0-3.242 0 4.589 4.589 0 0 0-3.285 4.4v2.772a5.65 5.65 0 0 1-.435 2.173l-.18.433c-.11.264-.119.49-.085.63a.308.308 0 0 0 .191.233C7.409 15.541 9.026 16 12 16c3.447 0 5.07-.616 5.748-1.006a.47.47 0 0 0-.044-.253l-.081-.196a9.319 9.319 0 0 1-.717-3.584V8.923a4.589 4.589 0 0 0-3.285-4.4z" fill="#152C70"></path>
  </symbol>
  <symbol viewBox="0 0 24 24" fill="none" xmlns="http://www.w3.org/2000/svg" id="bluetooth">
    <path fill-rule="evenodd" clip-rule="evenodd" d="M11.567 2.099a1 1 0 0 1 1.058.12l5 4a1 1 0 0 1 .082 1.488L13.414 12l4.293 4.293a1 1 0 0 1-.082 1.488l-5 4A1 1 0 0 1 11 21v-6.586l-4.293 4.293a1 1 0 0 1-1.414-1.414L10.586 12 5.293 6.707a1 1 0 0 1 1.414-1.414L11 9.586V3a1 1 0 0 1 .567-.901zM13 14.414l2.503 2.503L13 18.92v-4.505zm0-4.828V5.08l2.503 2.002L13 9.586z" fill="#152C70"></path>
  </symbol>
  <symbol viewBox="0 0 32 32" xmlns="http://www.w3.org/2000/svg" id="book-study-education-textbook-read-page-knowledge">
    <path d="M4 29a1 1 0 0 1-1-1V4a4 4 0 0 1 4-4h19a3 3 0 0 1 3 3v18a1 1 0 0 1-2 0V3a1 1 0 0 0-1-1H7a2 2 0 0 0-2 2v24a1 1 0 0 1-1 1z"></path>
    <path d="M28 32H15a1 1 0 0 1 0-2h12v-4H7a2 2 0 0 0 0 4h4a1 1 0 0 1 0 2H7a4 4 0 0 1 0-8h21a1 1 0 0 1 1 1v6a1 1 0 0 1-1 1z"></path>
    <path d="M24 12H10a1 1 0 0 1-1-1V5a1 1 0 0 1 1-1h14a1 1 0 0 1 1 1v6a1 1 0 0 1-1 1zm-13-2h12V6H11z" fill="#77acf1"></path>
    <path d="M24 16H10a1 1 0 0 1 0-2h14a1 1 0 0 1 0 2zm-2 4H12a1 1 0 0 1 0-2h10a1 1 0 0 1 0 2z"></path>
  </symbol>
  <symbol viewBox="0 0 24 24" fill="none" xmlns="http://www.w3.org/2000/svg" id="bookmark">
    <path fill-rule="evenodd" clip-rule="evenodd" d="M4 3a1 1 0 0 1 1-1h14a1 1 0 0 1 1 1v18a1 1 0 0 1-1.496.868l-5.016-2.866a3 3 0 0 0-2.976 0l-5.016 2.866A1 1 0 0 1 4 21V3zm2 1v15.277l3.52-2.011a5 5 0 0 1 4.96 0l3.52 2.01V4H6z" fill="#152C70"></path>
  </symbol>
  <symbol viewBox="0 0 32 32" xmlns="http://www.w3.org/2000/svg" id="briefcase-bag-suitcase-case-business-office-work">
    <path d="M29 6h-3a1 1 0 0 0 0 2h3a1 1 0 0 1 1 1v5.171a1 1 0 0 1-.293.708l-2.828 2.828a1 1 0 0 1-.708.293H5.829a1 1 0 0 1-.708-.293l-2.828-2.828A1 1 0 0 1 2 14.171V9a1 1 0 0 1 1-1h19a1 1 0 0 0 1-1V4a3 3 0 0 0-3-3h-8a3 3 0 0 0-3 3v2H3a3 3 0 0 0-3 3v5.171a2.978 2.978 0 0 0 .879 2.122l2.828 2.828A2.978 2.978 0 0 0 5.829 20h20.342a2.978 2.978 0 0 0 2.122-.879l.707-.707V28a1 1 0 0 1-1 1H4a1 1 0 0 1-1-1v-7a1 1 0 0 0-2 0v7a3.009 3.009 0 0 0 3 3h24a3.009 3.009 0 0 0 3-3V16.414l.121-.121A2.978 2.978 0 0 0 32 14.171V9a3 3 0 0 0-3-3zM11 4a1 1 0 0 1 1-1h8a1 1 0 0 1 1 1v2H11z" fill="#04009a"></path>
    <rect height="6" rx="1" width="4" x="7" y="16"></rect>
    <rect height="6" rx="1" width="4" x="21" y="16"></rect>
  </symbol>
  <symbol viewBox="0 0 24 24" fill="none" xmlns="http://www.w3.org/2000/svg" id="bullhorn-marketing-affiliate-broadcast">
    <path fill-rule="evenodd" clip-rule="evenodd" d="M7.97 14.243l-.648 2.594a1.056 1.056 0 0 0 1.93.8l1.89-3.151 1.716 1.029-1.89 3.15a3.056 3.056 0 0 1-5.587-2.313l.649-2.594 1.94.485z" fill="#4296FF"></path>
    <path fill-rule="evenodd" clip-rule="evenodd" d="M15.848 4.233a2.792 2.792 0 0 1 3.973.937 11.75 11.75 0 0 1 0 11.66 2.792 2.792 0 0 1-3.973.937l-.89-.593A12.947 12.947 0 0 0 7.779 15H6a4 4 0 0 1 0-8h1.777c2.556 0 5.055-.757 7.182-2.174l.89-.593zm2.236 1.93a.792.792 0 0 0-1.126-.266l-.89.593A14.947 14.947 0 0 1 7.778 9H6a2 2 0 1 0 0 4h1.777c2.951 0 5.836.873 8.291 2.51l.89.593a.792.792 0 0 0 1.126-.266 9.75 9.75 0 0 0 0-9.674z" fill="#152C70"></path>
  </symbol>
  <symbol viewBox="0 0 32 32" xmlns="http://www.w3.org/2000/svg" id="cabinet-interior-drawer-furniture-table-office-decoration">
    <path d="M29 7a1 1 0 0 0 1-1V3a3 3 0 0 0-3-3H5a3 3 0 0 0-3 3v23a3 3 0 0 0 3 3v2a1 1 0 0 0 2 0v-3a1 1 0 0 0-1-1H5a1 1 0 0 1-1-1v-6h24v6a1 1 0 0 1-1 1H10a1 1 0 0 0 0 2h15v2a1 1 0 0 0 2 0v-2a3 3 0 0 0 3-3V10a1 1 0 0 0-1-1H4V3a1 1 0 0 1 1-1h22a1 1 0 0 1 1 1v3a1 1 0 0 0 1 1zm-1 4v7H4v-7z" fill="#04009a"></path>
    <path d="M19 25h-6a1 1 0 0 1 0-2h6a1 1 0 0 1 0 2zm0-9h-6a1 1 0 0 1 0-2h6a1 1 0 0 1 0 2zm0-9h-6a1 1 0 0 1 0-2h6a1 1 0 0 1 0 2z"></path>
  </symbol>
  <symbol viewBox="0 0 32 32" xmlns="http://www.w3.org/2000/svg" id="cactus-nature-plant-decoration-succulent-flower-summer">
    <path d="M16 4a1 1 0 0 1-1-1V1a1 1 0 0 1 2 0v2a1 1 0 0 1-1 1zm-5 2a1 1 0 0 1-.707-.293l-1-1a1 1 0 0 1 1.414-1.414l1 1A1 1 0 0 1 11 6zm-1 4H8a1 1 0 0 1 0-2h2a1 1 0 0 1 0 2zm-1 6a1 1 0 0 1-.45-1.894l1.95-.98a1 1 0 1 1 .9 1.788l-1.95.98A1 1 0 0 1 9 16zm14 0a1 1 0 0 1-.448-.106l-1.95-.98a1 1 0 0 1 .9-1.788l1.95.98A1 1 0 0 1 23 16zm0-13a1 1 0 0 1-1-1V1a1 1 0 0 1 2 0v1a1 1 0 0 1-1 1zm2.5 1.574a1 1 0 0 1-.541-1.842l1.322-.848a1 1 0 1 1 1.08 1.684l-1.322.848a1 1 0 0 1-.539.158zm.787 4.598a1 1 0 0 1-.723-.308L24.448 7.7a1 1 0 0 1 1.445-1.384l1.116 1.164a1 1 0 0 1-.722 1.692zM16 10a1 1 0 0 1-1-1V8a1 1 0 0 1 2 0v1a1 1 0 0 1-1 1zm0 5a1 1 0 0 1-1-1v-1a1 1 0 0 1 2 0v1a1 1 0 0 1-1 1z"></path>
    <path d="M25.537 8.117a4 4 0 0 0-5.655-5.654 5.737 5.737 0 0 0-.4.471A6.989 6.989 0 0 0 9 9a23.714 23.714 0 0 0 2.476 9H8a1 1 0 0 0-1 1v4a1 1 0 0 0 1 1h.117l.672 5.372A3 3 0 0 0 11.766 32h8.468a3 3 0 0 0 2.977-2.628l.281-2.248a1 1 0 0 0-1.984-.248l-.281 2.248a1 1 0 0 1-.993.876h-8.468a1 1 0 0 1-.993-.876L10.133 24H24a1 1 0 0 0 1-1v-4a1 1 0 0 0-1-1h-3.476a24.925 24.925 0 0 0 2.442-8.295 7.894 7.894 0 0 0 2.571-1.588zm-1.414-4.24a2 2 0 0 1-.006 2.832 5.309 5.309 0 0 1-1.266.855 6.989 6.989 0 0 0-1.8-3.4 3.7 3.7 0 0 1 .245-.29 2 2 0 0 1 2.827.003zM23 22H9v-2h14zm-4.765-4h-4.47A21.775 21.775 0 0 1 11 9a5 5 0 0 1 10 0 21.775 21.775 0 0 1-2.765 9z" fill="#04009a"></path>
  </symbol>
  <symbol viewBox="0 0 32 32" xmlns="http://www.w3.org/2000/svg" id="calculator-math-calculate-accounting-finance-count-office">
    <path d="M27 22a1 1 0 0 0-1 1v6a1 1 0 0 1-1 1H7a1 1 0 0 1-1-1V9a1 1 0 0 0-2 0v20a3 3 0 0 0 3 3h18a3 3 0 0 0 3-3v-6a1 1 0 0 0-1-1zM25 0H7a3 3 0 0 0-3 3v2a1 1 0 0 0 2 0V3a1 1 0 0 1 1-1h18a1 1 0 0 1 1 1v16a1 1 0 0 0 2 0V3a3 3 0 0 0-3-3z"></path>
    <path d="M24 5a1 1 0 0 0-1-1H9a1 1 0 0 0-1 1v6a1 1 0 0 0 1 1h14a1 1 0 0 0 1-1zm-2 5H10V6h12zM9 16h2a1 1 0 0 0 0-2H9a1 1 0 0 0 0 2zm8-2h-2a1 1 0 0 0 0 2h2a1 1 0 0 0 0-2zm6 0h-2a1 1 0 0 0 0 2h2a1 1 0 0 0 0-2zM9 20h2a1 1 0 0 0 0-2H9a1 1 0 0 0 0 2zm8-2h-2a1 1 0 0 0 0 2h2a1 1 0 0 0 0-2zm6 0h-2a1 1 0 0 0 0 2h2a1 1 0 0 0 0-2zM9 24h2a1 1 0 0 0 0-2H9a1 1 0 0 0 0 2zm8-2h-2a1 1 0 0 0 0 2h2a1 1 0 0 0 0-2zm-8 6h2a1 1 0 0 0 0-2H9a1 1 0 0 0 0 2zm8-2h-2a1 1 0 0 0 0 2h2a1 1 0 0 0 0-2z"></path>
    <rect height="6" rx="1" width="4" x="20" y="22" fill="#77acf1"></rect>
  </symbol>
  <symbol viewBox="0 0 32 32" xmlns="http://www.w3.org/2000/svg" id="calendar-year-month-date-schedule-page-plan">
    <path d="M30 10H2a2 2 0 0 1-2-2V4a2 2 0 0 1 2-2h5a1 1 0 0 1 0 2H2v4h28V4H11a1 1 0 0 1 0-2h19a2 2 0 0 1 2 2v4a2 2 0 0 1-2 2z"></path>
    <path d="M28 32H4a3 3 0 0 1-3-3V9a1 1 0 0 1 1-1h28a1 1 0 0 1 0 2H3v19a1 1 0 0 0 1 1h24a1 1 0 0 0 1-1V13a1 1 0 0 1 2 0v16a3 3 0 0 1-3 3z"></path>
    <path d="M22 22H10a2 2 0 0 1-2-2v-3a1 1 0 0 1 1-1h14a1 1 0 0 1 1 1v3a2 2 0 0 1-2 2zm-12-4v2h12v-2z"></path>
    <path d="M20 28h-8a3 3 0 0 1-3-3v-4a1 1 0 0 1 1-1h12a1 1 0 0 1 1 1v4a3 3 0 0 1-3 3zm-9-6v3a1 1 0 0 0 1 1h8a1 1 0 0 0 1-1v-3zm9-4h-8a1 1 0 0 1-1-1v-2a3 3 0 0 1 3-3h4a3 3 0 0 1 3 3v2a1 1 0 0 1-1 1zm-7-2h6v-1a1 1 0 0 0-1-1h-4a1 1 0 0 0-1 1zM7 6a1 1 0 0 1-1-1V1a1 1 0 0 1 1-1 1 1 0 0 1 1 1v4a1 1 0 0 1-1 1zm9 0a1 1 0 0 1-1-1V1a1 1 0 0 1 1-1 1 1 0 0 1 1 1v4a1 1 0 0 1-1 1zm9 0a1 1 0 0 1-1-1V1a1 1 0 0 1 1-1 1 1 0 0 1 1 1v4a1 1 0 0 1-1 1z"></path>
  </symbol>
  <symbol viewBox="0 0 24 24" fill="none" xmlns="http://www.w3.org/2000/svg" id="camera-photo">
    <path fill-rule="evenodd" clip-rule="evenodd" d="M10 3a2 2 0 0 0-2 2H7a5 5 0 0 0-5 5v6a5 5 0 0 0 5 5h10a5 5 0 0 0 5-5v-6a5 5 0 0 0-5-5h-1a2 2 0 0 0-2-2h-4zM7 7a3 3 0 0 0-3 3v6a3 3 0 0 0 3 3h10a3 3 0 0 0 3-3v-6a3 3 0 0 0-3-3H7z" fill="#152C70"></path>
    <path fill-rule="evenodd" clip-rule="evenodd" d="M8 13a4 4 0 1 1 8 0 4 4 0 0 1-8 0zm4-2a2 2 0 1 0 0 4 2 2 0 0 0 0-4z" fill="#4296FF"></path>
  </symbol>
  <symbol viewBox="0 0 24 24" fill="none" xmlns="http://www.w3.org/2000/svg" id="card-credit-debit-virtual">
    <path d="M3 8h18v4H3V8z" fill="#4296FF"></path>
    <path fill-rule="evenodd" clip-rule="evenodd" d="M2 9a5 5 0 0 1 5-5h10a5 5 0 0 1 5 5v6a5 5 0 0 1-5 5H7a5 5 0 0 1-5-5V9zm5-3a3 3 0 0 0-3 3v6a3 3 0 0 0 3 3h10a3 3 0 0 0 3-3V9a3 3 0 0 0-3-3H7z" fill="#152C70"></path>
  </symbol>
  <symbol viewBox="0 0 24 24" fill="none" xmlns="http://www.w3.org/2000/svg" id="cart-shop-sell-buy">
    <path fill-rule="evenodd" clip-rule="evenodd" d="M4 3a1 1 0 0 0 0 2h1a1 1 0 0 1 .989.848l.278 4.464A5 5 0 0 0 11.257 15H16a5 5 0 0 0 0-10H7.83A3.001 3.001 0 0 0 5 3H4zm4.264 7.187L8.064 7H16a3 3 0 0 1 0 6h-4.742a3 3 0 0 1-2.994-2.813z" fill="#152C70"></path>
    <path d="M12 19a2 2 0 1 1-4 0 2 2 0 0 1 4 0zm4 2a2 2 0 1 0 0-4 2 2 0 0 0 0 4z" fill="#4296FF"></path>
  </symbol>
  <symbol viewBox="0 0 32 32" xmlns="http://www.w3.org/2000/svg" id="chair-office-business-furniture-seat-work-sit">
    <path d="M8 26H5.472a2.7 2.7 0 0 1-2.684-2.3l-1.473-9.571A2.717 2.717 0 0 1 4 11a1 1 0 0 1 0 2 .717.717 0 0 0-.708.825l1.473 9.568a.711.711 0 0 0 .707.607H8a1 1 0 0 1 0 2zm18.528 0H24a1 1 0 0 1 0-2h2.528a.711.711 0 0 0 .707-.607l1.473-9.569A.717.717 0 0 0 28 13a1 1 0 0 1 0-2 2.716 2.716 0 0 1 2.685 3.128L29.212 23.7a2.7 2.7 0 0 1-2.684 2.3z"></path>
    <path d="M21.734 18H10.266a3 3 0 0 1-2.977-3.372l1.5-12A3 3 0 0 1 11.766 0h8.468a3 3 0 0 1 2.977 2.628l.281 2.248a1 1 0 1 1-1.984.248l-.281-2.248A1 1 0 0 0 20.234 2h-8.468a1 1 0 0 0-.993.876l-1.5 12A1 1 0 0 0 10.266 16h11.468a1 1 0 0 0 .993-1.124l-.719-5.752a1 1 0 0 1 1.984-.248l.719 5.752A3 3 0 0 1 21.734 18zM24 26H8a1 1 0 0 1-1-1v-2a3 3 0 0 1 3-3h12a3 3 0 0 1 3 3v2a1 1 0 0 1-1 1zM9 24h14v-1a1 1 0 0 0-1-1H10a1 1 0 0 0-1 1z"></path>
    <path d="M19 22h-6a1 1 0 0 1-1-1v-4a1 1 0 0 1 1-1h6a1 1 0 0 1 1 1v4a1 1 0 0 1-1 1zm-5-2h4v-2h-4zm4 12h-4a1 1 0 0 1-1-1v-2a1 1 0 0 1 2 0v1h2v-4h-3a1 1 0 0 1 0-2h4a1 1 0 0 1 1 1v6a1 1 0 0 1-1 1z"></path>
    <path d="M21 32H11a1 1 0 0 1 0-2h10a1 1 0 0 1 0 2z"></path>
  </symbol>
  <symbol viewBox="0 0 24 24" fill="none" xmlns="http://www.w3.org/2000/svg" id="champayne-glass">
    <path d="M13 13a1 1 0 1 0-2 0v7H8a1 1 0 1 0 0 2h8a1 1 0 1 0 0-2h-3v-7z" fill="#4296FF"></path>
    <path fill-rule="evenodd" clip-rule="evenodd" d="M5 2a1 1 0 0 0-1 1 8.24 8.24 0 0 0 2.414 5.828l4.879 4.88a1 1 0 0 0 1.414 0l4.879-4.88A8.243 8.243 0 0 0 20 3a1 1 0 0 0-1-1H5zm2.828 5.414A6.243 6.243 0 0 1 6.081 4h11.838a6.243 6.243 0 0 1-1.747 3.414L12 11.586 7.828 7.414z" fill="#152C70"></path>
  </symbol>
  <symbol viewBox="0 0 32 32" xmlns="http://www.w3.org/2000/svg" id="change-switch-employee-business-office-work-management">
    <path d="M7 10a5 5 0 1 1 5-5 5.006 5.006 0 0 1-5 5zm0-8a3 3 0 1 0 3 3 3 3 0 0 0-3-3z"></path>
    <path d="M4 16H2a1 1 0 0 1-.98-.8l-1-5a1 1 0 0 1 .533-1.095l3.6-1.8A1 1 0 1 1 5.047 9.1L2.13 10.553 2.82 14H4a1 1 0 0 1 0 2zm8 0H8a1 1 0 0 1 0-2h3.18l.69-3.447L8.953 9.1a1 1 0 1 1 .894-1.789l3.6 1.8a1 1 0 0 1 .533 1.089l-1 5a1 1 0 0 1-.98.8zm13 10a5 5 0 1 1 5-5 5.006 5.006 0 0 1-5 5zm0-8a3 3 0 1 0 3 3 3 3 0 0 0-3-3z"></path>
    <path d="M22 32h-2a1 1 0 0 1-.98-.8l-1-5a1 1 0 0 1 .533-1.091l3.6-1.8a1 1 0 1 1 .894 1.789l-2.917 1.455.69 3.447H22a1 1 0 0 1 0 2zm8 0h-4a1 1 0 0 1 0-2h3.18l.69-3.447-2.917-1.453a1 1 0 1 1 .894-1.789l3.6 1.8a1 1 0 0 1 .533 1.089l-1 5a1 1 0 0 1-.98.8zm-5-18a1 1 0 0 1-1-1v-2a5.006 5.006 0 0 0-5-5h-2a1 1 0 0 1 0-2h2a7.008 7.008 0 0 1 7 7v2a1 1 0 0 1-1 1z"></path>
    <path d="M17 8a1 1 0 0 1-.707-.293l-2-2a1 1 0 0 1 0-1.414l2-2a1 1 0 1 1 1.414 1.414L16.414 5l1.293 1.293A1 1 0 0 1 17 8zm-4 20h-2a5.006 5.006 0 0 1-5-5v-4a1 1 0 0 1 2 0v4a3 3 0 0 0 3 3h2a1 1 0 0 1 0 2z"></path>
    <path d="M13 30a1 1 0 0 1-.707-1.707L13.586 27l-1.293-1.293a1 1 0 0 1 1.414-1.414l2 2a1 1 0 0 1 0 1.414l-2 2A1 1 0 0 1 13 30z"></path>
  </symbol>
  <symbol viewBox="0 0 24 24" fill="none" xmlns="http://www.w3.org/2000/svg" id="chat-message-text-sms-comment-1">
    <path fill-rule="evenodd" clip-rule="evenodd" d="M7 2.5a5 5 0 0 0-5 5v6a5 5 0 0 0 5 5h1.586l2.707 2.707a1 1 0 0 0 1.414 0l2.707-2.707H17a5 5 0 0 0 5-5v-6a5 5 0 0 0-5-5H7zm-3 5a3 3 0 0 1 3-3h10a3 3 0 0 1 3 3v6a3 3 0 0 1-3 3H7a3 3 0 0 1-3-3v-6z" fill="#152C70"></path>
    <path d="M7 7.5a1 1 0 0 0 0 2h8a1 1 0 1 0 0-2H7zm-1 5a1 1 0 0 1 1-1h10a1 1 0 1 1 0 2H7a1 1 0 0 1-1-1z" fill="#4296FF"></path>
  </symbol>
  <symbol viewBox="0 0 24 24" fill="none" xmlns="http://www.w3.org/2000/svg" id="chat-message-text-sms-comment">
    <path fill-rule="evenodd" clip-rule="evenodd" d="M14.652 2.718a9.654 9.654 0 0 0-5.304 0l-.126.036a9.417 9.417 0 0 0-6.347 12.032l.547 1.643c.025.073.027.15.009.224l-.901 3.605a1 1 0 0 0 1.213 1.212l3.604-.9a.402.402 0 0 1 .224.008l1.643.547a9.417 9.417 0 0 0 12.032-6.347l.036-.126a9.655 9.655 0 0 0-6.63-11.934zM9.897 4.64a7.654 7.654 0 0 1 9.462 9.462l-.036.126a7.417 7.417 0 0 1-9.477 4.999l-.863-.288c-1.088-.635-1.78-1.119-2.265-1.555h-.001a6.037 6.037 0 0 1-.236-.225c-.493-.496-.747-.95-1.072-1.532a25.21 25.21 0 0 0-.35-.612l-.287-.862a7.417 7.417 0 0 1 5-9.477l.125-.036z" fill="#152C70"></path>
    <path d="M7.5 13.5a1.5 1.5 0 1 0 0-3 1.5 1.5 0 0 0 0 3zm6-1.5a1.5 1.5 0 1 1-3 0 1.5 1.5 0 0 1 3 0zm3 1.5a1.5 1.5 0 1 0 0-3 1.5 1.5 0 0 0 0 3z" fill="#4296FF"></path>
  </symbol>
  <symbol viewBox="0 0 24 24" fill="none" xmlns="http://www.w3.org/2000/svg" id="chevron-down-arrow">
    <path fill-rule="evenodd" clip-rule="evenodd" d="M4.24 8.35a1 1 0 0 1 1.41-.11L12 13.684l6.35-5.442a1 1 0 0 1 1.3 1.518l-7 6a1 1 0 0 1-1.3 0l-7-6a1 1 0 0 1-.11-1.41z" fill="#152C70"></path>
  </symbol>
  <symbol viewBox="0 0 24 24" fill="none" xmlns="http://www.w3.org/2000/svg" id="chevron-left-arrow">
    <path fill-rule="evenodd" clip-rule="evenodd" d="M15.65 4.24a1 1 0 0 1 .11 1.41L10.316 12l5.442 6.35a1 1 0 0 1-1.518 1.3l-6-7a1 1 0 0 1 0-1.3l6-7a1 1 0 0 1 1.41-.11z" fill="#152C70"></path>
  </symbol>
  <symbol viewBox="0 0 24 24" fill="none" xmlns="http://www.w3.org/2000/svg" id="chevron-right-arrow">
    <path fill-rule="evenodd" clip-rule="evenodd" d="M8.35 4.24a1 1 0 0 0-.11 1.41L13.684 12 8.24 18.35a1 1 0 0 0 1.518 1.3l6-7a1 1 0 0 0 0-1.3l-6-7a1 1 0 0 0-1.41-.11z" fill="#152C70"></path>
  </symbol>
  <symbol viewBox="0 0 24 24" fill="none" xmlns="http://www.w3.org/2000/svg" id="chevron-up-arrow">
    <path fill-rule="evenodd" clip-rule="evenodd" d="M4.24 15.65a1 1 0 0 0 1.41.11L12 10.316l6.35 5.442a1 1 0 0 0 1.3-1.518l-7-6a1 1 0 0 0-1.3 0l-7 6a1 1 0 0 0-.11 1.41z" fill="#152C70"></path>
  </symbol>
  <symbol viewBox="0 0 32 32" xmlns="http://www.w3.org/2000/svg" id="clipboard-note-document-report-paper-list-data">
    <path d="M25 32H7a3 3 0 0 1-3-3V7a3 3 0 0 1 3-3h1a1 1 0 0 1 0 2H7a1 1 0 0 0-1 1v22a1 1 0 0 0 1 1h18a1 1 0 0 0 1-1V16a1 1 0 0 1 2 0v13a3 3 0 0 1-3 3zm2-19a1 1 0 0 1-1-1V7a1 1 0 0 0-1-1h-5a1 1 0 0 1 0-2h5a3 3 0 0 1 3 3v5a1 1 0 0 1-1 1z"></path>
    <path d="M19 8h-6a2 2 0 0 1-2-2V4a2 2 0 0 1 2-2h6a2 2 0 0 1 2 2v2a2 2 0 0 1-2 2zm-6-4v2h6V4z"></path>
    <path d="M16 4a1 1 0 0 1-1-1V1a1 1 0 0 1 2 0v2a1 1 0 0 1-1 1zm-3 13H9a1 1 0 0 1-1-1v-4a1 1 0 0 1 1-1h4a1 1 0 0 1 1 1v4a1 1 0 0 1-1 1zm-3-2h2v-2h-2zm3 11H9a1 1 0 0 1-1-1v-4a1 1 0 0 1 1-1h4a1 1 0 0 1 1 1v4a1 1 0 0 1-1 1zm-3-2h2v-2h-2zm13-9h-6a1 1 0 0 1 0-2h6a1 1 0 0 1 0 2zm0 9h-6a1 1 0 0 1 0-2h6a1 1 0 0 1 0 2z"></path>
  </symbol>
  <symbol viewBox="0 0 32 32" xmlns="http://www.w3.org/2000/svg" id="clock-time-watch-hour-deadline-timer-dial">
    <path d="M16 32A16.012 16.012 0 0 1 .141 13.868a1 1 0 0 1 1.983.264A14.168 14.168 0 0 0 2 16a14 14 0 0 0 26.835 5.6 1 1 0 1 1 1.833.8A16.007 16.007 0 0 1 16 32zm14.869-13a1.017 1.017 0 0 1-.134-.009 1 1 0 0 1-.859-1.123A14.168 14.168 0 0 0 30 16a14 14 0 0 0-26.835-5.6 1 1 0 1 1-1.833-.8 16 16 0 0 1 30.527 8.532 1 1 0 0 1-.99.868z"></path>
    <path d="M16.02 6a1 1 0 0 1-.01-2h.01a1 1 0 0 1 0 2zm7.78 3.222a1 1 0 0 1-.01-2h.01a1 1 0 1 1 0 2zM27.02 17a1 1 0 0 1-.01-2h.01a1 1 0 0 1 0 2zm-3.22 7.778a1 1 0 0 1-.01-2h.01a1 1 0 0 1 0 2zM16.02 28a1 1 0 0 1-.01-2h.01a1 1 0 0 1 0 2zm-7.778-3.222a1 1 0 0 1-.011-2h.011a1 1 0 0 1 0 2zM5.02 17a1 1 0 0 1-.01-2h.01a1 1 0 0 1 0 2zm3.222-7.778a1 1 0 0 1-.011-2h.011a1 1 0 1 1 0 2z"></path>
    <path d="M13 20a1 1 0 0 1-.707-1.707L15 15.586V9a1 1 0 0 1 2 0v7a1 1 0 0 1-.293.707l-3 3A1 1 0 0 1 13 20z" fill="#77acf1"></path>
  </symbol>
  <symbol viewBox="0 0 24 24" fill="none" xmlns="http://www.w3.org/2000/svg" id="clock-time">
    <path fill-rule="evenodd" clip-rule="evenodd" d="M12 4a8 8 0 1 0 0 16 8 8 0 0 0 0-16zM2 12C2 6.477 6.477 2 12 2s10 4.477 10 10-4.477 10-10 10S2 17.523 2 12z" fill="#152C70"></path>
    <path fill-rule="evenodd" clip-rule="evenodd" d="M12 6a1 1 0 0 1 1 1v4.586l1.707 1.707a1 1 0 0 1-1.414 1.414l-2-2A1 1 0 0 1 11 12V7a1 1 0 0 1 1-1z" fill="#4296FF"></path>
  </symbol>
  <symbol viewBox="0 0 32 32" xmlns="http://www.w3.org/2000/svg" id="coffee-machine-drink-hot-maker-cup-cafe">
    <path d="M28 8H4a2 2 0 0 1-2-2V2a2 2 0 0 1 2-2h4a1 1 0 0 1 0 2H4v4h24V2H12a1 1 0 0 1 0-2h16a2 2 0 0 1 2 2v4a2 2 0 0 1-2 2zm0 24H4a2 2 0 0 1-2-2v-2a2 2 0 0 1 2-2h24a2 2 0 0 1 2 2v2a2 2 0 0 1-2 2zM4 28v2h24v-2z"></path>
    <path d="M28 28H4a1 1 0 0 1-1-1V7a1 1 0 0 1 1-1h24a1 1 0 0 1 1 1v9a1 1 0 0 1-2 0V8H5v18h22v-6a1 1 0 0 1 2 0v7a1 1 0 0 1-1 1z"></path>
    <path d="M21 12H11a1 1 0 0 1-1-1V7a1 1 0 0 1 1-1h10a1 1 0 0 1 1 1v4a1 1 0 0 1-1 1zm-9-2h8V8h-8z"></path>
    <path d="M19 18h-6a1 1 0 0 1-.986-.835l-1-6A1 1 0 0 1 12 10h8a1 1 0 0 1 .986 1.165l-1 6A1 1 0 0 1 19 18zm-5.153-2h4.306l.666-4h-5.638zM16 28a5.006 5.006 0 0 1-5-5v-2a1 1 0 0 1 1-1h8a1 1 0 0 1 1 1v2a5.006 5.006 0 0 1-5 5zm-3-6v1a3 3 0 0 0 6 0v-1z"></path>
    <path d="M24 16h-4a1 1 0 0 1 0-2h4a1 1 0 0 1 0 2z"></path>
    <path d="M31 17h-7a1 1 0 0 1-1-1v-2a1 1 0 0 1 1-1h7a1 1 0 0 1 1 1v2a1 1 0 0 1-1 1zm-6-2z" fill="#77acf1"></path>
  </symbol>
  <symbol viewBox="0 0 24 24" fill="none" xmlns="http://www.w3.org/2000/svg" id="coffee-mug-cup">
    <path fill-rule="evenodd" clip-rule="evenodd" d="M2.164 5.329A3.107 3.107 0 0 1 5.264 2h9.473a3.108 3.108 0 0 1 3.106 3H18a4 4 0 0 1 0 8h-.967a7.444 7.444 0 0 1-14.458-1.914L2.164 5.33zM17.43 11H18a2 2 0 1 0 0-4h-.283l-.286 4zM5.263 4c-.642 0-1.15.545-1.104 1.186l.411 5.758a5.444 5.444 0 0 0 10.86 0l.411-5.758A1.107 1.107 0 0 0 14.737 4H5.263z" fill="#152C70"></path>
    <path d="M2 21a1 1 0 0 1 1-1h14a1 1 0 1 1 0 2H3a1 1 0 0 1-1-1z" fill="#4296FF"></path>
  </symbol>
  <symbol viewBox="0 0 24 24" fill="none" xmlns="http://www.w3.org/2000/svg" id="cog-wheel-settings">
    <path fill-rule="evenodd" clip-rule="evenodd" d="M9.083 4.126A2.36 2.36 0 0 1 11.432 2h1.137a2.36 2.36 0 0 1 2.349 2.126.36.36 0 0 0 .587.243 2.36 2.36 0 0 1 3.164.158l.804.804a2.36 2.36 0 0 1 .158 3.164.36.36 0 0 0 .243.587A2.36 2.36 0 0 1 22 11.432v1.137a2.36 2.36 0 0 1-2.126 2.348.36.36 0 0 0-.243.588 2.36 2.36 0 0 1-.157 3.164l-.805.804a2.36 2.36 0 0 1-3.164.158.36.36 0 0 0-.587.243A2.36 2.36 0 0 1 12.568 22h-1.136a2.36 2.36 0 0 1-2.35-2.126.36.36 0 0 0-.587-.243 2.36 2.36 0 0 1-3.164-.158l-.804-.804a2.36 2.36 0 0 1-.158-3.164.36.36 0 0 0-.243-.588A2.36 2.36 0 0 1 2 12.57v-1.14a2.36 2.36 0 0 1 2.126-2.349.36.36 0 0 0 .243-.587 2.36 2.36 0 0 1 .158-3.164l.804-.804a2.36 2.36 0 0 1 3.165-.158.36.36 0 0 0 .587-.243zM11.432 4a.36.36 0 0 0-.36.325c-.186 1.874-2.386 2.784-3.843 1.592a.36.36 0 0 0-.483.024l-.805.804a.36.36 0 0 0-.024.483c1.193 1.458.282 3.657-1.592 3.844a.36.36 0 0 0-.325.36v1.136c0 .186.14.341.325.36 1.874.187 2.785 2.386 1.592 3.843a.36.36 0 0 0 .024.484l.804.804c.131.13.34.141.484.024 1.457-1.193 3.656-.282 3.844 1.592a.36.36 0 0 0 .359.325h1.137c.185 0 .34-.14.359-.325.187-1.874 2.386-2.785 3.844-1.592a.36.36 0 0 0 .483-.024l.804-.805a.36.36 0 0 0 .024-.483c-1.192-1.457-.282-3.656 1.592-3.844A.36.36 0 0 0 20 12.57v-1.14a.36.36 0 0 0-.325-.359c-1.874-.187-2.785-2.386-1.592-3.843a.36.36 0 0 0-.024-.484l-.804-.804a.36.36 0 0 0-.484-.024c-1.457 1.193-3.656.281-3.843-1.592A.36.36 0 0 0 12.569 4h-1.137z" fill="#152C70"></path>
    <path fill-rule="evenodd" clip-rule="evenodd" d="M12 10a2 2 0 1 0 0 4 2 2 0 0 0 0-4zm-4 2a4 4 0 1 1 8 0 4 4 0 0 1-8 0z" fill="#4296FF"></path>
  </symbol>
  <symbol viewBox="0 0 32 32" xmlns="http://www.w3.org/2000/svg" id="document-file-archive-data-work-paper-office-2">
    <path d="M29 32H10a1 1 0 0 1 0-2h19a1 1 0 0 0 1-1v-4a1 1 0 0 0-1-1h-4.559a1 1 0 0 0-.948.684l-.088.263A3 3 0 0 1 20.559 27h-9.118A3 3 0 0 1 8.6 24.949l-.088-.267A1 1 0 0 0 7.559 24H3a1 1 0 0 0-1 1v4a1 1 0 0 0 1 1h3a1 1 0 0 1 0 2H3a3 3 0 0 1-3-3v-4a3 3 0 0 1 3-3h4.559a3 3 0 0 1 2.846 2.051l.088.267a1 1 0 0 0 .948.682h9.118a1 1 0 0 0 .948-.684l.088-.263A3 3 0 0 1 24.441 22H29a3 3 0 0 1 3 3v4a3 3 0 0 1-3 3z"></path>
    <path d="M5 24a1 1 0 0 1-1-1V3a3 3 0 0 1 3-3h13.171a2.978 2.978 0 0 1 2.122.879l4.828 4.828A2.978 2.978 0 0 1 28 7.828V19a1 1 0 0 1-2 0V7.828a1.009 1.009 0 0 0-.293-.707l-4.828-4.828A1 1 0 0 0 20.171 2H7a1 1 0 0 0-1 1v20a1 1 0 0 1-1 1z"></path>
    <path d="M23 12H13a1 1 0 0 1 0-2h10a1 1 0 0 1 0 2zm0 4H9a1 1 0 0 1 0-2h14a1 1 0 0 1 0 2zm-4 4H9a1 1 0 0 1 0-2h10a1 1 0 0 1 0 2zm7-12h-5a1 1 0 0 1-1-1V2a1 1 0 0 1 2 0v4h4a1 1 0 0 1 0 2z"></path>
  </symbol>
  <symbol viewBox="0 0 32 32" xmlns="http://www.w3.org/2000/svg" id="document-file-archive-data-work-paper-office">
    <path d="M9 29H3a3 3 0 0 1-3-3V14a1 1 0 0 1 2 0v12a1 1 0 0 0 1 1h6a1 1 0 0 0 1-1V6a1 1 0 0 0-1-1H3a1 1 0 0 0-1 1v4a1 1 0 0 1-2 0V6a3 3 0 0 1 3-3h6a3 3 0 0 1 3 3v20a3 3 0 0 1-3 3z"></path>
    <path d="M19 29h-6a3 3 0 0 1-3-3V6a3 3 0 0 1 3-3h6a3 3 0 0 1 3 3v20a3 3 0 0 1-3 3zM13 5a1 1 0 0 0-1 1v20a1 1 0 0 0 1 1h6a1 1 0 0 0 1-1V6a1 1 0 0 0-1-1z"></path>
    <path d="M29 29h-6a3 3 0 0 1-3-3V6a3 3 0 0 1 3-3h6a3 3 0 0 1 3 3v8a1 1 0 0 1-2 0V6a1 1 0 0 0-1-1h-6a1 1 0 0 0-1 1v20a1 1 0 0 0 1 1h6a1 1 0 0 0 1-1v-8a1 1 0 0 1 2 0v8a3 3 0 0 1-3 3zM7 9H5a1 1 0 0 1 0-2h2a1 1 0 0 1 0 2zm0 4H5a1 1 0 0 1 0-2h2a1 1 0 0 1 0 2zm0 4H5a1 1 0 0 1 0-2h2a1 1 0 0 1 0 2zm-1 8a2 2 0 1 1 2-2 2 2 0 0 1-2 2zm0-2zM17 9h-2a1 1 0 0 1 0-2h2a1 1 0 0 1 0 2zm0 4h-2a1 1 0 0 1 0-2h2a1 1 0 0 1 0 2zm0 4h-2a1 1 0 0 1 0-2h2a1 1 0 0 1 0 2zm-1 8a2 2 0 1 1 2-2 2 2 0 0 1-2 2zm0-2z"></path>
    <path d="M27 9h-2a1 1 0 0 1 0-2h2a1 1 0 0 1 0 2zm0 4h-2a1 1 0 0 1 0-2h2a1 1 0 0 1 0 2zm0 4h-2a1 1 0 0 1 0-2h2a1 1 0 0 1 0 2zm-1 8a2 2 0 1 1 2-2 2 2 0 0 1-2 2zm0-2z"></path>
  </symbol>
  <symbol viewBox="0 0 320 320" fill="none" xmlns="http://www.w3.org/2000/svg" id="dog-shirt">
    <path fill-rule="evenodd" clip-rule="evenodd" d="M171.148 6.555c-29.059-4.128-51.009 15.237-61.993 42.388-4.731 11.696-8.827 26.242-11.836 42.477 7.128-2.014 21.234-5.176 28.834-6.073 12.744-6.35 29.822-15.957 30.53-16.883.872 1.144 18.064 14.096 29.462 21.87 6.931 1.232 23.562 5.852 25.997 6.98 0 0 3.943 1.494 9.697 3.722 1.823.706 3.828 1.486 5.948 2.315a69.683 69.683 0 0 1-3.3-5.126 67.943 67.943 0 0 1-4.346-8.89c-4.371-10.87-5.127-21.856-5.829-32.052-.763-11.083-1.462-21.233-6.669-29.285-8.967-13.864-20.12-19.117-36.495-21.443zm93.374 135.185c-.601 7.491-1.252 15.448-1.723 21.211-.359 4.384-.613 7.497-.663 8.168-.116 1.549-14.247-.966-27.485-3.321-10.765-1.915-20.94-3.726-22.509-3.161-1.617.581.821 20.632 3.567 43.22 3.198 26.309 6.815 56.06 4.932 62.5-2.099 7.178-55.46 5.028-98.588-.426 4.454 6.648 9.472 12.813 15.099 18.378 21.085 20.854 47.163 29.072 76.49 24.435 32.778-5.182 46.113-36.978 55.31-58.908l.183-.434c10.458-24.934 15.393-58.673 5.499-91.758-2.377-7.95-5.917-14.346-10.112-19.904zM156.649 68.391c.062-.003.072.022.034.072-.028-.035-.039-.06-.034-.072z" fill="#B2AB73"></path>
    <path d="M93.157 92.827c46.746 10.561 72.821 12.257 118.985 4.488M93.157 92.827s-49.993 23.438-50.993 27.427c-1 3.99-2.699 39.325-2 42.388.698 3.063 40.995.032 44.494 1.995 3.5 1.963-20.497 79.788-16.998 91.757 3.5 11.968 149.481 25.931 152.981 13.963 3.499-11.969-11.999-104.462-8.499-105.72 3.499-1.258 49.784 9.29 49.993 6.482.21-2.807 4-48.371 4-50.865 0-2.493-53.993-22.94-53.993-22.94M93.157 92.828c2.282-1.329 23.125-6.315 32.996-7.48m85.989 11.968c-2.435-1.129-19.067-5.749-25.997-6.982m-33.496-44.382c-4.96-3.138-6.992-8.297-5.499-13.963 1.519-5.766 6.065-8.763 11.999-9.475 7.047-.846 12.146 3.233 15.498 9.475 3.134 5.837 1.88 10.605 0 16.955-2.936 9.913-17.998 19.448-17.998 19.448m0 0c1.198-.057-17.059 10.261-30.496 16.956m30.496-16.956c-.172.404 17.742 13.926 29.496 21.942m-59.992-4.986c22.997 0 37.995 1.994 59.992 4.986m18.498 20.446s15.214-5.487 20.497-13.464c3.2-4.831.38-10.457 4.999-13.963 3.506-2.66 10.999-2.493 10.999-2.493m0 0s-.658 7.48 0 8.976c.659 1.496 19.9 2.493 20.997.997 1.098-1.496 1.5-15.958.5-16.955-1-.997-18.997-.997-20.497 0s-1 6.982-1 6.982zm-130.483 63.83h6.499m6.499 0h-6.499m0 0l-4.499 22.94m0 0h-6.999m6.999 0h8.499m108.985-36.903c-.216 5.144-.23 7.224 0 8.977m15.498-13.465c-.017 2.527-.245 4.391-1.499 9.475m0 9.974c.21 2.921.175 4.559 0 7.48M84.658 238.94c.301 3.116.315 4.863 0 7.979m5 4.488c2.559.619 4.093.597 6.999 0m17.997-50.865s-5.239-8.879-10.498-8.478c-4.82.368-6.927 3.69-7.5 8.478-.736 6.167 10.499 7.978 10.499 10.472 0 1.995-8.905 3.514-8.999 9.475-.082 5.239 2.26 8.104 7.5 8.477 6.999.499 13.498-10.472 13.498-10.472l47.494 4.488s8.499 8.478 13.998 8.478c5.499 0 9.964-6.409 7.999-10.971-1.965-4.562-9.999-4.488-9.999-6.483 0-1.995 12.483-3.66 10.999-9.974-1.201-5.105-4.245-6.793-9.499-6.981-5.956-.214-10.499 7.979-10.499 7.979l-54.993-4.488zm47.994-43.884c1.703.283 7.196-9.664 12.999-6.982 4.357 2.014 4.556 6.125 3.499 8.478-3.629 8.082-15.769 17.522-15.998 17.454-.229-.069-13.652-15.114-15.498-17.454-2.354-2.985-1.326-8.904 3.5-9.974 4.499-.997 9.795 8.195 11.498 8.478z" stroke="#000" stroke-width="5" stroke-linecap="round"></path>
  </symbol>
  <symbol viewBox="0 0 24 24" fill="none" xmlns="http://www.w3.org/2000/svg" id="edit-pen-write-1">
    <path fill-rule="evenodd" clip-rule="evenodd" d="M15.793 3.793a3.121 3.121 0 1 1 4.414 4.414L13.1 15.315a3 3 0 0 1-1.394.79l-3.462.865a1 1 0 0 1-1.213-1.213l.866-3.462a3 3 0 0 1 .789-1.394l7.108-7.108zm3 1.414a1.121 1.121 0 0 0-1.586 0L10.1 12.315a1 1 0 0 0-.263.465l-.462 1.846 1.846-.462a1 1 0 0 0 .465-.263l7.108-7.108a1.121 1.121 0 0 0 0-1.586z" fill="#4296FF"></path>
    <path fill-rule="evenodd" clip-rule="evenodd" d="M2 7a5 5 0 0 1 5-5h5a1 1 0 1 1 0 2H7a3 3 0 0 0-3 3v10a3 3 0 0 0 3 3h10a3 3 0 0 0 3-3v-5a1 1 0 1 1 2 0v5a5 5 0 0 1-5 5H7a5 5 0 0 1-5-5V7z" fill="#152C70"></path>
  </symbol>
  <symbol viewBox="0 0 24 24" fill="none" xmlns="http://www.w3.org/2000/svg" id="edit-pen-write">
    <path fill-rule="evenodd" clip-rule="evenodd" d="M19.207 2.793a3.121 3.121 0 0 0-4.414 0l-9.108 9.108a3 3 0 0 0-.79 1.394l-.865 3.463a1 1 0 0 0 1.213 1.212l3.462-.865a2.999 2.999 0 0 0 1.394-.79l9.108-9.108a3.121 3.121 0 0 0 0-4.414zm-3 1.414a1.121 1.121 0 0 1 1.586 1.586l-9.108 9.108a1 1 0 0 1-.465.263l-1.846.462.462-1.846a1 1 0 0 1 .263-.464l9.108-9.109z" fill="#152C70"></path>
    <path d="M5 20a1 1 0 1 0 0 2h14a1 1 0 1 0 0-2H5z" fill="#4296FF"></path>
  </symbol>
  <symbol viewBox="0 0 32 32" xmlns="http://www.w3.org/2000/svg" id="email-mail-message-letter-contact-envelope-information">
    <path d="M6 32H3a3 3 0 0 1-3-3V13a3 3 0 0 1 3-3h6.68a1 1 0 0 1 0 2H3a1 1 0 0 0-1 1v16a1 1 0 0 0 1 1h3a1 1 0 0 1 0 2zm23 0H10a1 1 0 0 1 0-2h19a1 1 0 0 0 1-1V13a1 1 0 0 0-1-1h-2a1 1 0 0 1 0-2h2a3 3 0 0 1 3 3v16a3 3 0 0 1-3 3z"></path>
    <path d="M16 25.267a3 3 0 0 1-2.042-.8L1.319 12.733a1 1 0 0 1 1.362-1.466L15.32 23a1 1 0 0 0 1.36 0l12.639-11.733a1 1 0 0 1 1.362 1.466L18.042 24.469a3 3 0 0 1-2.042.798z"></path>
    <path d="M2 31a1 1 0 0 1-.707-1.707l9.33-9.33a1 1 0 0 1 1.414 1.414l-9.33 9.33A1 1 0 0 1 2 31zm28 0a1 1 0 0 1-.707-.293l-9.33-9.33a1 1 0 0 1 1.414-1.414l9.33 9.33A1 1 0 0 1 30 31zM16 16a8 8 0 1 1 8-8 8.009 8.009 0 0 1-8 8zm0-14a6 6 0 1 0 6 6 6.006 6.006 0 0 0-6-6z"></path>
    <path d="M16 12a1 1 0 0 1-1-1V7a1 1 0 0 1-.707-1.707l1-1A1 1 0 0 1 17 5v6a1 1 0 0 1-1 1z" fill="#77acf1"></path>
  </symbol>
  <symbol viewBox="0 0 24 24" fill="none" xmlns="http://www.w3.org/2000/svg" id="emoji-face-straight-satisfactory">
    <path d="M8.832 14.445a1 1 0 0 0-1.664 1.11c2.299 3.448 7.365 3.448 9.664 0a1 1 0 0 0-1.664-1.11c-1.507 2.26-4.829 2.26-6.336 0zM17 9.5a1.5 1.5 0 1 1-3 0 1.5 1.5 0 0 1 3 0zM8.5 11a1.5 1.5 0 1 0 0-3 1.5 1.5 0 0 0 0 3z" fill="#4296FF"></path>
    <path fill-rule="evenodd" clip-rule="evenodd" d="M12 4a8 8 0 1 0 0 16 8 8 0 0 0 0-16zM2 12C2 6.477 6.477 2 12 2s10 4.477 10 10-4.477 10-10 10S2 17.523 2 12z" fill="#152C70"></path>
  </symbol>
  <symbol viewBox="0 0 24 24" fill="none" xmlns="http://www.w3.org/2000/svg" id="envelop-mail-closed">
    <path fill-rule="evenodd" clip-rule="evenodd" d="M2 9a5 5 0 0 1 5-5h10a5 5 0 0 1 5 5v6a5 5 0 0 1-5 5H7a5 5 0 0 1-5-5V9zm5-3a3 3 0 0 0-3 3v6a3 3 0 0 0 3 3h10a3 3 0 0 0 3-3V9a3 3 0 0 0-3-3H7z" fill="#152C70"></path>
    <path fill-rule="evenodd" clip-rule="evenodd" d="M6.22 8.375a1 1 0 0 1 1.405-.156l2.501 2.001a3 3 0 0 0 3.748 0l2.501-2a1 1 0 0 1 1.25 1.56l-2.502 2.002a5 5 0 0 1-6.246 0L6.375 9.78a1 1 0 0 1-.156-1.406z" fill="#4296FF"></path>
  </symbol>
  <symbol viewBox="0 0 24 24" fill="none" xmlns="http://www.w3.org/2000/svg" id="event-calender-date-note">
    <path fill-rule="evenodd" clip-rule="evenodd" d="M7 2a1 1 0 0 1 1 1v2a1 1 0 0 1-2 0V3a1 1 0 0 1 1-1zm10 0a1 1 0 0 1 1 1v2a1 1 0 1 1-2 0V3a1 1 0 0 1 1-1zM7 13a1 1 0 0 1 1-1h8a1 1 0 1 1 0 2H8a1 1 0 0 1-1-1zm0 4a1 1 0 0 1 1-1h4a1 1 0 1 1 0 2H8a1 1 0 0 1-1-1z" fill="#4296FF"></path>
    <path fill-rule="evenodd" clip-rule="evenodd" d="M7 4a5 5 0 0 0-5 5v8a5 5 0 0 0 5 5h10a5 5 0 0 0 5-5V9a5 5 0 0 0-5-5H7zm12.83 4A3.001 3.001 0 0 0 17 6H7a3.001 3.001 0 0 0-2.83 2h15.66zM4 10h16v7a3 3 0 0 1-3 3H7a3 3 0 0 1-3-3v-7z" fill="#152C70"></path>
  </symbol>
  <symbol viewBox="0 0 24 24" fill="none" xmlns="http://www.w3.org/2000/svg" id="eye-view-reveal-show">
    <path fill-rule="evenodd" clip-rule="evenodd" d="M16.239 5.001A9.479 9.479 0 0 0 3.872 8.603L2.655 10.63a2.66 2.66 0 0 0 0 2.738l1.217 2.028a9.479 9.479 0 0 0 16.256 0l1.217-2.028a2.66 2.66 0 0 0 0-2.738l-1.217-2.028A9.479 9.479 0 0 0 16.238 5zm-7.584 1.79a7.478 7.478 0 0 1 9.758 2.84l1.217 2.03a.66.66 0 0 1 0 .679l-1.217 2.028a7.477 7.477 0 0 1-12.826 0L4.37 12.34a.66.66 0 0 1 0-.68l1.217-2.028A7.479 7.479 0 0 1 8.655 6.79z" fill="#152C70"></path>
    <path fill-rule="evenodd" clip-rule="evenodd" d="M12 8a4 4 0 1 0 0 7.999A4 4 0 0 0 12 8zm-2 4a2 2 0 1 1 3.999-.002 2 2 0 0 1-3.999.003z" fill="#4296FF"></path>
  </symbol>
  <symbol xmlns="http://www.w3.org/2000/svg" viewBox="0 0 512 512" id="facebook-social-media">
    <path d="M476.69 512H35.31C15.89 512 0 496.11 0 476.69V35.31C0 15.89 15.89 0 35.31 0h441.38C496.11 0 512 15.89 512 35.31v441.38c0 19.42-15.89 35.31-35.31 35.31" fill="#4d6fa9"></path>
    <path d="M432.552 88.276v88.276h-79.448c-9.71 0-17.655 7.945-17.655 17.655v52.966h88.276v88.276h-88.276V512h-88.276V335.448h-70.621v-88.276h70.621v-52.966c0-55.614 42.372-101.517 97.103-105.931h88.276z" fill="#fff"></path>
  </symbol>
  <symbol viewBox="0 0 32 32" xmlns="http://www.w3.org/2000/svg" id="file-document-paper-data-archive-office-work">
    <path d="M22 32H6a3 3 0 0 1-3-3V7a3 3 0 0 1 3-3h2a1 1 0 0 1 0 2H6a1 1 0 0 0-1 1v22a1 1 0 0 0 1 1h16a1 1 0 0 0 1-1V11.829a1 1 0 0 0-.293-.708l-4.828-4.828A1 1 0 0 0 17.171 6H12a1 1 0 0 1 0-2h5.171a2.978 2.978 0 0 1 2.122.879l4.828 4.828A2.978 2.978 0 0 1 25 11.829V29a3 3 0 0 1-3 3z"></path>
    <path d="M28 19a1 1 0 0 1-1-1V7.829a1 1 0 0 0-.293-.708l-4.828-4.828A1 1 0 0 0 21.171 2H10a1 1 0 0 0-1 1v2a1 1 0 0 1-2 0V3a3 3 0 0 1 3-3h11.171a2.978 2.978 0 0 1 2.122.879l4.828 4.828A2.978 2.978 0 0 1 29 7.829V18a1 1 0 0 1-1 1zm-2 9h-2a1 1 0 0 1 0-2h2a1 1 0 0 0 1-1v-3a1 1 0 0 1 2 0v3a3 3 0 0 1-3 3z"></path>
    <path d="M23 12h-5a1 1 0 0 1-1-1V6a1 1 0 0 1 2 0v4h4a1 1 0 0 1 0 2z"></path>
    <path d="M13 23a1 1 0 0 1-.707-.293l-3-3a1 1 0 0 1 1.414-1.414L13 20.586l4.293-4.293a1 1 0 0 1 1.414 1.414l-5 5A1 1 0 0 1 13 23z" fill="#77acf1"></path>
  </symbol>
  <symbol viewBox="0 0 24 24" fill="none" xmlns="http://www.w3.org/2000/svg" id="first-aid-box-red-cross">
    <path fill-rule="evenodd" clip-rule="evenodd" d="M7.1 6a5.002 5.002 0 0 1 9.8 0h.1a5 5 0 0 1 5 5v6a5 5 0 0 1-5 5H7a5 5 0 0 1-5-5v-6a5 5 0 0 1 5-5h.1zm2.07 0a3.001 3.001 0 0 1 5.66 0H9.17zM4 11a3 3 0 0 1 3-3h10a3 3 0 0 1 3 3v6a3 3 0 0 1-3 3H7a3 3 0 0 1-3-3v-6z" fill="#152C70"></path>
    <path d="M12 10a1 1 0 0 1 1 1v2h2a1 1 0 1 1 0 2h-2v2a1 1 0 1 1-2 0v-2H9a1 1 0 1 1 0-2h2v-2a1 1 0 0 1 1-1z" fill="#4296FF"></path>
  </symbol>
  <symbol viewBox="0 0 32 32" xmlns="http://www.w3.org/2000/svg" id="flashdisk-flashdrive-usb-drive-memory-save-hardware">
    <path d="M18 25a1 1 0 0 1-.707-.293l-10-10a1 1 0 1 1 1.414-1.414l10 10A1 1 0 0 1 18 25zM7.02 26a1 1 0 0 1-.01-2h.01a1 1 0 0 1 0 2z"></path>
    <path d="M7 32a1 1 0 0 1-.707-.293l-6-6a1 1 0 0 1 0-1.414l6-6a1 1 0 0 1 1.414 0l6 6a1 1 0 0 1-1.414 1.414L7 20.414 2.414 25 7 29.586l2.293-2.293a1 1 0 0 1 1.414 1.414l-3 3A1 1 0 0 1 7 32z"></path>
    <path d="M15 27.17a2.992 2.992 0 0 1-2.121-.877l-7.172-7.172a3 3 0 0 1 0-4.243l1.586-1.585a1 1 0 0 1 1.414 1.414l-1.586 1.586a1 1 0 0 0 0 1.414l7.172 7.172a1 1 0 0 0 1.414 0l12.515-12.515a6.071 6.071 0 0 0-8.586-8.586l-7.929 7.929a1 1 0 0 1-1.414-1.414l7.929-7.929a8.071 8.071 0 1 1 11.414 11.414L17.121 26.293A2.994 2.994 0 0 1 15 27.17z"></path>
    <path d="M17 16a1 1 0 0 1-.707-1.707l3-3a1 1 0 0 1 1.414 1.414l-3 3A1 1 0 0 1 17 16z"></path>
  </symbol>
  <symbol viewBox="0 0 32 32" xmlns="http://www.w3.org/2000/svg" id="floppydisk-diskette-disk-save-file-office-memory">
    <path d="M27 32h-2a1 1 0 0 1 0-2h2a1 1 0 0 0 1-1V7.829a1 1 0 0 0-.293-.708l-4.828-4.828A1.009 1.009 0 0 0 22.172 2H5a1 1 0 0 0-1 1v11a1 1 0 0 1-2 0V3a3 3 0 0 1 3-3h17.172a2.978 2.978 0 0 1 2.121.879l4.828 4.828A2.983 2.983 0 0 1 30 7.829V29a3 3 0 0 1-3 3zm-6 0H5a3 3 0 0 1-3-3V18a1 1 0 0 1 2 0v11a1 1 0 0 0 1 1h16a1 1 0 0 1 0 2z"></path>
    <path d="M19 10H9a3 3 0 0 1-3-3V1a1 1 0 0 1 1-1h14a1 1 0 0 1 1 1v6a3 3 0 0 1-3 3zM8 2v5a1 1 0 0 0 1 1h10a1 1 0 0 0 1-1V2zm13 30H7a1 1 0 0 1-1-1V21a3 3 0 0 1 3-3h10a3 3 0 0 1 3 3v10a1 1 0 0 1-1 1zM8 30h12v-9a1 1 0 0 0-1-1H9a1 1 0 0 0-1 1z"></path>
    <path d="M17 6h-1a1 1 0 0 1 0-2h1a1 1 0 0 1 0 2zm0 18h-6a1 1 0 0 1 0-2h6a1 1 0 0 1 0 2zm0 4h-6a1 1 0 0 1 0-2h6a1 1 0 0 1 0 2z"></path>
  </symbol>
  <symbol viewBox="0 0 24 24" fill="none" xmlns="http://www.w3.org/2000/svg" id="gift-reward-surprise">
    <path fill-rule="evenodd" clip-rule="evenodd" d="M12 3.05a3.5 3.5 0 1 0 0 4.899 3.5 3.5 0 1 0 0-4.899zM8 5.5a1.5 1.5 0 1 1 3 0 1.5 1.5 0 0 1-3 0zm5 0a1.5 1.5 0 1 0 3 0 1.5 1.5 0 0 0-3 0z" fill="#4296FF"></path>
    <path fill-rule="evenodd" clip-rule="evenodd" d="M3 11.5A3.5 3.5 0 0 1 6.5 8h11a3.5 3.5 0 0 1 1.5 6.663V17a5 5 0 0 1-5 5h-4a5 5 0 0 1-5-5v-2.337A3.5 3.5 0 0 1 3 11.5zM13 15h4v2a3 3 0 0 1-3 3h-1v-5zm0-2h4.5a1.5 1.5 0 0 0 0-3H13v3zm-2-3v3H6.5a1.5 1.5 0 0 1 0-3H11zm0 5v5h-1a3 3 0 0 1-3-3v-2h4z" fill="#152C70"></path>
  </symbol>
  <symbol xmlns="http://www.w3.org/2000/svg" viewBox="0 0 512 512" id="google-play-social-media">
    <path fill="#5cdadd" d="M29.53 0v512l269.474-260.491z"></path>
    <path fill="#bdecc4" d="M369.067 180.547l-106.892-61.08L29.53 0l269.474 251.509z"></path>
    <path fill="#dc68a1" d="M29.53 512l232.645-128.449 106.892-61.081-70.063-70.961z"></path>
    <path d="M369.067 180.547l-70.063 70.961 70.063 70.961 108.688-62.877c6.288-3.593 6.288-11.677 0-15.27l-108.688-63.775z" fill="#ffca96"></path>
  </symbol>
  <symbol viewBox="0 0 32 32" xmlns="http://www.w3.org/2000/svg" id="graph-chart-data-analytics-statistic-report-analysis">
    <path d="M17 32h-2a3 3 0 0 1-3-3V17a3 3 0 0 1 3-3h2a3 3 0 0 1 3 3v6a1 1 0 0 1-2 0v-6a1 1 0 0 0-1-1h-2a1 1 0 0 0-1 1v12a1 1 0 0 0 1 1h2a1 1 0 0 0 1-1v-2a1 1 0 0 1 2 0v2a3 3 0 0 1-3 3zM7 32H5a3 3 0 0 1-3-3v-6a3 3 0 0 1 3-3h2a3 3 0 0 1 3 3v6a3 3 0 0 1-3 3zM5 22a1 1 0 0 0-1 1v6a1 1 0 0 0 1 1h2a1 1 0 0 0 1-1v-6a1 1 0 0 0-1-1zm22 10h-2a3 3 0 0 1-3-3V13a3 3 0 0 1 3-3h2a3 3 0 0 1 3 3v4a1 1 0 0 1-2 0v-4a1 1 0 0 0-1-1h-2a1 1 0 0 0-1 1v16a1 1 0 0 0 1 1h2a1 1 0 0 0 1-1v-8a1 1 0 0 1 2 0v8a3 3 0 0 1-3 3zM6 16a3 3 0 1 1 3-3 3 3 0 0 1-3 3zm0-4a1 1 0 1 0 1 1 1 1 0 0 0-1-1zm10-2a3 3 0 1 1 3-3 3 3 0 0 1-3 3zm0-4a1 1 0 1 0 1 1 1 1 0 0 0-1-1zm10 0a3 3 0 1 1 3-3 3 3 0 0 1-3 3zm0-4a1 1 0 1 0 1 1 1 1 0 0 0-1-1z"></path>
    <path d="M7.711 12.97a1 1 0 0 1-.511-1.858l6.58-3.94a1 1 0 0 1 1.02 1.716l-6.58 3.94a1 1 0 0 1-.509.142zM17.85 7.26a1 1 0 0 1-.371-1.929l6.3-2.519a1 1 0 1 1 .742 1.857l-6.3 2.519a.987.987 0 0 1-.371.072z"></path>
  </symbol>
  <symbol viewBox="0 0 24 24" fill="none" xmlns="http://www.w3.org/2000/svg" id="heart-break-love-like">
    <path fill-rule="evenodd" clip-rule="evenodd" d="M12.447 5.106a1 1 0 0 1 .448 1.341l-1.627 3.254L14.6 12.2a1 1 0 0 1 .349 1.116l-2 6a1 1 0 0 1-1.898-.632l1.772-5.317L9.4 10.8a1 1 0 0 1-.294-1.247l2-4a1 1 0 0 1 1.341-.447z" fill="#4296FF"></path>
    <path fill-rule="evenodd" clip-rule="evenodd" d="M2 8.606a5.606 5.606 0 0 1 8.715-4.665L12 4.798l1.285-.857A5.606 5.606 0 0 1 22 8.606v1.05a6.657 6.657 0 0 1-1.95 4.708l-5.929 5.929a3 3 0 0 1-4.242 0l-5.93-5.929A6.657 6.657 0 0 1 2 9.657V8.606zM7.606 5A3.606 3.606 0 0 0 4 8.606v1.05c0 1.236.49 2.42 1.364 3.294l5.929 5.929a1 1 0 0 0 1.414 0l5.929-5.93A4.656 4.656 0 0 0 20 9.658V8.606a3.606 3.606 0 0 0-5.606-3l-1.84 1.226a1 1 0 0 1-1.109 0l-1.84-1.226a3.606 3.606 0 0 0-2-.606z" fill="#152C70"></path>
  </symbol>
  <symbol viewBox="0 0 24 24" fill="none" xmlns="http://www.w3.org/2000/svg" id="heart-love-like-favorite">
    <path fill-rule="evenodd" clip-rule="evenodd" d="M2 8.606a5.606 5.606 0 0 1 8.715-4.665L12 4.798l1.285-.857A5.606 5.606 0 0 1 22 8.606v.738a7.413 7.413 0 0 1-2.171 5.241l-5.708 5.708a3 3 0 0 1-4.242 0L4.17 14.585A7.412 7.412 0 0 1 2 9.344v-.738zM7.606 5A3.606 3.606 0 0 0 4 8.606v.738c0 1.435.57 2.812 1.585 3.827l5.708 5.708a1 1 0 0 0 1.414 0l5.708-5.708A5.413 5.413 0 0 0 20 9.344v-.738a3.606 3.606 0 0 0-5.606-3l-1.84 1.226a1 1 0 0 1-1.109 0l-1.84-1.226a3.606 3.606 0 0 0-2-.606z" fill="#152C70"></path>
  </symbol>
  <symbol viewBox="0 0 24 24" fill="none" xmlns="http://www.w3.org/2000/svg" id="house-home-hut">
    <path fill-rule="evenodd" clip-rule="evenodd" d="M12 16a2 2 0 0 0-2 2v1h4v-1a2 2 0 0 0-2-2zm-4 2a4 4 0 0 1 8 0v2a1 1 0 0 1-1 1H9a1 1 0 0 1-1-1v-2z" fill="#4296FF"></path>
    <path fill-rule="evenodd" clip-rule="evenodd" d="M8.896 4.182a5 5 0 0 1 6.207 0l4 3.166A5 5 0 0 1 21 11.268V16a5 5 0 0 1-5 5H8a5 5 0 0 1-5-5v-4.732a5 5 0 0 1 1.896-3.92l4-3.166zm4.966 1.568a3 3 0 0 0-3.724 0l-4 3.166A3 3 0 0 0 5 11.268V16a3 3 0 0 0 3 3h8a3 3 0 0 0 3-3v-4.732a3 3 0 0 0-1.138-2.352l-4-3.166z" fill="#152C70"></path>
  </symbol>
  <symbol viewBox="0 0 32 32" xmlns="http://www.w3.org/2000/svg" id="id-card-identity-name-identification-information-office">
    <path d="M29 9h-5a1 1 0 0 0 0 2h5a1 1 0 0 1 1 1v16a1 1 0 0 1-1 1H3a1 1 0 0 1-1-1V12a1 1 0 0 1 1-1h8a2 2 0 0 0 2 2h6a2 2 0 0 0 2-2V3a2 2 0 0 0-2-2h-6a2 2 0 0 0-2 2v6H3a3 3 0 0 0-3 3v16a3 3 0 0 0 3 3h26a3 3 0 0 0 3-3V12a3 3 0 0 0-3-3zM13 3h6v8h-6z"></path>
    <path d="M4 26a1 1 0 0 0 1 1h8a1 1 0 0 0 1-1 5 5 0 0 0-2.207-4.145 4 4 0 1 0-5.586 0A5 5 0 0 0 4 26zm3-7a2 2 0 1 1 2 2 2 2 0 0 1-2-2zm2 4a3.006 3.006 0 0 1 2.829 2H6.171A3.006 3.006 0 0 1 9 23zm16 2h-6a1 1 0 0 1 0-2h6a1 1 0 0 1 0 2zm2-4h-8a1 1 0 0 1 0-2h8a1 1 0 0 1 0 2zm0-4h-8a1 1 0 0 1 0-2h8a1 1 0 0 1 0 2zM16.02 9a1 1 0 0 1-.01-2h.01a1 1 0 0 1 0 2z"></path>
  </symbol>
  <symbol viewBox="0 0 24 24" fill="none" xmlns="http://www.w3.org/2000/svg" id="image-landscape-png">
    <path fill-rule="evenodd" clip-rule="evenodd" d="M5.517 11.418a3 3 0 0 1 4.8.256l1.438 2.155a1 1 0 0 0 1.362.294l.836-.523a3 3 0 0 1 3.942.68l2.889 3.647a1 1 0 0 1-1.568 1.242l-2.889-3.646a1 1 0 0 0-1.314-.227l-.836.523a3 3 0 0 1-4.086-.88l-1.437-2.156a1 1 0 0 0-1.6-.085L3.767 16.64a1 1 0 1 1-1.536-1.28l3.285-3.942z" fill="#4296FF"></path>
    <path d="M18 9a2 2 0 1 1-4 0 2 2 0 0 1 4 0z" fill="#4296FF"></path>
    <path fill-rule="evenodd" clip-rule="evenodd" d="M2 8a5 5 0 0 1 5-5h10a5 5 0 0 1 5 5v8a5 5 0 0 1-5 5H7a5 5 0 0 1-5-5V8zm5-3a3 3 0 0 0-3 3v8a3 3 0 0 0 3 3h10a3 3 0 0 0 3-3V8a3 3 0 0 0-3-3H7z" fill="#152C70"></path>
  </symbol>
  <symbol viewBox="0 0 24 24" fill="none" xmlns="http://www.w3.org/2000/svg" id="inbox">
    <path fill-rule="evenodd" clip-rule="evenodd" d="M5 4.764A5 5 0 0 1 9.472 2h5.056A5 5 0 0 1 19 4.764l2.683 5.366A3 3 0 0 1 22 11.473V17a5 5 0 0 1-5 5H7a5 5 0 0 1-5-5v-5.528a3 3 0 0 1 .317-1.341L5 4.763zM9.472 4A3 3 0 0 0 6.79 5.658l-2.683 5.367a1 1 0 0 0-.106.447V17a3 3 0 0 0 3 3h10a3 3 0 0 0 3-3v-5.528a1 1 0 0 0-.106-.447l-2.683-5.367A3 3 0 0 0 14.528 4H9.472z" fill="#4296FF"></path>
    <path fill-rule="evenodd" clip-rule="evenodd" d="M2 11h3.5A3.5 3.5 0 0 1 9 14.5a1.5 1.5 0 0 0 1.5 1.5h3a1.5 1.5 0 0 0 1.5-1.5 3.5 3.5 0 0 1 3.5-3.5H22v6a5 5 0 0 1-5 5H7a5 5 0 0 1-5-5v-6zm2 2v4a3 3 0 0 0 3 3h10a3 3 0 0 0 3-3v-4h-1.5a1.5 1.5 0 0 0-1.5 1.5 3.5 3.5 0 0 1-3.5 3.5h-3A3.5 3.5 0 0 1 7 14.5 1.5 1.5 0 0 0 5.5 13H4z" fill="#152C70"></path>
  </symbol>
  <symbol viewBox="0 0 32 32" xmlns="http://www.w3.org/2000/svg" id="job-employment-business-recuitment-seeker-applicant-work-2">
    <path d="M18.2 32H7.8A4.8 4.8 0 0 1 3 27.205V4.8A4.8 4.8 0 0 1 7.8 0h10.4A4.8 4.8 0 0 1 23 4.8V5a1 1 0 0 1-2 0v-.2A2.8 2.8 0 0 0 18.2 2H7.8A2.8 2.8 0 0 0 5 4.8v22.41A2.8 2.8 0 0 0 7.8 30h10.4a2.8 2.8 0 0 0 2.8-2.8V27a1 1 0 0 1 2 0v.2a4.8 4.8 0 0 1-4.8 4.8z"></path>
    <path d="M13 28a2 2 0 1 1 2-2 2 2 0 0 1-2 2zm0-2zm3-20h-6a1 1 0 0 1 0-2h6a1 1 0 0 1 0 2zm13 12H15a1 1 0 0 1-1-1v-4a1 1 0 0 1 1-1h14a1 1 0 0 1 1 1v4a1 1 0 0 1-1 1zm-13-2h12v-2H16z"></path>
    <path d="M26 24h-8a3 3 0 0 1-3-3v-4a1 1 0 0 1 1-1h12a1 1 0 0 1 1 1v4a3 3 0 0 1-3 3zm-9-6v3a1 1 0 0 0 1 1h8a1 1 0 0 0 1-1v-3zm9-4h-8a1 1 0 0 1-1-1v-2a3 3 0 0 1 3-3h4a3 3 0 0 1 3 3v2a1 1 0 0 1-1 1zm-7-2h6v-1a1 1 0 0 0-1-1h-4a1 1 0 0 0-1 1z"></path>
  </symbol>
  <symbol viewBox="0 0 32 32" xmlns="http://www.w3.org/2000/svg" id="job-employment-business-recuitment-seeker-applicant-work">
    <path d="M21 25h-8a1 1 0 0 1 0-2h7a2 2 0 0 0-2-2h-.928a4.524 4.524 0 0 1-2.518-.763 7.37 7.37 0 0 0-9.3.921l-3.547 3.549a1 1 0 0 1-1.414-1.414l3.549-3.549a9.369 9.369 0 0 1 11.821-1.171 2.524 2.524 0 0 0 1.409.427H18a4 4 0 0 1 4 4v1a1 1 0 0 1-1 1zm4-15H13a2 2 0 0 1-2-2V5a1 1 0 0 1 1-1h14a1 1 0 0 1 1 1v3a2 2 0 0 1-2 2zM13 6v2h12V6z"></path>
    <path d="M23 16h-8a3 3 0 0 1-3-3V9a1 1 0 0 1 1-1h12a1 1 0 0 1 1 1v4a3 3 0 0 1-3 3zm-9-6v3a1 1 0 0 0 1 1h8a1 1 0 0 0 1-1v-3zm9-4h-8a1 1 0 0 1-1-1V3a3 3 0 0 1 3-3h4a3 3 0 0 1 3 3v2a1 1 0 0 1-1 1zm-7-2h6V3a1 1 0 0 0-1-1h-4a1 1 0 0 0-1 1zM9 32a1 1 0 0 1-.707-1.707A4.384 4.384 0 0 1 11.414 29H20a3.014 3.014 0 0 0 2.4-1.2l7.069-9.425a3.015 3.015 0 0 0-3.027.924l-4.689 5.359a1 1 0 1 1-1.506-1.316l4.69-5.36a5.016 5.016 0 0 1 6.537-.868 1.117 1.117 0 0 1 .471.691 1.046 1.046 0 0 1-.145.8L24 29a5.024 5.024 0 0 1-4 2h-8.586a2.4 2.4 0 0 0-1.707.707A1 1 0 0 1 9 32z"></path>
  </symbol>
  <symbol viewBox="0 0 32 32" xmlns="http://www.w3.org/2000/svg" id="job-employment-find-recuitment-seeker-applicant-work">
    <path d="M13 26a12.994 12.994 0 1 1 12.588-9.748 1 1 0 0 1-1.936-.5A10.894 10.894 0 0 0 24 13a11 11 0 1 0-11 11 10.869 10.869 0 0 0 6.275-1.969 10.652 10.652 0 0 0 2.749-2.747 1 1 0 0 1 1.651 1.131 12.681 12.681 0 0 1-3.256 3.257A12.861 12.861 0 0 1 13 26z"></path>
    <path d="M28.879 32a3.142 3.142 0 0 1-2.207-.914l-7.529-7.529a1 1 0 0 1 1.414-1.414l7.529 7.529a1.121 1.121 0 0 0 1.586-1.586l-7.529-7.529a1 1 0 0 1 1.414-1.414l7.529 7.529A3.121 3.121 0 0 1 28.879 32zM19 15H7a2 2 0 0 1-2-2v-3a1 1 0 0 1 1-1h14a1 1 0 0 1 1 1v3a2 2 0 0 1-2 2zM7 11v2h12v-2z"></path>
    <path d="M17 21H9a3 3 0 0 1-3-3v-4a1 1 0 0 1 1-1h12a1 1 0 0 1 1 1v4a3 3 0 0 1-3 3zm-9-6v3a1 1 0 0 0 1 1h8a1 1 0 0 0 1-1v-3zm9-4H9a1 1 0 0 1-1-1V8a3 3 0 0 1 3-3h4a3 3 0 0 1 3 3v2a1 1 0 0 1-1 1zm-7-2h6V8a1 1 0 0 0-1-1h-4a1 1 0 0 0-1 1z"></path>
  </symbol>
  <symbol viewBox="0 0 32 32" xmlns="http://www.w3.org/2000/svg" id="job-work-chart-data-analysis-statistic-report">
    <path d="M22 18H10a1 1 0 0 1-1-1v-4a1 1 0 0 1 1-1h12a1 1 0 0 1 1 1v4a1 1 0 0 1-1 1zm-11-2h10v-2H11z"></path>
    <path d="M19 23h-6a3 3 0 0 1-3-3v-3a1 1 0 0 1 1-1h10a1 1 0 0 1 1 1v3a3 3 0 0 1-3 3zm-7-5v2a1 1 0 0 0 1 1h6a1 1 0 0 0 1-1v-2zm7-4h-6a1 1 0 0 1-1-1v-2a3 3 0 0 1 3-3h2a3 3 0 0 1 3 3v2a1 1 0 0 1-1 1zm-5-2h4v-1a1 1 0 0 0-1-1h-2a1 1 0 0 0-1 1z"></path>
    <path d="M30.86 15h-4.04a1 1 0 0 1-.983-.82 10.031 10.031 0 0 0-8.018-8.016A1 1 0 0 1 17 5.18V1.14a1 1 0 0 1 1.131-.991A16.045 16.045 0 0 1 28.8 6.4a1 1 0 0 1-1.6 1.2A14.063 14.063 0 0 0 19 2.329v2.048A12.057 12.057 0 0 1 27.623 13h2.049a13.71 13.71 0 0 0-.473-1.667 1 1 0 0 1 1.887-.666 16.009 16.009 0 0 1 .766 3.2A1 1 0 0 1 30.86 15zm-2.94 11.09a1 1 0 0 1-.707-.293l-2.85-2.85a1 1 0 0 1-.117-1.273 9.84 9.84 0 0 0 1.59-3.852A1 1 0 0 1 26.82 17h4.04a1 1 0 0 1 .992 1.132 15.892 15.892 0 0 1-3.139 7.568 1 1 0 0 1-.728.389zm-1.575-3.99l1.441 1.441A13.889 13.889 0 0 0 29.671 19h-2.045a11.783 11.783 0 0 1-1.281 3.1zM16 32a15.968 15.968 0 0 1-10.667-4.078 1 1 0 1 1 1.334-1.49A13.97 13.97 0 0 0 16 30a13.82 13.82 0 0 0 7.543-2.213l-1.45-1.45A11.877 11.877 0 0 1 16 28a12 12 0 0 1-3-23.624V2.329a14 14 0 0 0-8.843 21.137 1 1 0 0 1-1.691 1.068A15.994 15.994 0 0 1 13.869.149 1 1 0 0 1 15 1.14v4.04a1 1 0 0 1-.819.984A10 10 0 0 0 16 26a9.872 9.872 0 0 0 5.66-1.761 1 1 0 0 1 1.277.114l2.86 2.86a1 1 0 0 1-.1 1.5A15.814 15.814 0 0 1 16 32z"></path>
  </symbol>
  <symbol viewBox="0 0 32 32" xmlns="http://www.w3.org/2000/svg" id="keyboard-keypad-hardware-computer-input-typing-device">
    <path d="M29 32H3a3 3 0 0 1-3-3V17a3 3 0 0 1 3-3h13a1 1 0 0 1 0 2H3a1 1 0 0 0-1 1v12a1 1 0 0 0 1 1h26a1 1 0 0 0 1-1V17a1 1 0 0 0-1-1h-9a1 1 0 0 1 0-2h9a3 3 0 0 1 3 3v12a3 3 0 0 1-3 3z"></path>
    <path d="M8 20H6a1 1 0 0 1 0-2h2a1 1 0 0 1 0 2zm6 0h-2a1 1 0 0 1 0-2h2a1 1 0 0 1 0 2zm6 0h-2a1 1 0 0 1 0-2h2a1 1 0 0 1 0 2zm6 0h-2a1 1 0 0 1 0-2h2a1 1 0 0 1 0 2zM8 24H5a1 1 0 0 1 0-2h3a1 1 0 0 1 0 2zm6 0h-2a1 1 0 0 1 0-2h2a1 1 0 0 1 0 2zm6 0h-2a1 1 0 0 1 0-2h2a1 1 0 0 1 0 2zm7 0h-3a1 1 0 0 1 0-2h3a1 1 0 0 1 0 2zM8 28H6a1 1 0 0 1 0-2h2a1 1 0 0 1 0 2zm12 0h-8a1 1 0 0 1 0-2h8a1 1 0 0 1 0 2zm6 0h-2a1 1 0 0 1 0-2h2a1 1 0 0 1 0 2zM16 16a1 1 0 0 1-1-1v-2a3 3 0 0 1 3-3h5a1 1 0 0 0 0-2H9a3 3 0 0 1 0-6h5a1 1 0 0 0 1-1 1 1 0 0 1 2 0 3 3 0 0 1-3 3H9a1 1 0 0 0 0 2h14a3 3 0 0 1 0 6h-5a1 1 0 0 0-1 1v2a1 1 0 0 1-1 1z"></path>
  </symbol>
  <symbol viewBox="0 0 24 24" fill="none" xmlns="http://www.w3.org/2000/svg" id="laptop-mac-book-note">
    <path fill-rule="evenodd" clip-rule="evenodd" d="M9 4a5 5 0 0 0-5 5v5.02a2.303 2.303 0 0 0-.975 4.199l.103.068A10.199 10.199 0 0 0 8.785 20h6.43c2.013 0 3.982-.596 5.657-1.713l.103-.068a2.303 2.303 0 0 0-.975-4.2V9a5 5 0 0 0-5-5H9zm10.697 12h-4.73a1.667 1.667 0 0 1-1.634 1.333h-2.666A1.667 1.667 0 0 1 9.033 16h-4.73a.303.303 0 0 0-.168.555l.102.068A8.199 8.199 0 0 0 8.785 18h6.43c1.619 0 3.2-.48 4.548-1.377l.102-.068a.303.303 0 0 0-.168-.555zM18 14V9a3 3 0 0 0-3-3H9a3 3 0 0 0-3 3v5h12z" fill="#152C70"></path>
  </symbol>
  <symbol viewBox="0 0 32 32" xmlns="http://www.w3.org/2000/svg" id="laptop-notebook-technology-business-office-work-computer">
    <path d="M20 25a3.009 3.009 0 0 1-3 3h-2a3.009 3.009 0 0 1-3-3 1 1 0 0 1 1-1h6a1 1 0 0 1 1 1zm2-12h-8a1 1 0 0 1 0-2h8a1 1 0 0 1 0 2zm0 4H10a1 1 0 0 1 0-2h12a1 1 0 0 1 0 2zm-4 4h-8a1 1 0 0 1 0-2h8a1 1 0 0 1 0 2z"></path>
    <path d="M31 24h-4V7a1 1 0 0 0-.293-.707L26.414 6H27a2 2 0 0 1 2 2v13a1 1 0 0 0 2 0V8a4 4 0 0 0-4-4h-2.586L20.707.293A1 1 0 0 0 20 0H8a3 3 0 0 0-3 3v1a4 4 0 0 0-4 4v16a1 1 0 0 0-1 1v2a5.006 5.006 0 0 0 5 5h2a1 1 0 0 0 0-2H5a3 3 0 0 1-3-3v-1h28v1a3 3 0 0 1-3 3H11a1 1 0 0 0 0 2h16a5.006 5.006 0 0 0 5-5v-2a1 1 0 0 0-1-1zM21 3.414l2.292 2.292.294.294H21zM3 8a2 2 0 0 1 2-2v18H3zm4 16V3a1 1 0 0 1 1-1h11v5a1 1 0 0 0 1 1h5v16z" fill="#04009a"></path>
  </symbol>
  <symbol viewBox="0 0 24 24" fill="none" xmlns="http://www.w3.org/2000/svg" id="layout-wireframe">
    <path d="M3 8a1 1 0 0 0 0 2h8v11a1 1 0 1 0 2 0V10h8a1 1 0 1 0 0-2H3z" fill="#4296FF"></path>
    <path fill-rule="evenodd" clip-rule="evenodd" d="M2 7a5 5 0 0 1 5-5h10a5 5 0 0 1 5 5v10a5 5 0 0 1-5 5H7a5 5 0 0 1-5-5V7zm5-3a3 3 0 0 0-3 3v10a3 3 0 0 0 3 3h10a3 3 0 0 0 3-3V7a3 3 0 0 0-3-3H7z" fill="#152C70"></path>
  </symbol>
  <symbol xmlns="http://www.w3.org/2000/svg" viewBox="0 0 512.02 512.02" id="linkedin-social-media">
    <path d="M61.813 4.424c33.545 0 61.793 28.248 61.793 61.793 0 35.31-30.014 62.676-61.793 61.793C29.151 128.893.02 101.527.02 66.217-.863 31.789 27.386 4.424 61.813 4.424m34.428 503.172H25.62c-9.71 0-17.655-7.945-17.655-17.655V180.976c0-9.71 7.062-17.655 16.772-17.655H96.24c9.71 0 17.655 7.945 17.655 17.655v309.848c.001 8.827-7.944 16.772-17.654 16.772m414.896-236.579c0-65.324-48.552-116.524-113.876-116.524h-18.538c-35.31 0-69.738 16.772-88.276 44.138l-8.828 8.828v-35.31c0-3.531-5.297-8.828-8.828-8.828h-88.276c-3.531 0-8.828 3.531-8.828 7.945v329.269c0 3.531 5.297 7.062 8.828 7.062h97.103c3.531 0 8.828-3.531 8.828-7.062V309.858c0-32.662 24.717-60.028 57.379-60.91 16.772 0 31.779 6.179 43.255 17.655 10.593 10.593 15.007 25.6 15.007 42.372v189.793c0 3.531 5.297 8.828 8.828 8.828h88.276c3.531 0 8.828-5.297 8.828-8.828V271.017h-.882z" fill="#007aaa"></path>
  </symbol>
  <symbol viewBox="0 0 24 24" fill="none" xmlns="http://www.w3.org/2000/svg" id="location-pin-map">
    <path fill-rule="evenodd" clip-rule="evenodd" d="M11.915 2A7.911 7.911 0 0 0 4 9.91a7.9 7.9 0 0 0 1.328 4.384l4.285 6.429a2.868 2.868 0 0 0 4.774 0l4.285-6.429A7.905 7.905 0 0 0 16.16 3.13 7.922 7.922 0 0 0 12.085 2h-.17zM8.87 4.844A5.923 5.923 0 0 1 11.916 4h.168A5.912 5.912 0 0 1 18 9.91a5.905 5.905 0 0 1-.99 3.275l-4.286 6.428a.868.868 0 0 1-1.446 0l-4.285-6.428A5.905 5.905 0 0 1 8.87 4.844z" fill="#152C70"></path>
    <path fill-rule="evenodd" clip-rule="evenodd" d="M12 8a2 2 0 1 0 0 4 2 2 0 0 0 0-4zm-4 2a4 4 0 1 1 8 0 4 4 0 0 1-8 0z" fill="#4296FF"></path>
  </symbol>
  <symbol viewBox="0 0 24 24" fill="none" xmlns="http://www.w3.org/2000/svg" id="lock-security-open">
    <path fill-rule="evenodd" clip-rule="evenodd" d="M12 2a5 5 0 0 0-5 5v2a1 1 0 0 0 1 1h8a1 1 0 0 0 1-1V7a5 5 0 0 0-5-5zM9 7a3 3 0 1 1 6 0v1H9V7z" fill="#4296FF"></path>
    <path d="M14 14a2 2 0 0 1-1 1.732V17a1 1 0 1 1-2 0v-1.268A2 2 0 0 1 12 12a2 2 0 0 1 2 2z" fill="#4296FF"></path>
    <path fill-rule="evenodd" clip-rule="evenodd" d="M4 13a5 5 0 0 1 5-5h6a5 5 0 0 1 5 5v4a5 5 0 0 1-5 5H9a5 5 0 0 1-5-5v-4zm5-3a3 3 0 0 0-3 3v4a3 3 0 0 0 3 3h6a3 3 0 0 0 3-3v-4a3 3 0 0 0-3-3H9z" fill="#152C70"></path>
  </symbol>
  <symbol viewBox="0 0 24 24" fill="none" xmlns="http://www.w3.org/2000/svg" id="mic-sound-record-voice">
    <path d="M5 9a1 1 0 0 1 1 1v1a6 6 0 0 0 12 0v-1a1 1 0 1 1 2 0v1a8.001 8.001 0 0 1-7.002 7.938A.97.97 0 0 1 13 19v2a1 1 0 1 1-2 0v-2c0-.02 0-.041.002-.062A8.001 8.001 0 0 1 4 11v-1a1 1 0 0 1 1-1z" fill="#4296FF"></path>
    <path fill-rule="evenodd" clip-rule="evenodd" d="M8 6a4 4 0 1 1 8 0v5a4 4 0 0 1-8 0V6zm4-2a2 2 0 0 0-2 2v5a2 2 0 1 0 4 0V6a2 2 0 0 0-2-2z" fill="#152C70"></path>
  </symbol>
  <symbol viewBox="0 0 32 32" xmlns="http://www.w3.org/2000/svg" id="monitor-desktop-screen-computer-device-business-display">
    <path d="M31 18a1 1 0 0 0 1-1V3a3 3 0 0 0-3-3H3a3 3 0 0 0-3 3v20a3 3 0 0 0 3 3h5a1 1 0 0 0 0-2H3a1 1 0 0 1-1-1v-1h28v1a1 1 0 0 1-1 1H12a1 1 0 0 0-1 1v1.171A5.786 5.786 0 0 1 9.559 30H8a1 1 0 0 0 0 2h16a1 1 0 0 0 0-2h-1.559A5.788 5.788 0 0 1 21 26.171V26h8a3 3 0 0 0 3-3v-2a1 1 0 0 0-1-1H2V3a1 1 0 0 1 1-1h26a1 1 0 0 1 1 1v14a1 1 0 0 0 1 1zM20 30h-8a7.787 7.787 0 0 0 1-3.829V26h6v.171A7.787 7.787 0 0 0 20 30z" fill="#04009a"></path>
    <path d="M19 18H5a1 1 0 0 1 0-2h14a1 1 0 0 1 0 2zm8-4H5a1 1 0 0 1 0-2h22a1 1 0 0 1 0 2zm0-4H5a1 1 0 0 1 0-2h22a1 1 0 0 1 0 2zm-5-4H10a1 1 0 0 1 0-2h12a1 1 0 0 1 0 2z"></path>
  </symbol>
  <symbol viewBox="0 0 32 32" xmlns="http://www.w3.org/2000/svg" id="office-work-business-workplace-corporate-employee-job">
    <path d="M21 8H11a1 1 0 0 1 0-2h10a1 1 0 0 1 0 2zm0 4H11a1 1 0 0 1 0-2h10a1 1 0 0 1 0 2zm0 4H11a1 1 0 0 1 0-2h10a1 1 0 0 1 0 2zm0 4H11a1 1 0 0 1 0-2h10a1 1 0 0 1 0 2zM7 16H5a1 1 0 0 1 0-2h2a1 1 0 0 1 0 2zm0 4H5a1 1 0 0 1 0-2h2a1 1 0 0 1 0 2zm20-4h-2a1 1 0 0 1 0-2h2a1 1 0 0 1 0 2zm0 4h-2a1 1 0 0 1 0-2h2a1 1 0 0 1 0 2z"></path>
    <path d="M12 30H7a1 1 0 0 1-1-1V5a3 3 0 0 1 3-3h14a3 3 0 0 1 3 3v2a1 1 0 0 1-2 0V5a1 1 0 0 0-1-1H9a1 1 0 0 0-1 1v23h4a1 1 0 0 1 0 2zm13 0h-9a1 1 0 0 1 0-2h8V14a1 1 0 0 1 2 0v15a1 1 0 0 1-1 1z"></path>
    <path d="M7 30H1a1 1 0 0 1-1-1V13a3 3 0 0 1 3-3h4a1 1 0 0 1 1 1v18a1 1 0 0 1-1 1zm-5-2h4V12H3a1 1 0 0 0-1 1zm29 2h-6a1 1 0 0 1-1-1V11a1 1 0 0 1 1-1h4a3 3 0 0 1 3 3v16a1 1 0 0 1-1 1zm-5-2h4V13a1 1 0 0 0-1-1h-3zm-6 2a1 1 0 0 1-1-1v-5h-6v5a1 1 0 0 1-2 0v-5a2 2 0 0 1 2-2h6a2 2 0 0 1 2 2v5a1 1 0 0 1-1 1z"></path>
  </symbol>
  <symbol viewBox="0 0 32 32" xmlns="http://www.w3.org/2000/svg" id="printer-print-machine-office-business-document">
    <path d="M20 24h-8a1 1 0 0 1 0-2h8a1 1 0 0 1 0 2zm0 4h-8a1 1 0 0 1 0-2h8a1 1 0 0 1 0 2zm7.02-14a1 1 0 0 1-.01-2h.01a1 1 0 0 1 0 2zm-4 0a1 1 0 0 1-.01-2h.01a1 1 0 0 1 0 2zM11 14H5a1 1 0 0 1 0-2h6a1 1 0 0 1 0 2z"></path>
    <path d="M29 8V6a3 3 0 0 0-3-3h-1V1a1 1 0 0 0-1-1H8a1 1 0 0 0-1 1v2H6a3 3 0 0 0-3 3v2a3 3 0 0 0-3 3v10a3 3 0 0 0 3 3h1a1 1 0 0 0 0-2H3a1 1 0 0 1-1-1V11a1 1 0 0 1 1-1h26a1 1 0 0 1 1 1v10a1 1 0 0 1-1 1h-1a1 1 0 0 0 0 2h1a3 3 0 0 0 3-3V11a3 3 0 0 0-3-3zM7 8H5V6a1 1 0 0 1 1-1h1zm16-4v4H9V2h14zm4 4h-2V5h1a1 1 0 0 1 1 1z"></path>
    <path d="M26 18H6a1 1 0 0 0 0 2h1v11a1 1 0 0 0 1 1h16a1 1 0 0 0 1-1V20h1a1 1 0 0 0 0-2zm-3 12H9V20h14z"></path>
  </symbol>
  <symbol viewBox="0 0 24 24" fill="none" xmlns="http://www.w3.org/2000/svg" id="printer-print-photocopy-duplicate-scan">
    <path fill-rule="evenodd" clip-rule="evenodd" d="M6.084 6.084A5.002 5.002 0 0 1 11 2h2a5.001 5.001 0 0 1 4.916 4.084A5.002 5.002 0 0 1 22 11v2a5 5 0 0 1-5 5h-.126A4.01 4.01 0 0 0 17 17v-1a3 3 0 0 0 3-3v-2a3 3 0 0 0-3-3H7a3 3 0 0 0-3 3v2a3 3 0 0 0 3 3v1c0 .345.044.68.126 1H7a5 5 0 0 1-5-5v-2a5.002 5.002 0 0 1 4.084-4.916zM8.17 6A3.001 3.001 0 0 1 11 4h2c1.306 0 2.418.835 2.83 2H8.17z" fill="#152C70"></path>
    <path fill-rule="evenodd" clip-rule="evenodd" d="M6 13a1 1 0 0 1 1-1h10a1 1 0 0 1 1 1v4a5 5 0 0 1-5 5h-2a5 5 0 0 1-5-5v-4zm2 1v3a3 3 0 0 0 3 3h2a3 3 0 0 0 3-3v-3H8z" fill="#4296FF"></path>
  </symbol>
  <symbol viewBox="0 0 32 32" xmlns="http://www.w3.org/2000/svg" id="projector-entertaintment-movie-cinema-presentation-show-screen">
    <path d="M19 27a1 1 0 0 1-1-1v-4a1 1 0 0 1 2 0v4a1 1 0 0 1-1 1z"></path>
    <path d="M22 27h-6a1 1 0 0 1 0-2h6a1 1 0 0 1 0 2zM7 15H5a1 1 0 0 1 0-2h2a1 1 0 0 1 0 2z"></path>
    <path d="M29 21h-4.71a1 1 0 0 1 0-2H29a1 1 0 0 0 1-1v-8a1 1 0 0 0-1-1 1 1 0 0 1 0-2 3 3 0 0 1 3 3v8a3 3 0 0 1-3 3zM9 21H3a3 3 0 0 1-3-3v-8a3 3 0 0 1 3-3h10.71a1 1 0 0 1 0 2H3a1 1 0 0 0-1 1v8a1 1 0 0 0 1 1h6a1 1 0 0 1 0 2z"></path>
    <path d="M19 23a9 9 0 1 1 9-9 9.01 9.01 0 0 1-9 9zm0-16a7 7 0 1 0 7 7 7.008 7.008 0 0 0-7-7z"></path>
    <path d="M19 19a5 5 0 1 1 5-5 5.006 5.006 0 0 1-5 5zm0-8a3 3 0 1 0 3 3 3 3 0 0 0-3-3z"></path>
  </symbol>
  <symbol viewBox="0 0 32 32" xmlns="http://www.w3.org/2000/svg" id="projector-screen-presentation-office-conference-visual-display">
    <path d="M29 6H3a3 3 0 0 1 0-6h5a1 1 0 0 1 0 2H3a1 1 0 0 0 0 2h26a1 1 0 0 0 0-2H12a1 1 0 0 1 0-2h17a3 3 0 0 1 0 6z"></path>
    <path d="M29 30H3a1 1 0 0 1-1-1V5a1 1 0 0 1 1-1h26a1 1 0 0 1 0 2H4v22h24V9a1 1 0 0 1 2 0v20a1 1 0 0 1-1 1z"></path>
    <path d="M16 32a1 1 0 0 1-1-1v-2a1 1 0 0 1 2 0v2a1 1 0 0 1-1 1z"></path>
    <path d="M31 30H1a1 1 0 0 1 0-2h30a1 1 0 0 1 0 2zM17 18a1 1 0 0 1-.707-.293L12 13.414l-4.293 4.293a1 1 0 0 1-1.414-1.414l5-5a1 1 0 0 1 1.414 0L17 15.586l6.293-6.293a1 1 0 0 1 1.414 1.414l-7 7A1 1 0 0 1 17 18z"></path>
    <path d="M25 13a1 1 0 0 1-1-1v-2h-2a1 1 0 0 1 0-2h3a1 1 0 0 1 1 1v3a1 1 0 0 1-1 1zm-15 9H8a1 1 0 0 1 0-2h2a1 1 0 0 1 0 2zm7 0h-2a1 1 0 0 1 0-2h2a1 1 0 0 1 0 2zm0 4h-2a1 1 0 0 1 0-2h2a1 1 0 0 1 0 2zm7-4h-2a1 1 0 0 1 0-2h2a1 1 0 0 1 0 2zm0 4h-2a1 1 0 0 1 0-2h2a1 1 0 0 1 0 2zm-14 0H8a1 1 0 0 1 0-2h2a1 1 0 0 1 0 2z"></path>
  </symbol>
  <symbol viewBox="0 0 24 24" fill="none" xmlns="http://www.w3.org/2000/svg" id="room-buffet-dinner-service-food">
    <path fill-rule="evenodd" clip-rule="evenodd" d="M14 6c0 .084-.005.167-.015.248A8.003 8.003 0 0 1 20 14v1a1 1 0 0 1-1 1H5a1 1 0 0 1-1-1v-1a8.003 8.003 0 0 1 6.015-7.752A2 2 0 1 1 14 6zm4 8a6 6 0 0 0-12 0h12z" fill="#152C70"></path>
    <path d="M3 18a1 1 0 1 0 0 2h18a1 1 0 1 0 0-2H3z" fill="#4296FF"></path>
  </symbol>
  <symbol viewBox="0 0 32 32" xmlns="http://www.w3.org/2000/svg" id="ruler-pencil-stationery-measure-scale-education-school">
    <path d="M16 7h-3a1 1 0 0 1 0-2h3a1 1 0 0 1 0 2zm0 5h-3a1 1 0 0 1 0-2h3a1 1 0 0 1 0 2zm0 5h-3a1 1 0 0 1 0-2h3a1 1 0 0 1 0 2zm0 5h-3a1 1 0 0 1 0-2h3a1 1 0 0 1 0 2zm0 5h-3a1 1 0 0 1 0-2h3a1 1 0 0 1 0 2z"></path>
    <path d="M14 32H8a3 3 0 0 1-3-3v-4a1 1 0 0 1 2 0v4a1 1 0 0 0 1 1h6a1 1 0 0 0 1-1V3a1 1 0 0 0-1-1H8a1 1 0 0 0-1 1v18a1 1 0 0 1-2 0V3a3 3 0 0 1 3-3h6a3 3 0 0 1 3 3v26a3 3 0 0 1-3 3zm9 0a1 1 0 0 1-.857-.485l-3-5A1 1 0 0 1 19 26V4a4 4 0 0 1 8 0v2a1 1 0 0 1-2 0V4a2 2 0 0 0-4 0v21.723l2 3.333 2-3.333V10a1 1 0 0 1 2 0v16a1 1 0 0 1-.143.515l-3 5A1 1 0 0 1 23 32z"></path>
    <path d="M26 27h-6a1 1 0 0 1 0-2h6a1 1 0 0 1 0 2zm0-20h-6a1 1 0 0 1 0-2h6a1 1 0 0 1 0 2z"></path>
  </symbol>
  <symbol viewBox="0 0 24 24" fill="none" xmlns="http://www.w3.org/2000/svg" id="save-disk-floppy-ram">
    <path fill-rule="evenodd" clip-rule="evenodd" d="M2 7a5 5 0 0 1 5-5h8.172a3 3 0 0 1 2.12.879l3.83 3.828A3 3 0 0 1 22 8.828V17a5 5 0 0 1-5 5H7a5 5 0 0 1-5-5V7zm6-1V4h6v2H8zm8 1V4.414l3.707 3.707a1 1 0 0 1 .293.707V17a3 3 0 0 1-3 3H7a3 3 0 0 1-3-3V7c0-1.306.835-2.417 2-2.83V7a1 1 0 0 0 1 1h8a1 1 0 0 0 1-1z" fill="#152C70"></path>
    <path fill-rule="evenodd" clip-rule="evenodd" d="M12 10a4 4 0 1 0 0 8 4 4 0 0 0 0-8zm-2 4a2 2 0 1 1 4 0 2 2 0 0 1-4 0z" fill="#4296FF"></path>
  </symbol>
  <symbol viewBox="0 0 24 24" fill="none" xmlns="http://www.w3.org/2000/svg" id="scan-print-finger">
    <path fill-rule="evenodd" clip-rule="evenodd" d="M6 13a5 5 0 0 1 5-5h2a5 5 0 0 1 5 5v3H6v-3zm5-3a3 3 0 0 0-3 3v1h8v-1a3 3 0 0 0-3-3h-2z" fill="#4296FF"></path>
    <path d="M3 6a4 4 0 0 1 4-4h2a1 1 0 0 1 0 2H7a2 2 0 0 0-2 2v1a1 1 0 0 1-2 0V6zm-1 9a1 1 0 0 1 1-1h18a1 1 0 1 1 0 2v2a4 4 0 0 1-4 4h-2a1 1 0 1 1 0-2h2a2 2 0 0 0 2-2v-2H5v2a2 2 0 0 0 2 2h2a1 1 0 1 1 0 2H7a4 4 0 0 1-4-4v-2a1 1 0 0 1-1-1zM17 2a4 4 0 0 1 4 4v1a1 1 0 1 1-2 0V6a2 2 0 0 0-2-2h-2a1 1 0 1 1 0-2h2z" fill="#152C70"></path>
  </symbol>
  <symbol viewBox="0 0 32 32" xmlns="http://www.w3.org/2000/svg" id="schedule-calendar-date-time-plan-reminder-office">
    <path d="M31 9V5a3 3 0 0 0-3-3h-4V1a1 1 0 0 0-2 0v1h-5V1a1 1 0 0 0-2 0v1h-5V1a1 1 0 0 0-2 0v4a1 1 0 0 0 2 0V4h5v1a1 1 0 0 0 2 0V4h5v1a1 1 0 0 0 2 0V4h4a1 1 0 0 1 1 1v3H3V5a1 1 0 0 1 1-1h1a1 1 0 0 0 0-2H4a3 3 0 0 0-3 3v24a3 3 0 0 0 3 3h24a3 3 0 0 0 3-3V13a1 1 0 0 0-2 0v16a1 1 0 0 1-1 1H4a1 1 0 0 1-1-1V10h27a1 1 0 0 0 1-1z"></path>
    <path d="M11 15a2 2 0 0 0-2-2H7a2 2 0 0 0-2 2v2a2 2 0 0 0 2 2h2a2 2 0 0 0 2-2zm-2 2H7v-2h2zm6-4a2 2 0 0 0-2 2v2a2 2 0 0 0 2 2h2a2 2 0 0 0 2-2v-2a2 2 0 0 0-2-2zm2 4h-2v-2h2zm10-2a2 2 0 0 0-2-2h-2a2 2 0 0 0-2 2v2a2 2 0 0 0 2 2h2a2 2 0 0 0 2-2zm-2 2h-2v-2h2zM9 21H7a2 2 0 0 0-2 2v2a2 2 0 0 0 2 2h2a2 2 0 0 0 2-2v-2a2 2 0 0 0-2-2zm0 4H7v-2h2zm16-4h-2a2 2 0 0 0-2 2v2a2 2 0 0 0 2 2h2a2 2 0 0 0 2-2v-2a2 2 0 0 0-2-2zm0 4h-2v-2h2z"></path>
    <path d="M17.414 24l1.293-1.293a1 1 0 0 0-1.414-1.414L16 22.586l-1.293-1.293a1 1 0 0 0-1.414 1.414L14.586 24l-1.293 1.293a1 1 0 1 0 1.414 1.414L16 25.414l1.293 1.293a1 1 0 0 0 1.414-1.414z" fill="#77acf1"></path>
  </symbol>
  <symbol viewBox="0 0 24 24" fill="none" xmlns="http://www.w3.org/2000/svg" id="search-finder-magnifying-glass">
    <path fill-rule="evenodd" clip-rule="evenodd" d="M11 3a8 8 0 1 0 4.906 14.32l3.387 3.387a1 1 0 0 0 1.414-1.414l-3.387-3.387A8 8 0 0 0 11 3zm-6 8a6 6 0 1 1 12 0 6 6 0 0 1-12 0z" fill="#152C70"></path>
  </symbol>
  <symbol viewBox="0 0 24 24" fill="none" xmlns="http://www.w3.org/2000/svg" id="stack-apps-layers">
    <path fill-rule="evenodd" clip-rule="evenodd" d="M8.046 10.872a1 1 0 0 0-.98-1.743l-3.556 2a1 1 0 0 0 .043 1.766l2.08 1.04-2.123 1.194a1 1 0 0 0 .043 1.766l8 4a1 1 0 0 0 .894 0l8-4a1 1 0 0 0 .043-1.766l-2.123-1.194 2.08-1.04a1 1 0 0 0 .043-1.766l-3.555-2a1 1 0 1 0-.98 1.743l1.913 1.076L12 14.882l-5.868-2.934 1.914-1.076zm8.162 4.142l-3.76 1.88a1 1 0 0 1-.895 0l-3.76-1.88-1.66.934L12 18.882l5.868-2.934-1.66-.934z" fill="#4296FF"></path>
    <path fill-rule="evenodd" clip-rule="evenodd" d="M11.553 3.106a1 1 0 0 1 .894 0l8 4a1 1 0 0 1 0 1.788l-8 4a1 1 0 0 1-.894 0l-8-4a1 1 0 0 1 0-1.788l8-4zM6.236 8L12 10.882 17.764 8 12 5.118 6.236 8z" fill="#152C70"></path>
  </symbol>
  <symbol viewBox="0 0 32 32" xmlns="http://www.w3.org/2000/svg" id="stamp-label-rubber-approved-seal-check-mark">
    <path d="M19 23h-6a1 1 0 0 1-.992-.876l-.08-.643a14.462 14.462 0 0 0-3.069-7.005 9 9 0 1 1 15.015-9.837 1 1 0 1 1-1.748.97 7 7 0 1 0-11.681 7.648A16.52 16.52 0 0 1 13.881 21h4.238a15.577 15.577 0 0 1 3.332-7.612A6.908 6.908 0 0 0 23 9a1 1 0 0 1 2 0 9.015 9.015 0 0 1-1.992 5.644 13.568 13.568 0 0 0-2.935 6.832l-.081.648A1 1 0 0 1 19 23z"></path>
    <path d="M22 27H10a1 1 0 0 1-1-1v-2a3 3 0 0 1 3-3h8a3 3 0 0 1 3 3v2a1 1 0 0 1-1 1zm-11-2h10v-1a1 1 0 0 0-1-1h-8a1 1 0 0 0-1 1z" fill="#77acf1"></path>
    <path d="M29 30h-1v-2a3 3 0 0 0-3-3H7a3 3 0 0 0-3 3v2H3a1 1 0 0 0 0 2h6a1 1 0 0 0 0-2H6v-2a1 1 0 0 1 1-1h18a1 1 0 0 1 1 1v2H13a1 1 0 0 0 0 2h16a1 1 0 0 0 0-2z"></path>
  </symbol>
  <symbol viewBox="0 0 32 32" xmlns="http://www.w3.org/2000/svg" id="target-success-goal-strategy-winner-achievement-growth">
    <path d="M23 9h-7a1 1 0 0 1 0-2h6V3h-6a1 1 0 0 1 0-2h7a1 1 0 0 1 1 1v6a1 1 0 0 1-1 1z"></path>
    <path d="M29 12h-8a1 1 0 0 1-1-1V8a1 1 0 0 1 2 0v2h5.613l-.562-1.684a1 1 0 0 1 0-.632L27.613 6H23a1 1 0 0 1 0-2h6a1 1 0 0 1 .949 1.316L29.054 8l.9 2.684A1 1 0 0 1 29 12zm2 20H13a1 1 0 0 1 0-2h15.937L16 13.614 3.063 30H9a1 1 0 0 1 0 2H1a1 1 0 0 1-.785-1.62l15-19a1.037 1.037 0 0 1 1.57 0l15 19A1 1 0 0 1 31 32z"></path>
    <path d="M16 13a1 1 0 0 1-1-1V1a1 1 0 0 1 2 0v11a1 1 0 0 1-1 1zm0 7.447a10.366 10.366 0 0 1-5.334-1.479 1 1 0 1 1 1.028-1.715 8.362 8.362 0 0 0 8.612 0 1 1 0 1 1 1.028 1.715A10.366 10.366 0 0 1 16 20.447z"></path>
  </symbol>
  <symbol viewBox="0 0 32 32" xmlns="http://www.w3.org/2000/svg" id="teamwork-team-people-business-meeting-group-office">
    <path d="M25 26a5 5 0 1 1 5-5 5.006 5.006 0 0 1-5 5zm0-8a3 3 0 1 0 3 3 3 3 0 0 0-3-3z"></path>
    <path d="M22 32h-2a1 1 0 0 1-.98-.8l-1-5a1 1 0 0 1 .533-1.091l3.6-1.8a1 1 0 1 1 .894 1.789l-2.917 1.455.69 3.447H22a1 1 0 0 1 0 2zm8 0h-4a1 1 0 0 1 0-2h3.18l.69-3.447-2.917-1.453a1 1 0 1 1 .894-1.789l3.6 1.8a1 1 0 0 1 .533 1.089l-1 5a1 1 0 0 1-.98.8zM7 26a5 5 0 1 1 5-5 5.006 5.006 0 0 1-5 5zm0-8a3 3 0 1 0 3 3 3 3 0 0 0-3-3z"></path>
    <path d="M4 32H2a1 1 0 0 1-.98-.8l-1-5a1 1 0 0 1 .533-1.091l3.6-1.8a1 1 0 1 1 .894 1.791L2.13 26.553 2.82 30H4a1 1 0 0 1 0 2zm8 0H8a1 1 0 0 1 0-2h3.18l.69-3.447L8.953 25.1a1 1 0 1 1 .894-1.789l3.6 1.8a1 1 0 0 1 .533 1.089l-1 5a1 1 0 0 1-.98.8zm4.706-16h-1.412A2.3 2.3 0 0 1 13 13.706a.294.294 0 0 0-.441-.255 2.294 2.294 0 0 1-3.135-.84l-.7-1.222a2.3 2.3 0 0 1 .84-3.134.295.295 0 0 0 0-.51 2.3 2.3 0 0 1-.84-3.134l.705-1.222a2.294 2.294 0 0 1 3.135-.84.294.294 0 0 0 .436-.255A2.3 2.3 0 0 1 15.294 0h1.412A2.3 2.3 0 0 1 19 2.294a.284.284 0 0 0 .147.255.291.291 0 0 0 .294 0 2.294 2.294 0 0 1 3.135.84l.7 1.222a2.3 2.3 0 0 1-.84 3.134.295.295 0 0 0 0 .51 2.3 2.3 0 0 1 .84 3.134l-.7 1.222a2.294 2.294 0 0 1-3.135.84.288.288 0 0 0-.294 0 .284.284 0 0 0-.147.255A2.3 2.3 0 0 1 16.706 16zm-4-4.592A2.3 2.3 0 0 1 15 13.706a.294.294 0 0 0 .294.294h1.412a.294.294 0 0 0 .294-.294 2.294 2.294 0 0 1 3.441-1.987.281.281 0 0 0 .224.029.285.285 0 0 0 .178-.137l.706-1.222a.293.293 0 0 0-.108-.4 2.295 2.295 0 0 1 0-3.974.293.293 0 0 0 .108-.4l-.706-1.222a.285.285 0 0 0-.178-.137.289.289 0 0 0-.224.029A2.294 2.294 0 0 1 17 2.294.294.294 0 0 0 16.706 2h-1.412a.294.294 0 0 0-.294.294 2.294 2.294 0 0 1-3.441 1.987.289.289 0 0 0-.224-.029.285.285 0 0 0-.178.137l-.706 1.222a.293.293 0 0 0 .108.4 2.295 2.295 0 0 1 0 3.974.293.293 0 0 0-.108.4l.706 1.222a.285.285 0 0 0 .178.137.28.28 0 0 0 .224-.029 2.292 2.292 0 0 1 1.147-.307z"></path>
    <path d="M16 10a2 2 0 1 1 2-2 2 2 0 0 1-2 2zm0-2zm0 0zm0 0zm0 0zm0 0zm0 0zm0 0zm0 0z"></path>
  </symbol>
  <symbol viewBox="0 0 32 32" xmlns="http://www.w3.org/2000/svg" id="telephone-call-communication-support-dial-business-phone">
    <path d="M5 28H3a3 3 0 0 1-3-3V5a3 3 0 0 1 3-3h2a1 1 0 0 1 0 2H3a1 1 0 0 0-1 1v20a1 1 0 0 0 1 1h2a1 1 0 0 1 0 2zm24 0H13a1 1 0 0 1 0-2h16a1 1 0 0 0 1-1V5a1 1 0 0 0-1-1H13a1 1 0 0 1 0-2h16a3 3 0 0 1 3 3v20a3 3 0 0 1-3 3z"></path>
    <path d="M11 24H7a3 3 0 0 1-3-3V3a3 3 0 0 1 3-3h4a3 3 0 0 1 3 3v18a3 3 0 0 1-3 3zM7 2a1 1 0 0 0-1 1v18a1 1 0 0 0 1 1h4a1 1 0 0 0 1-1V3a1 1 0 0 0-1-1z"></path>
    <path d="M27 12H17a1 1 0 0 1-1-1V7a1 1 0 0 1 1-1h10a1 1 0 0 1 1 1v4a1 1 0 0 1-1 1zm-9-2h8V8h-8z" fill="#77acf1"></path>
    <path d="M18.02 16a1 1 0 0 1-.01-2h.01a1 1 0 0 1 0 2zm4 0a1 1 0 0 1-.01-2h.01a1 1 0 0 1 0 2zm4 0a1 1 0 0 1-.01-2h.01a1 1 0 0 1 0 2zm-8 4a1 1 0 0 1-.01-2h.01a1 1 0 0 1 0 2zm4 0a1 1 0 0 1-.01-2h.01a1 1 0 0 1 0 2zm4 0a1 1 0 0 1-.01-2h.01a1 1 0 0 1 0 2zm-8 4a1 1 0 0 1-.01-2h.01a1 1 0 0 1 0 2zm4 0a1 1 0 0 1-.01-2h.01a1 1 0 0 1 0 2zm4 0a1 1 0 0 1-.01-2h.01a1 1 0 0 1 0 2zM6.5 32A3.5 3.5 0 0 1 3 28.5V27a1 1 0 0 1 2 0v1.5a1.5 1.5 0 0 0 3 0V23a1 1 0 0 1 2 0v5.5A3.5 3.5 0 0 1 6.5 32z"></path>
  </symbol>
  <symbol viewBox="0 0 32 32" xmlns="http://www.w3.org/2000/svg" id="think-idea-work-mind-thinking-corious-person">
    <path d="M27 32H12a1 1 0 0 1-1-1v-3H9a3 3 0 0 1-3-3v-3.382L2.553 19.9a1 1 0 0 1-.385-1.45L6 12.691a12.995 12.995 0 0 1 23.551-7.277 1 1 0 1 1-1.621 1.172A11 11 0 0 0 8 13a1.006 1.006 0 0 1-.168.555L4.46 18.612l2.987 1.493A1 1 0 0 1 8 21v4a1 1 0 0 0 1 1h3a1 1 0 0 1 1 1v3h13v-2.034a18.1 18.1 0 0 1 2.445-9.316 11 11 0 0 0 1.5-6.779 10.42 10.42 0 0 0-.287-1.62 1 1 0 0 1 1.936-.5 12.656 12.656 0 0 1 .342 1.927 12.969 12.969 0 0 1-1.775 8A16.1 16.1 0 0 0 28 27.966V31a1 1 0 0 1-1 1z"></path>
    <path d="M14 28h-2a1 1 0 0 1 0-2h2a1 1 0 0 1 0 2zm6.072-9h-2.144A1.931 1.931 0 0 1 16 17.189a1.927 1.927 0 0 1-2.529-.761L12.4 14.572A1.933 1.933 0 0 1 13.007 12a1.933 1.933 0 0 1-.607-2.572l1.072-1.856A1.927 1.927 0 0 1 16 6.811 1.931 1.931 0 0 1 17.928 5h2.144A1.929 1.929 0 0 1 22 6.811a1.927 1.927 0 0 1 2.53.762l1.07 1.855A1.933 1.933 0 0 1 24.993 12a1.933 1.933 0 0 1 .606 2.571l-1.073 1.857a1.928 1.928 0 0 1-2.53.761A1.929 1.929 0 0 1 20.072 19zM18 17h2a1.929 1.929 0 0 1 2.828-1.634l1-1.733a1.928 1.928 0 0 1 0-3.266l-1-1.733A1.929 1.929 0 0 1 20 7h-2a1.929 1.929 0 0 1-2.828 1.633l-1 1.734a1.928 1.928 0 0 1 0 3.266l1 1.734A1.929 1.929 0 0 1 18 17zm4.893-1.6zm2-3.339zm-2.1-3.49z"></path>
    <path d="M19 14a2 2 0 1 1 2-2 2 2 0 0 1-2 2zm0-2z"></path>
  </symbol>
  <symbol viewBox="0 0 24 24" fill="none" xmlns="http://www.w3.org/2000/svg" id="thumbs-right-up-like">
    <path fill-rule="evenodd" clip-rule="evenodd" d="M3 9.591a1 1 0 0 1 1-1h5v12H4a1 1 0 0 1-1-1v-10zm2 1v8h2v-8H5z" fill="#4296FF"></path>
    <path fill-rule="evenodd" clip-rule="evenodd" d="M12.899 5.45a.656.656 0 0 0-1.087-.257L9.726 7.28A2.48 2.48 0 0 0 9 9.033v9.558h5.362a3 3 0 0 0 2.758-1.818l1.76-4.106a1.49 1.49 0 0 0-1.37-2.076H13a1 1 0 0 1-.97-1.242l.883-3.532a.656.656 0 0 0-.014-.367zm-2.501-1.67c1.396-1.397 3.774-.836 4.398 1.037.16.48.18.995.057 1.485l-.572 2.29h3.23a3.49 3.49 0 0 1 3.207 4.863l-1.76 4.106a5 5 0 0 1-4.596 3.03H7V9.032a4.48 4.48 0 0 1 1.312-3.167l2.086-2.086z" fill="#152C70"></path>
  </symbol>
  <symbol viewBox="0 0 32 32" xmlns="http://www.w3.org/2000/svg" id="tie-fashion-necktie-accessory-suit-elegance-clothes">
    <path d="M21.7 24.659l-2.6-10.414 1.932-2.362a1 1 0 1 0-1.548-1.266L17.526 13h-3.052l-1.95-2.383a1 1 0 1 0-1.548 1.266l1.932 2.362L10.3 24.66a3.018 3.018 0 0 0 .79 2.848l4.2 4.2a1 1 0 0 0 1.414 0l4.2-4.2a3.017 3.017 0 0 0 .796-2.849zm-2.2 1.435L16 29.586l-3.492-3.492a1.008 1.008 0 0 1-.264-.95L14.78 15h2.44l2.535 10.143a1.007 1.007 0 0 1-.263.951z" fill="#77acf1"></path>
    <path d="M25.555 2.168l-3-2A.985.985 0 0 0 22 .012V0H10v.012a.985.985 0 0 0-.555.156l-3 2a1 1 0 0 0-.393 1.148l.667 2a1 1 0 1 0 1.9-.632L8.19 3.408l1.683-1.121L14.586 7l-4.044 4.044-.572-2.287a1 1 0 0 0-1.94.486l1 4a1 1 0 0 0 .7.721A1.016 1.016 0 0 0 10 14a1 1 0 0 0 .707-.293L16 8.414l5.293 5.293A1 1 0 0 0 22 14a1.019 1.019 0 0 0 .244-.03 1 1 0 0 0 .714-.683l3-10a1 1 0 0 0-.403-1.119zM12.414 2h7.172L16 5.586zm9.109 9.109L17.414 7l4.713-4.713 1.7 1.134z" fill="#04009a"></path>
  </symbol>
  <symbol viewBox="0 0 24 24" fill="none" xmlns="http://www.w3.org/2000/svg" id="traffic-light-go-stop-ready">
    <path fill-rule="evenodd" clip-rule="evenodd" d="M6 8H5a3 3 0 0 1-3-3 1 1 0 0 1 1-1h4a4.992 4.992 0 0 1 4-2h2c1.636 0 3.088.786 4 2h4a1 1 0 0 1 1 1 3 3 0 0 1-3 3h-1v2h3a1 1 0 0 1 1 1 3 3 0 0 1-3 3h-1v2h3a1 1 0 0 1 1 1 3 3 0 0 1-3 3h-2a4.993 4.993 0 0 1-4 2h-2a4.993 4.993 0 0 1-4-2H5a3 3 0 0 1-3-3 1 1 0 0 1 1-1h3v-2H5a3 3 0 0 1-3-3 1 1 0 0 1 1-1h3V8zm2 9a3 3 0 0 0 3 3h2a3 3 0 0 0 3-3V7a3 3 0 0 0-3-3h-2a3 3 0 0 0-3 2.998V17z" fill="#152C70"></path>
    <path d="M12 9a1.5 1.5 0 1 0 0-3 1.5 1.5 0 0 0 0 3zm1.5 3a1.5 1.5 0 1 1-3 0 1.5 1.5 0 0 1 3 0zM12 18a1.5 1.5 0 1 0 0-3 1.5 1.5 0 0 0 0 3z" fill="#4296FF"></path>
  </symbol>
  <symbol xmlns="http://www.w3.org/2000/svg" viewBox="0 0 511.537 511.537" id="twitter-social-media">
    <path d="M357.038 49.172c-59.284.898-105.993 52.098-105.993 111.382v14.372C145.052 156.063 92.954 127.319 35.466 67.137c-34.133 66.47 3.593 122.161 44.912 152.702-27.846 0-51.2-3.593-69.165-19.761-1.796-.898-3.593 0-2.695 1.797 15.27 55.691 67.368 96.112 107.789 107.789-36.828 0-61.081 5.389-87.13-10.779-1.796-.898-3.593 0-2.695 1.796 19.761 54.793 59.284 71.86 116.772 71.86-28.744 21.558-67.368 43.116-140.126 44.912-2.695 0-4.491 3.593-1.796 5.389 26.947 22.456 93.418 39.523 186.835 39.523 153.6 0 278.456-136.533 278.456-305.404v-8.982c24.253-8.982 37.726-30.54 44.912-52.098 0-.898-.898-1.796-1.797-1.796l-51.2 17.965c-.898 0-1.796-1.796-.898-2.695 21.56-17.067 37.728-38.625 44.914-59.285 0 0-.898-.898-1.797-.898-24.253 9.881-47.607 19.761-65.572 25.151-2.695.898-6.288.898-8.982-.898-11.677-6.288-46.709-24.253-69.165-24.253" fill="#65bbf2"></path>
  </symbol>
  <symbol viewBox="0 0 24 24" fill="none" xmlns="http://www.w3.org/2000/svg" id="user-person-profile-block-account-circle">
    <path fill-rule="evenodd" clip-rule="evenodd" d="M12 8a1.5 1.5 0 1 0 0 3 1.5 1.5 0 0 0 0-3zM8.5 9.5a3.5 3.5 0 1 1 7 0 3.5 3.5 0 0 1-7 0zM6 18c.005.107 0 .02 0 .02v.014l.002.02a1.95 1.95 0 0 0 .02.21c.017.126.048.292.105.486.114.39.334.895.755 1.394C7.752 21.177 9.317 22 12 22c2.491 0 4.023-.709 4.93-1.647.89-.92 1.04-1.917 1.064-2.23a1.15 1.15 0 0 0-.119-.61A4.548 4.548 0 0 0 13.808 15h-3.572a4.617 4.617 0 0 0-4.13 2.553L6 18zm2.045.185v.002c.052.174.155.418.366.669.394.467 1.33 1.144 3.59 1.144 2.105 0 3.057-.588 3.492-1.038a1.88 1.88 0 0 0 .464-.782 2.547 2.547 0 0 0-2.15-1.18h-3.57a2.62 2.62 0 0 0-2.192 1.185z" fill="#4296FF"></path>
    <path fill-rule="evenodd" clip-rule="evenodd" d="M12 4a8 8 0 1 0 0 16 8 8 0 0 0 0-16zM2 12C2 6.477 6.477 2 12 2s10 4.477 10 10-4.477 10-10 10S2 17.523 2 12z" fill="#152C70"></path>
  </symbol>
  <symbol viewBox="0 0 24 24" fill="none" xmlns="http://www.w3.org/2000/svg" id="user-person-profile-check">
    <path fill-rule="evenodd" clip-rule="evenodd" d="M5 7a5 5 0 1 1 10 0A5 5 0 0 1 5 7zm5-3a3 3 0 1 0 0 6 3 3 0 0 0 0-6z" fill="#152C70"></path>
    <path d="M4.002 20c.076-2.222 1.9-4 4.14-4H9a1 1 0 1 0 0-2h-.857A6.143 6.143 0 0 0 2 20.143C2 21.169 2.831 22 3.857 22H10a1 1 0 1 0 0-2H4.002z" fill="#152C70"></path>
    <path fill-rule="evenodd" clip-rule="evenodd" d="M17 22a5 5 0 1 0 0-10 5 5 0 0 0 0 10zm.03-2.97l2.5-2.5a.75.75 0 1 0-1.06-1.06l-1.97 1.97-.47-.47a.75.75 0 1 0-1.06 1.06l1 1a.75.75 0 0 0 1.06 0z" fill="#4296FF"></path>
  </symbol>
  <symbol viewBox="0 0 24 24" fill="none" xmlns="http://www.w3.org/2000/svg" id="wallet-save">
    <path fill-rule="evenodd" clip-rule="evenodd" d="M7 2a5 5 0 0 0-5 5v10a5 5 0 0 0 5 5h10a5 5 0 0 0 5-5v-6a5.002 5.002 0 0 0-4.084-4.916A5.001 5.001 0 0 0 13 2H7zm8.83 4A3.001 3.001 0 0 0 13 4H7a3.001 3.001 0 0 0-2.83 2h11.66zM4 17V8h13a3 3 0 0 1 3 3v6a3 3 0 0 1-3 3H7a3 3 0 0 1-3-3z" fill="#152C70"></path>
    <path d="M18 14a2 2 0 1 1-4 0 2 2 0 0 1 4 0z" fill="#4296FF"></path>
  </symbol>
  <symbol viewBox="0 0 32 32" xmlns="http://www.w3.org/2000/svg" id="watch-time-clock-accesory-fashion-alarm-hour">
    <path d="M23 27H13a1 1 0 0 1 0-2h10a1 1 0 0 0 1-1V8a1 1 0 0 0-1-1 1 1 0 0 1 0-2 3 3 0 0 1 3 3v16a3 3 0 0 1-3 3zM9 27a3 3 0 0 1-3-3V8a3 3 0 0 1 3-3h10a1 1 0 0 1 0 2H9a1 1 0 0 0-1 1v16a1 1 0 0 0 1 1 1 1 0 0 1 0 2z"></path>
    <path d="M23 7a1 1 0 0 1-1-1V3a1 1 0 0 0-1-1H11a1 1 0 0 0-1 1v3a1 1 0 0 1-2 0V3a3 3 0 0 1 3-3h10a3 3 0 0 1 3 3v3a1 1 0 0 1-1 1zm-2 25H11a3 3 0 0 1-3-3v-3a1 1 0 0 1 2 0v3a1 1 0 0 0 1 1h10a1 1 0 0 0 1-1v-3a1 1 0 0 1 2 0v3a3 3 0 0 1-3 3z"></path>
    <path d="M12 21a1 1 0 0 1-.707-1.707L15 15.586V10a1 1 0 0 1 2 0v6a1 1 0 0 1-.293.707l-4 4A1 1 0 0 1 12 21z" fill="#77acf1"></path>
  </symbol>
  <symbol viewBox="0 0 32 32" xmlns="http://www.w3.org/2000/svg" id="white-business-office-presentation-work-graph">
    <path d="M17 26H3a3 3 0 0 1-3-3V5a3 3 0 0 1 3-3h9a1 1 0 0 1 0 2H3a1 1 0 0 0-1 1v18a1 1 0 0 0 1 1h14a1 1 0 0 1 0 2zm12 0h-8a1 1 0 0 1 0-2h8a1 1 0 0 0 1-1V5a1 1 0 0 0-1-1H16a1 1 0 0 1 0-2h13a3 3 0 0 1 3 3v18a3 3 0 0 1-3 3z"></path>
    <path d="M8 32a1 1 0 0 1-.894-1.447l3-6a1 1 0 1 1 1.79.894l-3 6A1 1 0 0 1 8 32zm16 0a1 1 0 0 1-.9-.553l-3-6a1 1 0 0 1 1.79-.894l3 6A1 1 0 0 1 24 32zM16 4a1 1 0 0 1-1-1V1a1 1 0 0 1 2 0v2a1 1 0 0 1-1 1zM5 19a1 1 0 0 1-.707-1.707l6-6a.982.982 0 0 1 .752-.293 1 1 0 0 1 .723.358l4.3 5.16 9.226-9.226a1 1 0 1 1 1.414 1.414l-10 10a.983.983 0 0 1-.752.292 1 1 0 0 1-.723-.358l-4.3-5.16-5.226 5.227A1 1 0 0 1 5 19z"></path>
    <path d="M27 12a1 1 0 0 1-1-1V8h-3a1 1 0 0 1 0-2h4a1 1 0 0 1 1 1v4a1 1 0 0 1-1 1z"></path>
  </symbol>
</svg>

<svg>
  <use xlink:href="#arm-sofa-single-chair"></use>
</svg><svg>
  <use xlink:href="#attachment-pin-vertical"></use>
</svg><svg>
  <use xlink:href="#bank"></use>
</svg><svg>
  <use xlink:href="#beach-umbrella-sunny"></use>
</svg><svg>
  <use xlink:href="#bell-alert-notifications"></use>
</svg><svg>
  <use xlink:href="#bluetooth"></use>
</svg><svg>
  <use xlink:href="#book-study-education-textbook-read-page-knowledge"></use>
</svg><svg>
  <use xlink:href="#bookmark"></use>
</svg><svg>
  <use xlink:href="#briefcase-bag-suitcase-case-business-office-work"></use>
</svg><svg>
  <use xlink:href="#bullhorn-marketing-affiliate-broadcast"></use>
</svg><svg>
  <use xlink:href="#cabinet-interior-drawer-furniture-table-office-decoration"></use>
</svg><svg>
  <use xlink:href="#cactus-nature-plant-decoration-succulent-flower-summer"></use>
</svg><svg>
  <use xlink:href="#calculator-math-calculate-accounting-finance-count-office"></use>
</svg><svg>
  <use xlink:href="#calendar-year-month-date-schedule-page-plan"></use>
</svg><svg>
  <use xlink:href="#camera-photo"></use>
</svg><svg>
  <use xlink:href="#card-credit-debit-virtual"></use>
</svg><svg>
  <use xlink:href="#cart-shop-sell-buy"></use>
</svg><svg>
  <use xlink:href="#chair-office-business-furniture-seat-work-sit"></use>
</svg><svg>
  <use xlink:href="#champayne-glass"></use>
</svg><svg>
  <use xlink:href="#change-switch-employee-business-office-work-management"></use>
</svg><svg>
  <use xlink:href="#chat-message-text-sms-comment-1"></use>
</svg><svg>
  <use xlink:href="#chat-message-text-sms-comment"></use>
</svg><svg>
  <use xlink:href="#chevron-down-arrow"></use>
</svg><svg>
  <use xlink:href="#chevron-left-arrow"></use>
</svg><svg>
  <use xlink:href="#chevron-right-arrow"></use>
</svg><svg>
  <use xlink:href="#chevron-up-arrow"></use>
</svg><svg>
  <use xlink:href="#clipboard-note-document-report-paper-list-data"></use>
</svg><svg>
  <use xlink:href="#clock-time-watch-hour-deadline-timer-dial"></use>
</svg><svg>
  <use xlink:href="#clock-time"></use>
</svg><svg>
  <use xlink:href="#coffee-machine-drink-hot-maker-cup-cafe"></use>
</svg><svg>
  <use xlink:href="#coffee-mug-cup"></use>
</svg><svg>
  <use xlink:href="#cog-wheel-settings"></use>
</svg><svg>
  <use xlink:href="#document-file-archive-data-work-paper-office-2"></use>
</svg><svg>
  <use xlink:href="#document-file-archive-data-work-paper-office"></use>
</svg><svg>
  <use xlink:href="#dog-shirt"></use>
</svg><svg>
  <use xlink:href="#edit-pen-write-1"></use>
</svg><svg>
  <use xlink:href="#edit-pen-write"></use>
</svg><svg>
  <use xlink:href="#email-mail-message-letter-contact-envelope-information"></use>
</svg><svg>
  <use xlink:href="#emoji-face-straight-satisfactory"></use>
</svg><svg>
  <use xlink:href="#envelop-mail-closed"></use>
</svg><svg>
  <use xlink:href="#event-calender-date-note"></use>
</svg><svg>
  <use xlink:href="#eye-view-reveal-show"></use>
</svg><svg>
  <use xlink:href="#facebook-social-media"></use>
</svg><svg>
  <use xlink:href="#file-document-paper-data-archive-office-work"></use>
</svg><svg>
  <use xlink:href="#first-aid-box-red-cross"></use>
</svg><svg>
  <use xlink:href="#flashdisk-flashdrive-usb-drive-memory-save-hardware"></use>
</svg><svg>
  <use xlink:href="#floppydisk-diskette-disk-save-file-office-memory"></use>
</svg><svg>
  <use xlink:href="#gift-reward-surprise"></use>
</svg><svg>
  <use xlink:href="#google-play-social-media"></use>
</svg><svg>
  <use xlink:href="#graph-chart-data-analytics-statistic-report-analysis"></use>
</svg><svg>
  <use xlink:href="#heart-break-love-like"></use>
</svg><svg>
  <use xlink:href="#heart-love-like-favorite"></use>
</svg><svg>
  <use xlink:href="#house-home-hut"></use>
</svg><svg>
  <use xlink:href="#id-card-identity-name-identification-information-office"></use>
</svg><svg>
  <use xlink:href="#image-landscape-png"></use>
</svg><svg>
  <use xlink:href="#inbox"></use>
</svg><svg>
  <use xlink:href="#job-employment-business-recuitment-seeker-applicant-work-2"></use>
</svg><svg>
  <use xlink:href="#job-employment-business-recuitment-seeker-applicant-work"></use>
</svg><svg>
  <use xlink:href="#job-employment-find-recuitment-seeker-applicant-work"></use>
</svg><svg>
  <use xlink:href="#job-work-chart-data-analysis-statistic-report"></use>
</svg><svg>
  <use xlink:href="#keyboard-keypad-hardware-computer-input-typing-device"></use>
</svg><svg>
  <use xlink:href="#laptop-mac-book-note"></use>
</svg><svg>
  <use xlink:href="#laptop-notebook-technology-business-office-work-computer"></use>
</svg><svg>
  <use xlink:href="#layout-wireframe"></use>
</svg><svg>
  <use xlink:href="#linkedin-social-media"></use>
</svg><svg>
  <use xlink:href="#location-pin-map"></use>
</svg><svg>
  <use xlink:href="#lock-security-open"></use>
</svg><svg>
  <use xlink:href="#mic-sound-record-voice"></use>
</svg><svg>
  <use xlink:href="#monitor-desktop-screen-computer-device-business-display"></use>
</svg><svg>
  <use xlink:href="#office-work-business-workplace-corporate-employee-job"></use>
</svg><svg>
  <use xlink:href="#printer-print-machine-office-business-document"></use>
</svg><svg>
  <use xlink:href="#printer-print-photocopy-duplicate-scan"></use>
</svg><svg>
  <use xlink:href="#projector-entertaintment-movie-cinema-presentation-show-screen"></use>
</svg><svg>
  <use xlink:href="#projector-screen-presentation-office-conference-visual-display"></use>
</svg><svg>
  <use xlink:href="#room-buffet-dinner-service-food"></use>
</svg><svg>
  <use xlink:href="#ruler-pencil-stationery-measure-scale-education-school"></use>
</svg><svg>
  <use xlink:href="#save-disk-floppy-ram"></use>
</svg><svg>
  <use xlink:href="#scan-print-finger"></use>
</svg><svg>
  <use xlink:href="#schedule-calendar-date-time-plan-reminder-office"></use>
</svg><svg>
  <use xlink:href="#search-finder-magnifying-glass"></use>
</svg><svg>
  <use xlink:href="#stack-apps-layers"></use>
</svg><svg>
  <use xlink:href="#stamp-label-rubber-approved-seal-check-mark"></use>
</svg><svg>
  <use xlink:href="#target-success-goal-strategy-winner-achievement-growth"></use>
</svg><svg>
  <use xlink:href="#teamwork-team-people-business-meeting-group-office"></use>
</svg><svg>
  <use xlink:href="#telephone-call-communication-support-dial-business-phone"></use>
</svg><svg>
  <use xlink:href="#think-idea-work-mind-thinking-corious-person"></use>
</svg><svg>
  <use xlink:href="#thumbs-right-up-like"></use>
</svg><svg>
  <use xlink:href="#tie-fashion-necktie-accessory-suit-elegance-clothes"></use>
</svg><svg>
  <use xlink:href="#traffic-light-go-stop-ready"></use>
</svg><svg>
  <use xlink:href="#twitter-social-media"></use>
</svg><svg>
  <use xlink:href="#user-person-profile-block-account-circle"></use>
</svg><svg>
  <use xlink:href="#user-person-profile-check"></use>
</svg><svg>
  <use xlink:href="#wallet-save"></use>
</svg><svg>
  <use xlink:href="#watch-time-clock-accesory-fashion-alarm-hour"></use>
</svg><svg>
  <use xlink:href="#white-business-office-presentation-work-graph"></use>
</svg>
