<svg width="24px" height="24px" viewBox="0 0 24 24" fill="none" xmlns="http://www.w3.org/2000/svg">
<path d="M14.8528 4.36438C12.9583 4.12756 11.0416 4.12756 9.14716 4.36438L8.60326 4.43236C6.81715 4.65563 5.62837 6.39054 6.06493 8.1368L7.21263 12.7276L5.27235 13.2127L4.12465 8.62188C3.39704 5.71144 5.37835 2.81991 8.35519 2.44781L8.89909 2.37982C10.9583 2.12242 13.0416 2.12242 15.1008 2.37982L15.6447 2.44781C18.6216 2.81991 20.6029 5.71144 19.8753 8.62188L18.7276 13.2127L16.7873 12.7276L17.935 8.1368C18.3715 6.39054 17.1828 4.65563 15.3967 4.43236L14.8528 4.36438Z" fill="#152C70"/>
<path d="M7.44743 18.1055C7.94141 18.3525 8.14164 18.9532 7.89465 19.4472L6.89465 21.4472C6.64766 21.9412 6.04698 22.1414 5.55301 21.8944C5.05903 21.6474 4.8588 21.0467 5.10579 20.5528L6.10579 18.5528C6.35278 18.0588 6.95345 17.8586 7.44743 18.1055Z" fill="#152C70"/>
<path d="M16.1054 19.4472C15.8584 18.9532 16.0586 18.3525 16.5526 18.1055C17.0465 17.8586 17.6472 18.0588 17.8942 18.5528L18.8942 20.5528C19.1412 21.0467 18.941 21.6474 18.447 21.8944C17.953 22.1414 17.3523 21.9412 17.1054 21.4472L16.1054 19.4472Z" fill="#152C70"/>
<path fill-rule="evenodd" clip-rule="evenodd" d="M2.20313 14.3897C1.47733 12.4542 3.50095 10.6324 5.34981 11.5569L6.44721 12.1056C9.94277 13.8534 14.0572 13.8534 17.5528 12.1056L18.6502 11.5569C20.499 10.6324 22.5227 12.4542 21.7969 14.3897C20.5314 17.7643 17.3053 20 13.7012 20H10.2988C6.69468 20 3.46862 17.7643 2.20313 14.3897ZM4.45538 13.3457C4.23235 13.2342 3.98823 13.454 4.07579 13.6875C5.04855 16.2815 7.52837 18 10.2988 18H13.7012C16.4716 18 18.9514 16.2815 19.9242 13.6875C20.0118 13.454 19.7676 13.2342 19.5446 13.3457L18.4472 13.8944C14.3886 15.9237 9.61139 15.9237 5.55278 13.8944L4.45538 13.3457Z" fill="#4296FF"/>
</svg>
