<svg width="24px" height="24px" viewBox="0 0 24 24" fill="none" xmlns="http://www.w3.org/2000/svg">
<path fill-rule="evenodd" clip-rule="evenodd" d="M19.4999 5.15777C14.9112 2.28986 9.08879 2.28986 4.50014 5.15777C3.56692 5.74103 3 6.7639 3 7.86439V9.6496C3 10.2019 3.44772 10.6496 4 10.6496H7V16.6494C7 17.2017 7.44772 17.6494 8 17.6494C8.55228 17.6494 9 17.2017 9 16.6494V10.6496H11V16.6494C11 17.2017 11.4477 17.6494 12 17.6494C12.5523 17.6494 13 17.2017 13 16.6494V10.6496H15V16.6494C15 17.2017 15.4477 17.6494 16 17.6494C16.5523 17.6494 17 17.2017 17 16.6494V10.6496H20C20.5523 10.6496 21 10.2019 21 9.6496V7.86439C21 6.7639 20.4331 5.74103 19.4999 5.15777ZM5.56014 6.85376C9.50025 4.39119 14.4997 4.39119 18.4399 6.85376C18.7883 7.07155 19 7.45348 19 7.86439V8.6496H5V7.86439C5 7.45348 5.21168 7.07155 5.56014 6.85376Z" fill="#152C70"/>
<path d="M4 15.6494C3.44772 15.6494 3 16.0971 3 16.6494C3 17.2017 3.44772 17.6494 4 17.6494H20C20.5523 17.6494 21 17.2017 21 16.6494C21 16.0971 20.5523 15.6494 20 15.6494H4Z" fill="#4296FF"/>
<path d="M5 19.6494C4.44772 19.6494 4 20.0971 4 20.6494C4 21.2017 4.44772 21.6494 5 21.6494H19C19.5523 21.6494 20 21.2017 20 20.6494C20 20.0971 19.5523 19.6494 19 19.6494H5Z" fill="#4296FF"/>
</svg>
