<svg width="24px" height="24px" viewBox="0 0 24 24" fill="none" xmlns="http://www.w3.org/2000/svg">
<path fill-rule="evenodd" clip-rule="evenodd" d="M11.4853 2C6.32455 2 2 5.69381 2 11.0071C2 13.466 2.96267 16.3769 4.77817 18.1924L5.29289 18.7071C5.68342 19.0976 6.31658 19.0976 6.70711 18.7071L18.7071 6.70711C19.0976 6.31658 19.0976 5.68342 18.7071 5.29289L18.1924 4.77818C16.4136 2.99934 14.0009 2 11.4853 2ZM7.4076 5.06202C8.57222 4.38263 9.96785 4 11.4853 4C13.3796 4 15.1999 4.71808 16.5823 6.00349L14.8892 7.69655C12.6538 6.20283 10.08 5.29801 7.4076 5.06202ZM5.05357 7.30837C4.38225 8.36266 4 9.62001 4 11.0071C4 12.9541 4.75022 15.1918 6.00495 16.5808L7.69655 14.8892C6.18435 12.6262 5.27572 10.0163 5.05357 7.30837ZM9.14256 13.4432L13.4432 9.14256C11.5123 7.93042 9.31338 7.20775 7.03856 7.03856C7.20775 9.31338 7.93042 11.5123 9.14256 13.4432Z" fill="#152C70"/>
<path d="M14.2929 14.2929C14.6834 13.9024 15.3166 13.9024 15.7071 14.2929L21.7071 20.2929C22.0976 20.6834 22.0976 21.3166 21.7071 21.7071C21.3166 22.0976 20.6834 22.0976 20.2929 21.7071L14.2929 15.7071C13.9024 15.3166 13.9024 14.6834 14.2929 14.2929Z" fill="#4296FF"/>
</svg>
