<svg width="24px" height="24px" viewBox="0 0 24 24" fill="none" xmlns="http://www.w3.org/2000/svg">
<path fill-rule="evenodd" clip-rule="evenodd" d="M10 18C10 19.1046 10.8954 20 12 20C13.1046 20 14 19.1046 14 18H10ZM8 17.2222C8 16.5472 8.54721 16 9.22222 16H14.7778C15.4528 16 16 16.5472 16 17.2222V18C16 20.2091 14.2091 22 12 22C9.79086 22 8 20.2091 8 18V17.2222Z" fill="#4296FF"/>
<path fill-rule="evenodd" clip-rule="evenodd" d="M9.81066 2.60573C11.2395 2.18237 12.7604 2.18237 14.1893 2.60573C16.987 3.43468 18.9062 6.00505 18.9062 8.92297V10.9613C18.9062 11.9275 19.0976 12.8842 19.4692 13.7761L19.5506 13.9715C19.8926 14.7924 19.8833 16.0699 18.7548 16.7218C17.6787 17.3434 15.6768 18 12 18C8.83442 18 6.91236 17.5135 5.75252 16.9825C5.04065 16.6566 4.61088 16.0645 4.45055 15.4024C4.29705 14.7685 4.39386 14.1047 4.63261 13.5317L4.81292 13.099C4.99829 12.6541 5.09373 12.1769 5.09373 11.6949V8.92297C5.09373 6.00505 7.01297 3.43468 9.81066 2.60573ZM13.6211 4.52332C12.5631 4.20984 11.4369 4.20984 10.3788 4.52332C8.43038 5.10065 7.09373 6.89079 7.09373 8.92297V11.6949C7.09373 12.4409 6.946 13.1796 6.65907 13.8682L6.47876 14.3009C6.36891 14.5646 6.36021 14.7906 6.39437 14.9317C6.4217 15.0446 6.47278 15.1126 6.58502 15.164C7.40883 15.5411 9.02619 16 12 16C15.4472 16 17.0694 15.3836 17.748 14.9937C17.7551 14.9587 17.7573 14.8677 17.7044 14.7407L17.623 14.5454C17.1498 13.4097 16.9062 12.1916 16.9062 10.9613V8.92297C16.9062 6.89079 15.5696 5.10065 13.6211 4.52332Z" fill="#152C70"/>
</svg>
