<svg width="24px" height="24px" viewBox="0 0 24 24" fill="none" xmlns="http://www.w3.org/2000/svg">
<path fill-rule="evenodd" clip-rule="evenodd" d="M11.5668 2.09871C11.9133 1.93219 12.3245 1.979 12.6247 2.21914L17.6247 6.21914C17.8468 6.39683 17.9827 6.6607 17.9985 6.94471C18.0142 7.22872 17.9082 7.50598 17.7071 7.70712L13.4142 12L17.7071 16.2929C17.9082 16.494 18.0142 16.7713 17.9985 17.0553C17.9827 17.3393 17.8468 17.6032 17.6247 17.7809L12.6247 21.7809C12.3245 22.021 11.9133 22.0678 11.5668 21.9013C11.2203 21.7348 11 21.3844 11 21V14.4142L6.70711 18.7071C6.31658 19.0976 5.68342 19.0976 5.29289 18.7071C4.90237 18.3166 4.90237 17.6834 5.29289 17.2929L10.5858 12L5.29289 6.70712C4.90237 6.31659 4.90237 5.68343 5.29289 5.2929C5.68342 4.90238 6.31658 4.90238 6.70711 5.2929L11 9.5858V3.00001C11 2.6156 11.2203 2.26523 11.5668 2.09871ZM13 14.4142L15.5029 16.9171L13 18.9194V14.4142ZM13 9.5858V5.08063L15.5029 7.08293L13 9.5858Z" fill="#152C70"/>
</svg>
