<?xml version="1.0" ?><svg width="32px" height="32px" viewBox="0 0 32 32" xmlns="http://www.w3.org/2000/svg"><defs><style>.cls-1{fill:#04009a;}.cls-2{fill:#77acf1;}</style></defs><g data-name="31. Book" id="_31._Book"><path class="cls-1" d="M4,29a1,1,0,0,1-1-1V4A4,4,0,0,1,7,0H26a3,3,0,0,1,3,3V21a1,1,0,0,1-2,0V3a1,1,0,0,0-1-1H7A2,2,0,0,0,5,4V28A1,1,0,0,1,4,29Z"/><path class="cls-1" d="M28,32H15a1,1,0,0,1,0-2H27V26H7a2,2,0,0,0,0,4h4a1,1,0,0,1,0,2H7a4,4,0,0,1,0-8H28a1,1,0,0,1,1,1v6A1,1,0,0,1,28,32Z"/><path class="cls-2" d="M24,12H10a1,1,0,0,1-1-1V5a1,1,0,0,1,1-1H24a1,1,0,0,1,1,1v6A1,1,0,0,1,24,12ZM11,10H23V6H11Z"/><path class="cls-1" d="M24,16H10a1,1,0,0,1,0-2H24a1,1,0,0,1,0,2Z"/><path class="cls-1" d="M22,20H12a1,1,0,0,1,0-2H22a1,1,0,0,1,0,2Z"/></g></svg>