<svg width="24px" height="24px" viewBox="0 0 24 24" fill="none" xmlns="http://www.w3.org/2000/svg">
<path fill-rule="evenodd" clip-rule="evenodd" d="M4 3C4 2.44772 4.44772 2 5 2H19C19.5523 2 20 2.44772 20 3V21C20 21.3565 19.8102 21.686 19.5019 21.8649C19.1936 22.0438 18.8134 22.0451 18.5039 21.8682L13.4884 19.0023C12.5661 18.4752 11.4339 18.4752 10.5116 19.0023L5.49614 21.8682C5.18664 22.0451 4.80639 22.0438 4.49807 21.8649C4.18976 21.686 4 21.3565 4 21V3ZM6 4V19.2768L9.51931 17.2658C11.0565 16.3874 12.9435 16.3874 14.4807 17.2658L18 19.2768V4H6Z" fill="#152C70"/>
</svg>
