<svg width="24px" height="24px" viewBox="0 0 24 24" fill="none" xmlns="http://www.w3.org/2000/svg">
<path fill-rule="evenodd" clip-rule="evenodd" d="M7.97031 14.2426L7.32176 16.8368C7.2135 17.2699 7.38916 17.7242 7.76057 17.9719C8.26235 18.3064 8.9419 18.1536 9.25218 17.6364L11.1427 14.4856L12.8577 15.5146L10.9672 18.6654C10.0694 20.1617 8.10309 20.6039 6.65117 19.636C5.57649 18.9195 5.06822 17.6048 5.38148 16.3518L6.03003 13.7576L7.97031 14.2426Z" fill="#4296FF"/>
<path fill-rule="evenodd" clip-rule="evenodd" d="M15.8482 4.23268C17.194 3.33551 19.0181 3.76613 19.8206 5.17042C21.8847 8.78272 21.8847 13.2173 19.8206 16.8296C19.0181 18.2339 17.194 18.6645 15.8482 17.7673L14.9588 17.1744C12.8321 15.7566 10.3333 15 7.77725 15H6C3.79086 15 2 13.2091 2 11C2 8.79086 3.79086 7 6 7H7.77725C10.3333 7 12.8321 6.24342 14.9588 4.82559L15.8482 4.23268ZM18.0841 6.1627C17.8565 5.76447 17.3392 5.64236 16.9576 5.89678L16.0682 6.48969C13.613 8.12654 10.7281 9 7.77725 9H6C4.89543 9 4 9.89543 4 11C4 12.1046 4.89543 13 6 13H7.77725C10.7281 13 13.613 13.8735 16.0682 15.5103L16.9576 16.1032C17.3392 16.3576 17.8565 16.2355 18.0841 15.8373C19.7969 12.8399 19.7969 9.16013 18.0841 6.1627Z" fill="#152C70"/>
</svg>
