<?xml version="1.0" ?><svg width="32px" height="32px" viewBox="0 0 32 32" xmlns="http://www.w3.org/2000/svg"><defs><style>.cls-1{fill:#04009a;}.cls-2{fill:#77acf1;}</style></defs><g data-name="11. Cabinet" id="_11._Cabinet"><path class="cls-1" d="M29,7a1,1,0,0,0,1-1V3a3,3,0,0,0-3-3H5A3,3,0,0,0,2,3V26a3,3,0,0,0,3,3v2a1,1,0,0,0,2,0V28a1,1,0,0,0-1-1H5a1,1,0,0,1-1-1V20H28v6a1,1,0,0,1-1,1H10a1,1,0,0,0,0,2H25v2a1,1,0,0,0,2,0V29a3,3,0,0,0,3-3V10a1,1,0,0,0-1-1H4V3A1,1,0,0,1,5,2H27a1,1,0,0,1,1,1V6A1,1,0,0,0,29,7Zm-1,4v7H4V11Z"/><path class="cls-2" d="M19,25H13a1,1,0,0,1,0-2h6a1,1,0,0,1,0,2Z"/><path class="cls-2" d="M19,16H13a1,1,0,0,1,0-2h6a1,1,0,0,1,0,2Z"/><path class="cls-2" d="M19,7H13a1,1,0,0,1,0-2h6a1,1,0,0,1,0,2Z"/></g></svg>