<?xml version="1.0" ?><svg width="32px" height="32px" viewBox="0 0 32 32" xmlns="http://www.w3.org/2000/svg"><defs><style>.cls-1{fill:#77acf1;}.cls-2{fill:#04009a;}</style></defs><g data-name="6. Cactus" id="_6._Cactus"><path class="cls-1" d="M16,4a1,1,0,0,1-1-1V1a1,1,0,0,1,2,0V3A1,1,0,0,1,16,4Z"/><path class="cls-1" d="M11,6a1,1,0,0,1-.707-.293l-1-1a1,1,0,0,1,1.414-1.414l1,1A1,1,0,0,1,11,6Z"/><path class="cls-1" d="M10,10H8A1,1,0,0,1,8,8h2a1,1,0,0,1,0,2Z"/><path class="cls-1" d="M9,16a1,1,0,0,1-.45-1.894l1.95-.98a1,1,0,1,1,.9,1.788l-1.95.98A1,1,0,0,1,9,16Z"/><path class="cls-1" d="M23,16a1,1,0,0,1-.448-.106l-1.95-.98a1,1,0,0,1,.9-1.788l1.95.98A1,1,0,0,1,23,16Z"/><path class="cls-1" d="M23,3a1,1,0,0,1-1-1V1a1,1,0,0,1,2,0V2A1,1,0,0,1,23,3Z"/><path class="cls-1" d="M25.5,4.574a1,1,0,0,1-.541-1.842l1.322-.848a1,1,0,1,1,1.08,1.684l-1.322.848A1,1,0,0,1,25.5,4.574Z"/><path class="cls-1" d="M26.287,9.172a1,1,0,0,1-.723-.308L24.448,7.7a1,1,0,0,1,1.445-1.384L27.009,7.48a1,1,0,0,1-.722,1.692Z"/><path class="cls-1" d="M16,10a1,1,0,0,1-1-1V8a1,1,0,0,1,2,0V9A1,1,0,0,1,16,10Z"/><path class="cls-1" d="M16,15a1,1,0,0,1-1-1V13a1,1,0,0,1,2,0v1A1,1,0,0,1,16,15Z"/><path class="cls-2" d="M25.537,8.117a4,4,0,0,0-5.655-5.654,5.737,5.737,0,0,0-.4.471A6.989,6.989,0,0,0,9,9a23.714,23.714,0,0,0,2.476,9H8a1,1,0,0,0-1,1v4a1,1,0,0,0,1,1h.117l.672,5.372A3,3,0,0,0,11.766,32h8.468a3,3,0,0,0,2.977-2.628l.281-2.248a1,1,0,0,0-1.984-.248l-.281,2.248a1,1,0,0,1-.993.876H11.766a1,1,0,0,1-.993-.876L10.133,24H24a1,1,0,0,0,1-1V19a1,1,0,0,0-1-1H20.524a24.925,24.925,0,0,0,2.442-8.295A7.894,7.894,0,0,0,25.537,8.117Zm-1.414-4.24a2,2,0,0,1-.006,2.832,5.309,5.309,0,0,1-1.266.855,6.989,6.989,0,0,0-1.8-3.4,3.7,3.7,0,0,1,.245-.29A2,2,0,0,1,24.123,3.877ZM23,22H9V20H23Zm-4.765-4h-4.47A21.775,21.775,0,0,1,11,9,5,5,0,0,1,21,9,21.775,21.775,0,0,1,18.235,18Z"/></g></svg>