<?xml version="1.0" ?><svg width="32px" height="32px" viewBox="0 0 32 32" xmlns="http://www.w3.org/2000/svg"><defs><style>.cls-1{fill:#04009a;}.cls-2{fill:#77acf1;}</style></defs><g data-name="4. Calculator" id="_4._Calculator"><path class="cls-1" d="M27,22a1,1,0,0,0-1,1v6a1,1,0,0,1-1,1H7a1,1,0,0,1-1-1V9A1,1,0,0,0,4,9V29a3,3,0,0,0,3,3H25a3,3,0,0,0,3-3V23A1,1,0,0,0,27,22Z"/><path class="cls-1" d="M25,0H7A3,3,0,0,0,4,3V5A1,1,0,0,0,6,5V3A1,1,0,0,1,7,2H25a1,1,0,0,1,1,1V19a1,1,0,0,0,2,0V3A3,3,0,0,0,25,0Z"/><path class="cls-1" d="M24,5a1,1,0,0,0-1-1H9A1,1,0,0,0,8,5v6a1,1,0,0,0,1,1H23a1,1,0,0,0,1-1Zm-2,5H10V6H22Z"/><path class="cls-1" d="M9,16h2a1,1,0,0,0,0-2H9a1,1,0,0,0,0,2Z"/><path class="cls-1" d="M17,14H15a1,1,0,0,0,0,2h2a1,1,0,0,0,0-2Z"/><path class="cls-1" d="M23,14H21a1,1,0,0,0,0,2h2a1,1,0,0,0,0-2Z"/><path class="cls-1" d="M9,20h2a1,1,0,0,0,0-2H9a1,1,0,0,0,0,2Z"/><path class="cls-1" d="M17,18H15a1,1,0,0,0,0,2h2a1,1,0,0,0,0-2Z"/><path class="cls-1" d="M23,18H21a1,1,0,0,0,0,2h2a1,1,0,0,0,0-2Z"/><path class="cls-1" d="M9,24h2a1,1,0,0,0,0-2H9a1,1,0,0,0,0,2Z"/><path class="cls-1" d="M17,22H15a1,1,0,0,0,0,2h2a1,1,0,0,0,0-2Z"/><path class="cls-1" d="M9,28h2a1,1,0,0,0,0-2H9a1,1,0,0,0,0,2Z"/><path class="cls-1" d="M17,26H15a1,1,0,0,0,0,2h2a1,1,0,0,0,0-2Z"/><rect class="cls-2" height="6" rx="1" width="4" x="20" y="22"/></g></svg>