<?xml version="1.0" ?><svg width="32px" height="32px" viewBox="0 0 32 32" xmlns="http://www.w3.org/2000/svg"><defs><style>.cls-1{fill:#04009a;}.cls-2{fill:#77acf1;}</style></defs><g data-name="40. Calendar" id="_40._Calendar"><path class="cls-1" d="M30,10H2A2,2,0,0,1,0,8V4A2,2,0,0,1,2,2H7A1,1,0,0,1,7,4H2V8H30V4H11a1,1,0,0,1,0-2H30a2,2,0,0,1,2,2V8A2,2,0,0,1,30,10Z"/><path class="cls-1" d="M28,32H4a3,3,0,0,1-3-3V9A1,1,0,0,1,2,8H30a1,1,0,0,1,0,2H3V29a1,1,0,0,0,1,1H28a1,1,0,0,0,1-1V13a1,1,0,0,1,2,0V29A3,3,0,0,1,28,32Z"/><path class="cls-2" d="M22,22H10a2,2,0,0,1-2-2V17a1,1,0,0,1,1-1H23a1,1,0,0,1,1,1v3A2,2,0,0,1,22,22ZM10,18v2H22V18Z"/><path class="cls-2" d="M20,28H12a3,3,0,0,1-3-3V21a1,1,0,0,1,1-1H22a1,1,0,0,1,1,1v4A3,3,0,0,1,20,28Zm-9-6v3a1,1,0,0,0,1,1h8a1,1,0,0,0,1-1V22Z"/><path class="cls-2" d="M20,18H12a1,1,0,0,1-1-1V15a3,3,0,0,1,3-3h4a3,3,0,0,1,3,3v2A1,1,0,0,1,20,18Zm-7-2h6V15a1,1,0,0,0-1-1H14a1,1,0,0,0-1,1Z"/><path class="cls-1" d="M7,6H7A1,1,0,0,1,6,5V1A1,1,0,0,1,7,0H7A1,1,0,0,1,8,1V5A1,1,0,0,1,7,6Z"/><path class="cls-1" d="M16,6h0a1,1,0,0,1-1-1V1a1,1,0,0,1,1-1h0a1,1,0,0,1,1,1V5A1,1,0,0,1,16,6Z"/><path class="cls-1" d="M25,6h0a1,1,0,0,1-1-1V1a1,1,0,0,1,1-1h0a1,1,0,0,1,1,1V5A1,1,0,0,1,25,6Z"/></g></svg>