<svg width="24px" height="24px" viewBox="0 0 24 24" fill="none" xmlns="http://www.w3.org/2000/svg">
<path fill-rule="evenodd" clip-rule="evenodd" d="M10 3C8.89543 3 8 3.89543 8 5H7C4.23858 5 2 7.23858 2 10V16C2 18.7614 4.23858 21 7 21H17C19.7614 21 22 18.7614 22 16V10C22 7.23858 19.7614 5 17 5H16C16 3.89543 15.1046 3 14 3H10ZM7 7C5.34315 7 4 8.34315 4 10V16C4 17.6569 5.34315 19 7 19H17C18.6569 19 20 17.6569 20 16V10C20 8.34315 18.6569 7 17 7H7Z" fill="#152C70"/>
<path fill-rule="evenodd" clip-rule="evenodd" d="M8 13C8 10.7909 9.79086 9 12 9C14.2091 9 16 10.7909 16 13C16 15.2091 14.2091 17 12 17C9.79086 17 8 15.2091 8 13ZM12 11C10.8954 11 10 11.8954 10 13C10 14.1046 10.8954 15 12 15C13.1046 15 14 14.1046 14 13C14 11.8954 13.1046 11 12 11Z" fill="#4296FF"/>
</svg>
