<svg width="24px" height="24px" viewBox="0 0 24 24" fill="none" xmlns="http://www.w3.org/2000/svg">
<path fill-rule="evenodd" clip-rule="evenodd" d="M4 3C3.44772 3 3 3.44772 3 4C3 4.55228 3.44772 5 4 5H5C5.50065 5 5.91537 5.36792 5.98854 5.84813L6.26745 10.3118C6.43211 12.947 8.61737 15 11.2577 15H16C18.7614 15 21 12.7614 21 10C21 7.23858 18.7614 5 16 5H7.82929C7.41746 3.83481 6.30622 3 5 3H4ZM8.26356 10.1871L8.06442 7H16C17.6568 7 19 8.34315 19 10C19 11.6569 17.6568 13 16 13H11.2577C9.67351 13 8.36235 11.7682 8.26356 10.1871Z" fill="#152C70"/>
<path d="M12 19C12 20.1046 11.1046 21 10 21C8.89543 21 8 20.1046 8 19C8 17.8954 8.89543 17 10 17C11.1046 17 12 17.8954 12 19Z" fill="#4296FF"/>
<path d="M16 21C17.1046 21 18 20.1046 18 19C18 17.8954 17.1046 17 16 17C14.8954 17 14 17.8954 14 19C14 20.1046 14.8954 21 16 21Z" fill="#4296FF"/>
</svg>
