<?xml version="1.0" ?><svg width="32px" height="32px" viewBox="0 0 32 32" xmlns="http://www.w3.org/2000/svg"><defs><style>.cls-1{fill:#77acf1;}.cls-2{fill:#04009a;}</style></defs><g data-name="20. Office Chair" id="_20._Office_Chair"><path class="cls-1" d="M8,26H5.472a2.7,2.7,0,0,1-2.684-2.3L1.315,14.129A2.717,2.717,0,0,1,4,11a1,1,0,0,1,0,2,.717.717,0,0,0-.708.825l1.473,9.568A.711.711,0,0,0,5.472,24H8a1,1,0,0,1,0,2Z"/><path class="cls-1" d="M26.528,26H24a1,1,0,0,1,0-2h2.528a.711.711,0,0,0,.707-.607l1.473-9.569A.717.717,0,0,0,28,13a1,1,0,0,1,0-2,2.716,2.716,0,0,1,2.685,3.128L29.212,23.7A2.7,2.7,0,0,1,26.528,26Z"/><path class="cls-2" d="M21.734,18H10.266a3,3,0,0,1-2.977-3.372l1.5-12A3,3,0,0,1,11.766,0h8.468a3,3,0,0,1,2.977,2.628l.281,2.248a1,1,0,1,1-1.984.248l-.281-2.248A1,1,0,0,0,20.234,2H11.766a1,1,0,0,0-.993.876l-1.5,12A1,1,0,0,0,10.266,16H21.734a1,1,0,0,0,.993-1.124l-.719-5.752a1,1,0,0,1,1.984-.248l.719,5.752A3,3,0,0,1,21.734,18Z"/><path class="cls-2" d="M24,26H8a1,1,0,0,1-1-1V23a3,3,0,0,1,3-3H22a3,3,0,0,1,3,3v2A1,1,0,0,1,24,26ZM9,24H23V23a1,1,0,0,0-1-1H10a1,1,0,0,0-1,1Z"/><path class="cls-2" d="M19,22H13a1,1,0,0,1-1-1V17a1,1,0,0,1,1-1h6a1,1,0,0,1,1,1v4A1,1,0,0,1,19,22Zm-5-2h4V18H14Z"/><path class="cls-2" d="M18,32H14a1,1,0,0,1-1-1V29a1,1,0,0,1,2,0v1h2V26H14a1,1,0,0,1,0-2h4a1,1,0,0,1,1,1v6A1,1,0,0,1,18,32Z"/><path class="cls-2" d="M21,32H11a1,1,0,0,1,0-2H21a1,1,0,0,1,0,2Z"/></g></svg>