<svg width="24px" height="24px" viewBox="0 0 24 24" fill="none" xmlns="http://www.w3.org/2000/svg">
<path d="M13 13C13 12.4477 12.5523 12 12 12C11.4477 12 11 12.4477 11 13V20H8C7.44772 20 7 20.4477 7 21C7 21.5523 7.44772 22 8 22H16C16.5523 22 17 21.5523 17 21C17 20.4477 16.5523 20 16 20H13V13Z" fill="#4296FF"/>
<path fill-rule="evenodd" clip-rule="evenodd" d="M5 2C4.44772 2 4 2.44772 4 3C4 5.18608 4.86842 7.28263 6.41421 8.82843L11.2929 13.7071C11.6834 14.0976 12.3166 14.0976 12.7071 13.7071L17.5858 8.82843C19.1316 7.28263 20 5.18608 20 3C20 2.44772 19.5523 2 19 2H5ZM7.82843 7.41421C6.89609 6.48188 6.28912 5.285 6.08059 4H17.9194C17.7109 5.285 17.1039 6.48188 16.1716 7.41421L12 11.5858L7.82843 7.41421Z" fill="#152C70"/>
</svg>
