<svg width="24px" height="24px" viewBox="0 0 24 24" fill="none" xmlns="http://www.w3.org/2000/svg">
<path fill-rule="evenodd" clip-rule="evenodd" d="M2.16382 5.32862C2.03534 3.52994 3.4599 2 5.26316 2H14.7369C16.4292 2 17.788 3.34749 17.8426 5H18C20.2091 5 22 6.79086 22 9C22 11.2091 20.2091 13 18 13H17.0328C16.017 15.9272 13.2365 18 10 18C6.0947 18 2.85334 14.9819 2.57509 11.0865L2.16382 5.32862ZM17.4312 11H18C19.1046 11 20 10.1046 20 9C20 7.89543 19.1046 7 18 7H17.7169L17.4312 11ZM5.26316 4C4.62058 4 4.11295 4.54518 4.15874 5.18613L4.57001 10.944C4.7735 13.7928 7.14398 16 10 16C12.8561 16 15.2266 13.7928 15.4301 10.944L15.8413 5.18613C15.8871 4.54518 15.3795 4 14.7369 4H5.26316Z" fill="#152C70"/>
<path d="M2 21C2 20.4477 2.44772 20 3 20H17C17.5523 20 18 20.4477 18 21C18 21.5523 17.5523 22 17 22H3C2.44772 22 2 21.5523 2 21Z" fill="#4296FF"/>
</svg>
