<?xml version="1.0" ?><svg width="32px" height="32px" viewBox="0 0 32 32" xmlns="http://www.w3.org/2000/svg"><defs><style>.cls-1{fill:#04009a;}.cls-2{fill:#77acf1;}</style></defs><g data-name="24. Coffee Machine" id="_24._Coffee_Machine"><path class="cls-1" d="M28,8H4A2,2,0,0,1,2,6V2A2,2,0,0,1,4,0H8A1,1,0,0,1,8,2H4V6H28V2H12a1,1,0,0,1,0-2H28a2,2,0,0,1,2,2V6A2,2,0,0,1,28,8Z"/><path class="cls-1" d="M28,32H4a2,2,0,0,1-2-2V28a2,2,0,0,1,2-2H28a2,2,0,0,1,2,2v2A2,2,0,0,1,28,32ZM4,28v2H28V28Z"/><path class="cls-1" d="M28,28H4a1,1,0,0,1-1-1V7A1,1,0,0,1,4,6H28a1,1,0,0,1,1,1v9a1,1,0,0,1-2,0V8H5V26H27V20a1,1,0,0,1,2,0v7A1,1,0,0,1,28,28Z"/><path class="cls-1" d="M21,12H11a1,1,0,0,1-1-1V7a1,1,0,0,1,1-1H21a1,1,0,0,1,1,1v4A1,1,0,0,1,21,12Zm-9-2h8V8H12Z"/><path class="cls-1" d="M19,18H13a1,1,0,0,1-.986-.835l-1-6A1,1,0,0,1,12,10h8a1,1,0,0,1,.986,1.165l-1,6A1,1,0,0,1,19,18Zm-5.153-2h4.306l.666-4H13.181Z"/><path class="cls-1" d="M16,28a5.006,5.006,0,0,1-5-5V21a1,1,0,0,1,1-1h8a1,1,0,0,1,1,1v2A5.006,5.006,0,0,1,16,28Zm-3-6v1a3,3,0,0,0,6,0V22Z"/><path class="cls-1" d="M24,16H20a1,1,0,0,1,0-2h4a1,1,0,0,1,0,2Z"/><path class="cls-2" d="M31,17H24a1,1,0,0,1-1-1V14a1,1,0,0,1,1-1h7a1,1,0,0,1,1,1v2A1,1,0,0,1,31,17Zm-6-2h0Z"/></g></svg>