<svg width="20" height="18" viewBox="0 0 20 18" fill="none" xmlns="http://www.w3.org/2000/svg">
<path d="M17.871 5.06716L18.5673 4.3709C18.7896 4.14862 18.7896 3.78822 18.5673 3.56594C18.345 3.34366 17.9846 3.34366 17.7623 3.56594L17.0487 4.27954C16.2948 3.66246 15.4149 3.19393 14.454 2.91905V1.56686H14.9366C15.251 1.56686 15.5058 1.31202 15.5058 0.997664C15.5058 0.683305 15.251 0.428467 14.9366 0.428467H9.98706C9.6727 0.428467 9.41787 0.683305 9.41787 0.997664C9.41787 1.31202 9.6727 1.56686 9.98706 1.56686H10.4697V2.91909C9.50879 3.19393 8.62884 3.6625 7.87496 4.27958L7.16136 3.56598C6.93907 3.34369 6.57868 3.34369 6.3564 3.56598C6.13412 3.78826 6.13412 4.14865 6.3564 4.37094L7.05266 5.0672C5.90664 6.35025 5.20911 8.04202 5.20911 9.89365C5.20911 13.8928 8.46268 17.1464 12.4618 17.1464C16.461 17.1464 19.7146 13.8928 19.7146 9.89365C19.7146 8.04198 19.0171 6.35021 17.871 5.06716ZM11.6081 1.56686H13.3157V2.69087C13.0356 2.6579 12.7507 2.64086 12.4619 2.64086C12.173 2.64086 11.8881 2.65786 11.6081 2.69084V1.56686ZM12.4619 16.008C9.09039 16.008 6.34754 13.2651 6.34754 9.89365C6.34754 6.52218 9.09042 3.77929 12.4619 3.77929C15.8333 3.77929 18.5762 6.52218 18.5762 9.89365C18.5762 13.2651 15.8333 16.008 12.4619 16.008Z" fill="#667085"/>
<path d="M12.4616 4.91748H11.8924V9.65764L8.54199 13.0085L8.9446 13.411C9.88572 14.3517 11.1347 14.8697 12.4616 14.8697C15.2054 14.8697 17.4376 12.6373 17.4376 9.89336C17.4376 7.14964 15.2054 4.91748 12.4616 4.91748ZM12.4616 13.7313C11.6304 13.7313 10.8386 13.4674 10.1814 12.979L13.0308 10.1292V6.09796C14.878 6.37375 16.2992 7.97073 16.2992 9.8934C16.2992 12.0097 14.5776 13.7313 12.4616 13.7313Z" fill="#667085"/>
<path d="M1.42419 8.75523C1.42419 8.44087 1.67903 8.18604 1.99339 8.18604H3.13015C3.44451 8.18604 3.69935 8.44087 3.69935 8.75523C3.69935 9.06959 3.44451 9.32443 3.13015 9.32443H1.99339C1.67903 9.32443 1.42419 9.06959 1.42419 8.75523Z" fill="#667085"/>
<path d="M0.285889 6.09898C0.285889 5.78462 0.540727 5.52979 0.855086 5.52979H4.16964C4.484 5.52979 4.73883 5.78462 4.73883 6.09898C4.73883 6.41334 4.484 6.66818 4.16964 6.66818H0.855086C0.540727 6.66818 0.285889 6.41334 0.285889 6.09898Z" fill="#667085"/>
<path d="M0.285889 11.0321C0.285889 10.7177 0.540727 10.4629 0.855086 10.4629H3.13024C3.4446 10.4629 3.69944 10.7177 3.69944 11.0321C3.69944 11.3464 3.4446 11.6013 3.13024 11.6013H0.855086C0.540727 11.6013 0.285889 11.3464 0.285889 11.0321Z" fill="#667085"/>
<path d="M1.42419 13.6883C1.42419 13.374 1.67903 13.1191 1.99339 13.1191H4.16955C4.48391 13.1191 4.73874 13.374 4.73874 13.6883C4.73874 14.0027 4.48391 14.2575 4.16955 14.2575H1.99339C1.67903 14.2575 1.42419 14.0027 1.42419 13.6883Z" fill="#667085"/>
</svg>
