<?xml version="1.0" ?><svg width="32px" height="32px" viewBox="0 0 32 32" xmlns="http://www.w3.org/2000/svg"><defs><style>.cls-1{fill:#04009a;}.cls-2{fill:#77acf1;}</style></defs><g data-name="32. Documents" id="_32._Documents"><path class="cls-1" d="M29,32H10a1,1,0,0,1,0-2H29a1,1,0,0,0,1-1V25a1,1,0,0,0-1-1H24.441a1,1,0,0,0-.948.684l-.088.263A3,3,0,0,1,20.559,27H11.441A3,3,0,0,1,8.6,24.949l-.088-.267A1,1,0,0,0,7.559,24H3a1,1,0,0,0-1,1v4a1,1,0,0,0,1,1H6a1,1,0,0,1,0,2H3a3,3,0,0,1-3-3V25a3,3,0,0,1,3-3H7.559a3,3,0,0,1,2.846,2.051l.088.267a1,1,0,0,0,.948.682h9.118a1,1,0,0,0,.948-.684l.088-.263A3,3,0,0,1,24.441,22H29a3,3,0,0,1,3,3v4A3,3,0,0,1,29,32Z"/><path class="cls-1" d="M5,24a1,1,0,0,1-1-1V3A3,3,0,0,1,7,0H20.171a2.978,2.978,0,0,1,2.122.879l4.828,4.828A2.978,2.978,0,0,1,28,7.828V19a1,1,0,0,1-2,0V7.828a1.009,1.009,0,0,0-.293-.707L20.879,2.293A1,1,0,0,0,20.171,2H7A1,1,0,0,0,6,3V23A1,1,0,0,1,5,24Z"/><path class="cls-2" d="M23,12H13a1,1,0,0,1,0-2H23a1,1,0,0,1,0,2Z"/><path class="cls-2" d="M23,16H9a1,1,0,0,1,0-2H23a1,1,0,0,1,0,2Z"/><path class="cls-2" d="M19,20H9a1,1,0,0,1,0-2H19a1,1,0,0,1,0,2Z"/><path class="cls-1" d="M26,8H21a1,1,0,0,1-1-1V2a1,1,0,0,1,2,0V6h4a1,1,0,0,1,0,2Z"/></g></svg>