<?xml version="1.0" ?><svg width="32px" height="32px" viewBox="0 0 32 32" xmlns="http://www.w3.org/2000/svg"><defs><style>.cls-1{fill:#04009a;}.cls-2{fill:#77acf1;}</style></defs><g data-name="17. Email" id="_17._Email"><path class="cls-1" d="M6,32H3a3,3,0,0,1-3-3V13a3,3,0,0,1,3-3H9.68a1,1,0,0,1,0,2H3a1,1,0,0,0-1,1V29a1,1,0,0,0,1,1H6a1,1,0,0,1,0,2Z"/><path class="cls-1" d="M29,32H10a1,1,0,0,1,0-2H29a1,1,0,0,0,1-1V13a1,1,0,0,0-1-1H27a1,1,0,0,1,0-2h2a3,3,0,0,1,3,3V29A3,3,0,0,1,29,32Z"/><path class="cls-1" d="M16,25.267a3,3,0,0,1-2.042-.8L1.319,12.733a1,1,0,0,1,1.362-1.466L15.32,23a1,1,0,0,0,1.36,0L29.319,11.267a1,1,0,0,1,1.362,1.466L18.042,24.469A3,3,0,0,1,16,25.267Z"/><path class="cls-1" d="M2,31a1,1,0,0,1-.707-1.707l9.33-9.33a1,1,0,0,1,1.414,1.414l-9.33,9.33A1,1,0,0,1,2,31Z"/><path class="cls-1" d="M30,31a1,1,0,0,1-.707-.293l-9.33-9.33a1,1,0,0,1,1.414-1.414l9.33,9.33A1,1,0,0,1,30,31Z"/><path class="cls-1" d="M16,16a8,8,0,1,1,8-8A8.009,8.009,0,0,1,16,16ZM16,2a6,6,0,1,0,6,6A6.006,6.006,0,0,0,16,2Z"/><path class="cls-2" d="M16,12a1,1,0,0,1-1-1V7a1,1,0,0,1-.707-1.707l1-1A1,1,0,0,1,17,5v6A1,1,0,0,1,16,12Z"/></g></svg>