<svg width="24px" height="24px" viewBox="0 0 24 24" fill="none" xmlns="http://www.w3.org/2000/svg">
<path d="M8.83216 14.4453C8.5258 13.9858 7.90493 13.8616 7.44541 14.168C6.98588 14.4743 6.8617 15.0952 7.16806 15.5547C9.46675 19.0028 14.5335 19.0028 16.8322 15.5547C17.1385 15.0952 17.0143 14.4743 16.5548 14.168C16.0953 13.8616 15.4744 13.9858 15.1681 14.4453C13.661 16.7059 10.3392 16.7059 8.83216 14.4453Z" fill="#4296FF"/>
<path d="M17 9.5C17 10.3284 16.3284 11 15.5 11C14.6716 11 14 10.3284 14 9.5C14 8.67157 14.6716 8 15.5 8C16.3284 8 17 8.67157 17 9.5Z" fill="#4296FF"/>
<path d="M8.5 11C9.32843 11 10 10.3284 10 9.5C10 8.67157 9.32843 8 8.5 8C7.67157 8 7 8.67157 7 9.5C7 10.3284 7.67157 11 8.5 11Z" fill="#4296FF"/>
<path fill-rule="evenodd" clip-rule="evenodd" d="M12 4C7.58172 4 4 7.58172 4 12C4 16.4183 7.58172 20 12 20C16.4183 20 20 16.4183 20 12C20 7.58172 16.4183 4 12 4ZM2 12C2 6.47715 6.47715 2 12 2C17.5228 2 22 6.47715 22 12C22 17.5228 17.5228 22 12 22C6.47715 22 2 17.5228 2 12Z" fill="#152C70"/>
</svg>
