<?xml version="1.0" ?><svg width="32px" height="32px" viewBox="0 0 32 32" xmlns="http://www.w3.org/2000/svg"><defs><style>.cls-1{fill:#04009a;}.cls-2{fill:#77acf1;}</style></defs><g data-name="22. File Approved" id="_22._File_Approved"><path class="cls-1" d="M22,32H6a3,3,0,0,1-3-3V7A3,3,0,0,1,6,4H8A1,1,0,0,1,8,6H6A1,1,0,0,0,5,7V29a1,1,0,0,0,1,1H22a1,1,0,0,0,1-1V11.829a1,1,0,0,0-.293-.708L17.879,6.293A1,1,0,0,0,17.171,6H12a1,1,0,0,1,0-2h5.171a2.978,2.978,0,0,1,2.122.879l4.828,4.828A2.978,2.978,0,0,1,25,11.829V29A3,3,0,0,1,22,32Z"/><path class="cls-1" d="M28,19a1,1,0,0,1-1-1V7.829a1,1,0,0,0-.293-.708L21.879,2.293A1,1,0,0,0,21.171,2H10A1,1,0,0,0,9,3V5A1,1,0,0,1,7,5V3a3,3,0,0,1,3-3H21.171a2.978,2.978,0,0,1,2.122.879l4.828,4.828A2.978,2.978,0,0,1,29,7.829V18A1,1,0,0,1,28,19Z"/><path class="cls-1" d="M26,28H24a1,1,0,0,1,0-2h2a1,1,0,0,0,1-1V22a1,1,0,0,1,2,0v3A3,3,0,0,1,26,28Z"/><path class="cls-1" d="M23,12H18a1,1,0,0,1-1-1V6a1,1,0,0,1,2,0v4h4a1,1,0,0,1,0,2Z"/><path class="cls-2" d="M13,23a1,1,0,0,1-.707-.293l-3-3a1,1,0,0,1,1.414-1.414L13,20.586l4.293-4.293a1,1,0,0,1,1.414,1.414l-5,5A1,1,0,0,1,13,23Z"/></g></svg>