<svg width="24px" height="24px" viewBox="0 0 24 24" fill="none" xmlns="http://www.w3.org/2000/svg">
<path fill-rule="evenodd" clip-rule="evenodd" d="M7.10002 6C7.56329 3.71776 9.58104 2 12 2C14.419 2 16.4367 3.71776 16.9 6H17C19.7614 6 22 8.23858 22 11V17C22 19.7614 19.7614 22 17 22H7C4.23858 22 2 19.7614 2 17V11C2 8.23858 4.23858 6 7 6H7.10002ZM9.17071 6C9.58254 4.83481 10.6938 4 12 4C13.3062 4 14.4175 4.83481 14.8293 6H9.17071ZM4 11C4 9.34315 5.34315 8 7 8H17C18.6569 8 20 9.34315 20 11V17C20 18.6569 18.6569 20 17 20H7C5.34315 20 4 18.6569 4 17V11Z" fill="#152C70"/>
<path d="M12 10C12.5523 10 13 10.4477 13 11V13H15C15.5523 13 16 13.4477 16 14C16 14.5523 15.5523 15 15 15H13V17C13 17.5523 12.5523 18 12 18C11.4477 18 11 17.5523 11 17V15H9C8.44772 15 8 14.5523 8 14C8 13.4477 8.44772 13 9 13H11V11C11 10.4477 11.4477 10 12 10Z" fill="#4296FF"/>
</svg>
