<?xml version="1.0" ?><svg width="32px" height="32px" viewBox="0 0 32 32" xmlns="http://www.w3.org/2000/svg"><defs><style>.cls-1{fill:#04009a;}.cls-2{fill:#77acf1;}</style></defs><g data-name="15. Flashdisk" id="_15._Flashdisk"><path class="cls-1" d="M18,25a1,1,0,0,1-.707-.293l-10-10a1,1,0,1,1,1.414-1.414l10,10A1,1,0,0,1,18,25Z"/><path class="cls-2" d="M7.02,26a1,1,0,0,1-.01-2h.01a1,1,0,0,1,0,2Z"/><path class="cls-1" d="M7,32a1,1,0,0,1-.707-.293l-6-6a1,1,0,0,1,0-1.414l6-6a1,1,0,0,1,1.414,0l6,6a1,1,0,0,1-1.414,1.414L7,20.414,2.414,25,7,29.586l2.293-2.293a1,1,0,0,1,1.414,1.414l-3,3A1,1,0,0,1,7,32Z"/><path class="cls-1" d="M15,27.17a2.992,2.992,0,0,1-2.121-.877L5.707,19.121a3,3,0,0,1,0-4.243l1.586-1.585a1,1,0,0,1,1.414,1.414L7.121,16.293a1,1,0,0,0,0,1.414l7.172,7.172a1,1,0,0,0,1.414,0L28.222,12.364a6.071,6.071,0,0,0-8.586-8.586l-7.929,7.929a1,1,0,0,1-1.414-1.414l7.929-7.929A8.071,8.071,0,1,1,29.636,13.778L17.121,26.293A2.994,2.994,0,0,1,15,27.17Z"/><path class="cls-2" d="M17,16a1,1,0,0,1-.707-1.707l3-3a1,1,0,0,1,1.414,1.414l-3,3A1,1,0,0,1,17,16Z"/></g></svg>