<?xml version="1.0" ?><svg width="32px" height="32px" viewBox="0 0 32 32" xmlns="http://www.w3.org/2000/svg"><defs><style>.cls-1{fill:#04009a;}.cls-2{fill:#77acf1;}</style></defs><g data-name="13. Floppy Disk" id="_13._Floppy_Disk"><path class="cls-1" d="M27,32H25a1,1,0,0,1,0-2h2a1,1,0,0,0,1-1V7.829a1,1,0,0,0-.293-.708L22.879,2.293A1.009,1.009,0,0,0,22.172,2H5A1,1,0,0,0,4,3V14a1,1,0,0,1-2,0V3A3,3,0,0,1,5,0H22.172a2.978,2.978,0,0,1,2.121.879l4.828,4.828A2.983,2.983,0,0,1,30,7.829V29A3,3,0,0,1,27,32Z"/><path class="cls-1" d="M21,32H5a3,3,0,0,1-3-3V18a1,1,0,0,1,2,0V29a1,1,0,0,0,1,1H21a1,1,0,0,1,0,2Z"/><path class="cls-1" d="M19,10H9A3,3,0,0,1,6,7V1A1,1,0,0,1,7,0H21a1,1,0,0,1,1,1V7A3,3,0,0,1,19,10ZM8,2V7A1,1,0,0,0,9,8H19a1,1,0,0,0,1-1V2Z"/><path class="cls-1" d="M21,32H7a1,1,0,0,1-1-1V21a3,3,0,0,1,3-3H19a3,3,0,0,1,3,3V31A1,1,0,0,1,21,32ZM8,30H20V21a1,1,0,0,0-1-1H9a1,1,0,0,0-1,1Z"/><path class="cls-2" d="M17,6H16a1,1,0,0,1,0-2h1a1,1,0,0,1,0,2Z"/><path class="cls-2" d="M17,24H11a1,1,0,0,1,0-2h6a1,1,0,0,1,0,2Z"/><path class="cls-2" d="M17,28H11a1,1,0,0,1,0-2h6a1,1,0,0,1,0,2Z"/></g></svg>