<svg width="24px" height="24px" viewBox="0 0 24 24" fill="none" xmlns="http://www.w3.org/2000/svg">
<path fill-rule="evenodd" clip-rule="evenodd" d="M12 3.05051C11.3647 2.40223 10.4793 2 9.5 2C7.567 2 6 3.567 6 5.5C6 7.433 7.567 9 9.5 9C10.4793 9 11.3647 8.59777 12 7.94949C12.6353 8.59777 13.5207 9 14.5 9C16.433 9 18 7.433 18 5.5C18 3.567 16.433 2 14.5 2C13.5207 2 12.6353 2.40223 12 3.05051ZM8 5.5C8 4.67157 8.67157 4 9.5 4C10.3284 4 11 4.67157 11 5.5C11 6.32843 10.3284 7 9.5 7C8.67157 7 8 6.32843 8 5.5ZM13 5.5C13 6.32843 13.6716 7 14.5 7C15.3284 7 16 6.32843 16 5.5C16 4.67157 15.3284 4 14.5 4C13.6716 4 13 4.67157 13 5.5Z" fill="#4296FF"/>
<path fill-rule="evenodd" clip-rule="evenodd" d="M3 11.5C3 9.567 4.567 8 6.5 8H17.5C19.433 8 21 9.567 21 11.5C21 12.8962 20.1825 14.1015 19 14.6632V17C19 19.7614 16.7614 22 14 22H10C7.23858 22 5 19.7614 5 17V14.6632C3.81753 14.1015 3 12.8962 3 11.5ZM13 15H17V17C17 18.6569 15.6569 20 14 20H13V15ZM13 13H17.5C18.3284 13 19 12.3284 19 11.5C19 10.6716 18.3284 10 17.5 10H13V13ZM11 10V13H6.5C5.67157 13 5 12.3284 5 11.5C5 10.6716 5.67157 10 6.5 10H11ZM11 15V20H10C8.34315 20 7 18.6569 7 17V15H11Z" fill="#152C70"/>
</svg>
