<svg width="24px" height="24px" viewBox="0 0 24 24" fill="none" xmlns="http://www.w3.org/2000/svg">
<path fill-rule="evenodd" clip-rule="evenodd" d="M2 8.60555C2 5.50969 4.50969 3 7.60555 3C8.71223 3 9.79414 3.32758 10.715 3.94145L12 4.79815L13.285 3.94145C14.2059 3.32758 15.2878 3 16.3944 3C19.4903 3 22 5.50969 22 8.60555V9.34382C22 11.3098 21.219 13.1952 19.8289 14.5853L14.1213 20.2929C12.9497 21.4645 11.0503 21.4645 9.87868 20.2929L4.1711 14.5853C2.78097 13.1952 2 11.3098 2 9.34382V8.60555ZM7.60555 5C5.61426 5 4 6.61426 4 8.60555V9.34382C4 10.7793 4.57025 12.156 5.58531 13.1711L11.2929 18.8787C11.6834 19.2692 12.3166 19.2692 12.7071 18.8787L18.4147 13.1711C19.4297 12.156 20 10.7793 20 9.34382V8.60555C20 6.61426 18.3857 5 16.3944 5C15.6826 5 14.9867 5.2107 14.3944 5.60555L12.5547 6.83205C12.2188 7.05598 11.7812 7.05598 11.4453 6.83205L9.60555 5.60555C9.01328 5.2107 8.31738 5 7.60555 5Z" fill="#152C70"/>
</svg>
