<svg width="24px" height="24px" viewBox="0 0 24 24" fill="none" xmlns="http://www.w3.org/2000/svg">
<path fill-rule="evenodd" clip-rule="evenodd" d="M12.4473 5.10555C12.9413 5.35254 13.1415 5.95321 12.8945 6.44719L11.2677 9.70072L14.6001 12.2C14.9444 12.4582 15.0849 12.9079 14.9488 13.3162L12.9488 19.3162C12.7741 19.8401 12.2078 20.1233 11.6839 19.9487C11.1599 19.774 10.8767 19.2077 11.0514 18.6837L12.8235 13.3675L9.40008 10.8C9.01345 10.51 8.88952 9.98503 9.10565 9.55276L11.1057 5.55276C11.3526 5.05878 11.9533 4.85856 12.4473 5.10555Z" fill="#4296FF"/>
<path fill-rule="evenodd" clip-rule="evenodd" d="M2 8.60555C2 5.50969 4.50969 3 7.60555 3C8.71223 3 9.79414 3.32758 10.715 3.94145L12 4.79815L13.285 3.94145C14.2059 3.32758 15.2878 3 16.3944 3C19.4903 3 22 5.50969 22 8.60555V9.65685C22 11.4224 21.2987 13.1156 20.0503 14.364L14.1213 20.2929C12.9497 21.4645 11.0503 21.4645 9.87868 20.2929L3.94975 14.364C2.70135 13.1156 2 11.4224 2 9.65685V8.60555ZM7.60555 5C5.61426 5 4 6.61426 4 8.60555V9.65685C4 10.8919 4.49063 12.0764 5.36396 12.9497L11.2929 18.8787C11.6834 19.2692 12.3166 19.2692 12.7071 18.8787L18.636 12.9497C19.5094 12.0764 20 10.8919 20 9.65685V8.60555C20 6.61426 18.3857 5 16.3944 5C15.6826 5 14.9867 5.2107 14.3944 5.60555L12.5547 6.83205C12.2188 7.05598 11.7812 7.05598 11.4453 6.83205L9.60555 5.60555C9.01328 5.2107 8.31738 5 7.60555 5Z" fill="#152C70"/>
</svg>
