<svg width="24px" height="24px" viewBox="0 0 24 24" fill="none" xmlns="http://www.w3.org/2000/svg">
<path fill-rule="evenodd" clip-rule="evenodd" d="M12 16C10.8954 16 10 16.8954 10 18V19H14V18C14 16.8954 13.1046 16 12 16ZM8 18C8 15.7909 9.79086 14 12 14C14.2091 14 16 15.7909 16 18V20C16 20.5523 15.5523 21 15 21H9C8.44772 21 8 20.5523 8 20V18Z" fill="#4296FF"/>
<path fill-rule="evenodd" clip-rule="evenodd" d="M8.89648 4.18152C10.715 2.74182 13.285 2.74182 15.1035 4.18152L19.1035 7.34818C20.3014 8.29654 21 9.74055 21 11.2684V16C21 18.7614 18.7614 21 16 21H8C5.23858 21 3 18.7614 3 16V11.2684C3 9.74055 3.69857 8.29654 4.89648 7.34818L8.89648 4.18152ZM13.8621 5.74961C12.771 4.88579 11.229 4.88579 10.1379 5.74961L6.13789 8.91628C5.41914 9.48529 5 10.3517 5 11.2684V16C5 17.6569 6.34315 19 8 19H16C17.6569 19 19 17.6569 19 16V11.2684C19 10.3517 18.5809 9.48529 17.8621 8.91628L13.8621 5.74961Z" fill="#152C70"/>
</svg>
