<?xml version="1.0" ?><svg width="32px" height="32px" viewBox="0 0 32 32" xmlns="http://www.w3.org/2000/svg"><defs><style>.cls-1{fill:#04009a;}.cls-2{fill:#77acf1;}</style></defs><g data-name="7. Id Card" id="_7._Id_Card"><path class="cls-1" d="M29,9H24a1,1,0,0,0,0,2h5a1,1,0,0,1,1,1V28a1,1,0,0,1-1,1H3a1,1,0,0,1-1-1V12a1,1,0,0,1,1-1h8a2,2,0,0,0,2,2h6a2,2,0,0,0,2-2V3a2,2,0,0,0-2-2H13a2,2,0,0,0-2,2V9H3a3,3,0,0,0-3,3V28a3,3,0,0,0,3,3H29a3,3,0,0,0,3-3V12A3,3,0,0,0,29,9ZM13,3h6v8H13Z"/><path class="cls-1" d="M4,26a1,1,0,0,0,1,1h8a1,1,0,0,0,1-1,5,5,0,0,0-2.207-4.145,4,4,0,1,0-5.586,0A5,5,0,0,0,4,26Zm3-7a2,2,0,1,1,2,2A2,2,0,0,1,7,19Zm2,4a3.006,3.006,0,0,1,2.829,2H6.171A3.006,3.006,0,0,1,9,23Z"/><path class="cls-2" d="M25,25H19a1,1,0,0,1,0-2h6a1,1,0,0,1,0,2Z"/><path class="cls-2" d="M27,21H19a1,1,0,0,1,0-2h8a1,1,0,0,1,0,2Z"/><path class="cls-2" d="M27,17H19a1,1,0,0,1,0-2h8a1,1,0,0,1,0,2Z"/><path class="cls-2" d="M16.02,9a1,1,0,0,1-.01-2h.01a1,1,0,0,1,0,2Z"/></g></svg>