<svg width="24px" height="24px" viewBox="0 0 24 24" fill="none" xmlns="http://www.w3.org/2000/svg">
<path fill-rule="evenodd" clip-rule="evenodd" d="M5.51705 11.4175C6.80083 9.87699 9.2055 10.0054 10.3179 11.674L11.7548 13.8294C12.0548 14.2794 12.6582 14.4094 13.1169 14.1227L13.9533 13.5999C15.2488 12.7903 16.9458 13.0834 17.8946 14.2807L20.7838 17.9268C21.1268 18.3596 21.0539 18.9886 20.6211 19.3316C20.1882 19.6746 19.5593 19.6018 19.2163 19.1689L16.3271 15.5229C16.0108 15.1238 15.4451 15.026 15.0133 15.2959L14.1769 15.8187C12.801 16.6786 10.9907 16.2888 10.0907 14.9388L8.65376 12.7834C8.28297 12.2272 7.48142 12.1844 7.05349 12.6979L3.76825 16.6402C3.41468 17.0645 2.78412 17.1218 2.35984 16.7682C1.93556 16.4147 1.87824 15.7841 2.2318 15.3598L5.51705 11.4175Z" fill="#4296FF"/>
<path d="M18 9C18 10.1046 17.1046 11 16 11C14.8955 11 14 10.1046 14 9C14 7.89543 14.8955 7 16 7C17.1046 7 18 7.89543 18 9Z" fill="#4296FF"/>
<path fill-rule="evenodd" clip-rule="evenodd" d="M2 8C2 5.23858 4.23858 3 7 3H17C19.7614 3 22 5.23858 22 8V16C22 18.7614 19.7614 21 17 21H7C4.23858 21 2 18.7614 2 16V8ZM7 5C5.34315 5 4 6.34315 4 8V16C4 17.6569 5.34315 19 7 19H17C18.6569 19 20 17.6569 20 16V8C20 6.34315 18.6569 5 17 5H7Z" fill="#152C70"/>
</svg>
