<?xml version="1.0" ?><svg width="32px" height="32px" viewBox="0 0 32 32" xmlns="http://www.w3.org/2000/svg"><defs><style>.cls-1{fill:#04009a;}.cls-2{fill:#77acf1;}</style></defs><g data-name="30. Phone" id="_30._Phone"><path class="cls-1" d="M18.2,32H7.8A4.8,4.8,0,0,1,3,27.205V4.8A4.8,4.8,0,0,1,7.8,0H18.2A4.8,4.8,0,0,1,23,4.8V5a1,1,0,0,1-2,0V4.8A2.8,2.8,0,0,0,18.2,2H7.8A2.8,2.8,0,0,0,5,4.8v22.41A2.8,2.8,0,0,0,7.8,30H18.2a2.8,2.8,0,0,0,2.8-2.8V27a1,1,0,0,1,2,0v.2A4.8,4.8,0,0,1,18.2,32Z"/><path class="cls-2" d="M13,28a2,2,0,1,1,2-2A2,2,0,0,1,13,28Zm0-2v0Z"/><path class="cls-1" d="M16,6H10a1,1,0,0,1,0-2h6a1,1,0,0,1,0,2Z"/><path class="cls-2" d="M29,18H15a1,1,0,0,1-1-1V13a1,1,0,0,1,1-1H29a1,1,0,0,1,1,1v4A1,1,0,0,1,29,18ZM16,16H28V14H16Z"/><path class="cls-2" d="M26,24H18a3,3,0,0,1-3-3V17a1,1,0,0,1,1-1H28a1,1,0,0,1,1,1v4A3,3,0,0,1,26,24Zm-9-6v3a1,1,0,0,0,1,1h8a1,1,0,0,0,1-1V18Z"/><path class="cls-2" d="M26,14H18a1,1,0,0,1-1-1V11a3,3,0,0,1,3-3h4a3,3,0,0,1,3,3v2A1,1,0,0,1,26,14Zm-7-2h6V11a1,1,0,0,0-1-1H20a1,1,0,0,0-1,1Z"/></g></svg>