<?xml version="1.0" ?><svg width="32px" height="32px" viewBox="0 0 32 32" xmlns="http://www.w3.org/2000/svg"><defs><style>.cls-1{fill:#04009a;}.cls-2{fill:#77acf1;}</style></defs><g data-name="35. Find" id="_35._Find"><path class="cls-1" d="M13,26a12.994,12.994,0,1,1,12.588-9.748,1,1,0,0,1-1.936-.5A10.894,10.894,0,0,0,24,13,11,11,0,1,0,13,24a10.869,10.869,0,0,0,6.275-1.969,10.652,10.652,0,0,0,2.749-2.747,1,1,0,0,1,1.651,1.131,12.681,12.681,0,0,1-3.256,3.257A12.861,12.861,0,0,1,13,26Z"/><path class="cls-1" d="M28.879,32a3.142,3.142,0,0,1-2.207-.914l-7.529-7.529a1,1,0,0,1,1.414-1.414l7.529,7.529a1.121,1.121,0,0,0,1.586-1.586l-7.529-7.529a1,1,0,0,1,1.414-1.414l7.529,7.529A3.121,3.121,0,0,1,28.879,32Z"/><path class="cls-2" d="M19,15H7a2,2,0,0,1-2-2V10A1,1,0,0,1,6,9H20a1,1,0,0,1,1,1v3A2,2,0,0,1,19,15ZM7,11v2H19V11Z"/><path class="cls-2" d="M17,21H9a3,3,0,0,1-3-3V14a1,1,0,0,1,1-1H19a1,1,0,0,1,1,1v4A3,3,0,0,1,17,21ZM8,15v3a1,1,0,0,0,1,1h8a1,1,0,0,0,1-1V15Z"/><path class="cls-2" d="M17,11H9a1,1,0,0,1-1-1V8a3,3,0,0,1,3-3h4a3,3,0,0,1,3,3v2A1,1,0,0,1,17,11ZM10,9h6V8a1,1,0,0,0-1-1H11a1,1,0,0,0-1,1Z"/></g></svg>