<?xml version="1.0" ?><svg width="32px" height="32px" viewBox="0 0 32 32" xmlns="http://www.w3.org/2000/svg"><defs><style>.cls-1{fill:#77acf1;}.cls-2{fill:#04009a;}</style></defs><g data-name="23. Job" id="_23._Job"><path class="cls-1" d="M22,18H10a1,1,0,0,1-1-1V13a1,1,0,0,1,1-1H22a1,1,0,0,1,1,1v4A1,1,0,0,1,22,18ZM11,16H21V14H11Z"/><path class="cls-1" d="M19,23H13a3,3,0,0,1-3-3V17a1,1,0,0,1,1-1H21a1,1,0,0,1,1,1v3A3,3,0,0,1,19,23Zm-7-5v2a1,1,0,0,0,1,1h6a1,1,0,0,0,1-1V18Z"/><path class="cls-1" d="M19,14H13a1,1,0,0,1-1-1V11a3,3,0,0,1,3-3h2a3,3,0,0,1,3,3v2A1,1,0,0,1,19,14Zm-5-2h4V11a1,1,0,0,0-1-1H15a1,1,0,0,0-1,1Z"/><path class="cls-2" d="M30.86,15H26.82a1,1,0,0,1-.983-.82,10.031,10.031,0,0,0-8.018-8.016A1,1,0,0,1,17,5.18V1.14A1,1,0,0,1,18.131.149,16.045,16.045,0,0,1,28.8,6.4a1,1,0,0,1-1.6,1.2A14.063,14.063,0,0,0,19,2.329V4.377A12.057,12.057,0,0,1,27.623,13h2.049a13.71,13.71,0,0,0-.473-1.667,1,1,0,0,1,1.887-.666,16.009,16.009,0,0,1,.766,3.2A1,1,0,0,1,30.86,15Z"/><path class="cls-2" d="M27.92,26.09a1,1,0,0,1-.707-.293l-2.85-2.85a1,1,0,0,1-.117-1.273,9.84,9.84,0,0,0,1.59-3.852A1,1,0,0,1,26.82,17h4.04a1,1,0,0,1,.992,1.132A15.892,15.892,0,0,1,28.713,25.7a1,1,0,0,1-.728.389ZM26.345,22.1l1.441,1.441A13.889,13.889,0,0,0,29.671,19H27.626A11.783,11.783,0,0,1,26.345,22.1Z"/><path class="cls-2" d="M16,32A15.968,15.968,0,0,1,5.333,27.922a1,1,0,1,1,1.334-1.49A13.97,13.97,0,0,0,16,30a13.82,13.82,0,0,0,7.543-2.213l-1.45-1.45A11.877,11.877,0,0,1,16,28,12,12,0,0,1,13,4.376V2.329A14,14,0,0,0,4.157,23.466a1,1,0,0,1-1.691,1.068A15.994,15.994,0,0,1,13.869.149,1,1,0,0,1,15,1.14V5.18a1,1,0,0,1-.819.984A10,10,0,0,0,16,26a9.872,9.872,0,0,0,5.66-1.761,1,1,0,0,1,1.277.114l2.86,2.86a1,1,0,0,1-.1,1.5A15.814,15.814,0,0,1,16,32Z"/></g></svg>