<?xml version="1.0" ?><svg width="32px" height="32px" viewBox="0 0 32 32" xmlns="http://www.w3.org/2000/svg"><defs><style>.cls-1{fill:#04009a;}.cls-2{fill:#77acf1;}</style></defs><g data-name="14. Keyboard" id="_14._Keyboard"><path class="cls-1" d="M29,32H3a3,3,0,0,1-3-3V17a3,3,0,0,1,3-3H16a1,1,0,0,1,0,2H3a1,1,0,0,0-1,1V29a1,1,0,0,0,1,1H29a1,1,0,0,0,1-1V17a1,1,0,0,0-1-1H20a1,1,0,0,1,0-2h9a3,3,0,0,1,3,3V29A3,3,0,0,1,29,32Z"/><path class="cls-2" d="M8,20H6a1,1,0,0,1,0-2H8a1,1,0,0,1,0,2Z"/><path class="cls-2" d="M14,20H12a1,1,0,0,1,0-2h2a1,1,0,0,1,0,2Z"/><path class="cls-2" d="M20,20H18a1,1,0,0,1,0-2h2a1,1,0,0,1,0,2Z"/><path class="cls-2" d="M26,20H24a1,1,0,0,1,0-2h2a1,1,0,0,1,0,2Z"/><path class="cls-2" d="M8,24H5a1,1,0,0,1,0-2H8a1,1,0,0,1,0,2Z"/><path class="cls-2" d="M14,24H12a1,1,0,0,1,0-2h2a1,1,0,0,1,0,2Z"/><path class="cls-2" d="M20,24H18a1,1,0,0,1,0-2h2a1,1,0,0,1,0,2Z"/><path class="cls-2" d="M27,24H24a1,1,0,0,1,0-2h3a1,1,0,0,1,0,2Z"/><path class="cls-2" d="M8,28H6a1,1,0,0,1,0-2H8a1,1,0,0,1,0,2Z"/><path class="cls-2" d="M20,28H12a1,1,0,0,1,0-2h8a1,1,0,0,1,0,2Z"/><path class="cls-2" d="M26,28H24a1,1,0,0,1,0-2h2a1,1,0,0,1,0,2Z"/><path class="cls-1" d="M16,16a1,1,0,0,1-1-1V13a3,3,0,0,1,3-3h5a1,1,0,0,0,0-2H9A3,3,0,0,1,9,2h5a1,1,0,0,0,1-1,1,1,0,0,1,2,0,3,3,0,0,1-3,3H9A1,1,0,0,0,9,6H23a3,3,0,0,1,0,6H18a1,1,0,0,0-1,1v2A1,1,0,0,1,16,16Z"/></g></svg>