<svg width="18" height="15" viewBox="0 0 18 15" fill="none" xmlns="http://www.w3.org/2000/svg">
<path d="M15.1526 3.17234C14.9226 2.94241 14.5616 2.9085 14.2928 3.09167C13.2802 3.78191 8.20088 7.25276 7.65499 7.79861C6.86337 8.59026 6.86337 9.87829 7.65499 10.6699C8.0508 11.0657 8.57076 11.2636 9.09066 11.2636C9.61055 11.2636 10.1305 11.0657 10.5263 10.6699C11.0722 10.1241 14.543 5.04476 15.2333 4.03211C15.4164 3.76333 15.3825 3.40234 15.1526 3.17234ZM9.56917 9.71282C9.30533 9.97672 8.87595 9.97672 8.61211 9.71282C8.34824 9.44898 8.34821 9.01974 8.61198 8.75586C8.82408 8.54627 10.2662 7.51778 12.0405 6.28447C10.8072 8.05876 9.7787 9.50078 9.56917 9.71282Z" fill="#667085"/>
<path d="M3.54943 12.382L2.71395 12.7895C2.10263 11.6985 1.78201 10.4808 1.78201 9.23419C1.78201 8.32085 1.95042 7.44609 2.25778 6.63935L3.2151 7.09854C3.30951 7.14382 3.40916 7.16527 3.50733 7.16527C3.75953 7.16527 4.00164 7.02365 4.11801 6.78103C4.27963 6.44404 4.1375 6.03977 3.80047 5.87812L2.8553 5.42475C4.03007 3.50882 6.06264 2.17304 8.41439 1.95614V2.97403C8.41439 3.34781 8.71738 3.6508 9.09116 3.6508C9.46494 3.6508 9.76793 3.34781 9.76793 2.97403V1.95563C10.5742 2.02903 11.3544 2.23436 12.095 2.56868C12.4356 2.72248 12.8365 2.57091 12.9903 2.23033C13.1441 1.88964 12.9926 1.48883 12.6519 1.33503C11.5296 0.828435 10.3316 0.571533 9.09112 0.571533C6.77725 0.571533 4.60187 1.47258 2.96568 3.10874C1.32955 4.74494 0.428467 6.92031 0.428467 9.23419C0.428467 10.944 0.935977 12.607 1.89614 14.0431C2.02547 14.2365 2.2393 14.3438 2.45918 14.3438C2.55914 14.3438 2.66039 14.3217 2.75551 14.2753L4.14288 13.5985C4.47883 13.4346 4.61832 13.0295 4.45444 12.6935C4.29056 12.3576 3.88537 12.2182 3.54943 12.382Z" fill="#667085"/>
<path d="M16.9903 5.67342C16.8366 5.33277 16.4358 5.18117 16.095 5.33504C15.7544 5.48883 15.6029 5.88965 15.7567 6.2303C16.1838 7.17636 16.4003 8.18701 16.4003 9.23418C16.4003 10.4826 16.0786 11.7023 15.4655 12.7946L14.5933 12.3792C14.2559 12.2186 13.852 12.3618 13.6913 12.6993C13.5306 13.0367 13.6739 13.4406 14.0113 13.6013L15.4326 14.2781C15.5261 14.3226 15.6252 14.3439 15.7232 14.3439C15.9431 14.3439 16.157 14.2364 16.2861 14.0432C17.2463 12.607 17.7538 10.944 17.7538 9.23418C17.7538 7.99369 17.4969 6.79568 16.9903 5.67342Z" fill="#667085"/>
</svg>
