<?xml version="1.0" ?><svg width="32px" height="32px" viewBox="0 0 32 32" xmlns="http://www.w3.org/2000/svg"><defs><style>.cls-1{fill:#77acf1;}.cls-2{fill:#04009a;}</style></defs><g data-name="3. Laptop" id="_3._Laptop"><path class="cls-1" d="M20,25a3.009,3.009,0,0,1-3,3H15a3.009,3.009,0,0,1-3-3,1,1,0,0,1,1-1h6A1,1,0,0,1,20,25Z"/><path class="cls-1" d="M22,13H14a1,1,0,0,1,0-2h8a1,1,0,0,1,0,2Z"/><path class="cls-1" d="M22,17H10a1,1,0,0,1,0-2H22a1,1,0,0,1,0,2Z"/><path class="cls-1" d="M18,21H10a1,1,0,0,1,0-2h8a1,1,0,0,1,0,2Z"/><path class="cls-2" d="M31,24H27V7a1,1,0,0,0-.293-.707L26.414,6H27a2,2,0,0,1,2,2V21a1,1,0,0,0,2,0V8a4,4,0,0,0-4-4H24.414L20.707.293A1,1,0,0,0,20,0H8A3,3,0,0,0,5,3V4A4,4,0,0,0,1,8V24a1,1,0,0,0-1,1v2a5.006,5.006,0,0,0,5,5H7a1,1,0,0,0,0-2H5a3,3,0,0,1-3-3V26H30v1a3,3,0,0,1-3,3H11a1,1,0,0,0,0,2H27a5.006,5.006,0,0,0,5-5V25A1,1,0,0,0,31,24ZM21,3.414l2.292,2.292,0,0L23.586,6H21ZM3,8A2,2,0,0,1,5,6V24H3ZM7,24V3A1,1,0,0,1,8,2H19V7a1,1,0,0,0,1,1h5V24Z"/></g></svg>