<svg width="24px" height="24px" viewBox="0 0 24 24" fill="none" xmlns="http://www.w3.org/2000/svg">
<path fill-rule="evenodd" clip-rule="evenodd" d="M9 4C6.23858 4 4 6.23858 4 9V14.0197C2.8713 14.168 2 15.1336 2 16.3028C2 17.0727 2.3848 17.7917 3.02543 18.2188L3.12798 18.2872C4.80326 19.404 6.77164 20 8.78507 20H15.2149C17.2284 20 19.1967 19.404 20.872 18.2872L20.9746 18.2188C21.6152 17.7917 22 17.0727 22 16.3028C22 15.1336 21.1287 14.168 20 14.0197V9C20 6.23858 17.7614 4 15 4H9ZM19.6972 16H14.9667C14.8122 16.7607 14.1397 17.3333 13.3333 17.3333H10.6667C9.86035 17.3333 9.18776 16.7607 9.03334 16H4.30278C4.13556 16 4 16.1356 4 16.3028C4 16.404 4.05059 16.4985 4.13483 16.5547L4.23738 16.6231C5.58412 17.5209 7.16649 18 8.78507 18H15.2149C16.8335 18 18.4159 17.5209 19.7626 16.6231L19.8652 16.5547C19.9494 16.4985 20 16.404 20 16.3028C20 16.1356 19.8644 16 19.6972 16ZM18 14V9C18 7.34315 16.6569 6 15 6H9C7.34315 6 6 7.34315 6 9V14H18Z" fill="#152C70"/>
</svg>
