<svg width="24px" height="24px" viewBox="0 0 24 24" fill="none" xmlns="http://www.w3.org/2000/svg">
<path fill-rule="evenodd" clip-rule="evenodd" d="M11.9155 2C10.4805 2 9.07122 2.39108 7.84129 3.12904C5.46089 4.55727 4 7.13211 4 9.90941C4 11.47 4.46194 12.9957 5.3276 14.2942L9.61325 20.7226C10.1453 21.5207 11.0409 22 12 22C12.9591 22 13.8547 21.5207 14.3868 20.7227L18.6724 14.2942C19.5381 12.9957 20 11.47 20 9.90941C20 7.1321 18.5391 4.55727 16.1587 3.12904C14.9288 2.39108 13.5195 2 12.0845 2H11.9155ZM8.87028 4.84402C9.78989 4.29226 10.8436 4 11.9155 4H12.0845C13.1564 4 14.2101 4.29226 15.1297 4.84402C16.9088 5.91149 18 7.83594 18 9.90941C18 11.0752 17.6549 12.2148 17.0083 13.1848L12.7227 19.6132C12.5616 19.8549 12.2904 20 12 20C11.7096 20 11.4384 19.8549 11.2773 19.6132L6.9917 13.1848C6.34506 12.2148 6 11.0752 6 9.90941C6 7.83594 7.09117 5.91149 8.87028 4.84402Z" fill="#152C70"/>
<path fill-rule="evenodd" clip-rule="evenodd" d="M12 8C10.8954 8 10 8.89543 10 10C10 11.1046 10.8954 12 12 12C13.1046 12 14 11.1046 14 10C14 8.89543 13.1046 8 12 8ZM8 10C8 7.79086 9.79086 6 12 6C14.2091 6 16 7.79086 16 10C16 12.2091 14.2091 14 12 14C9.79086 14 8 12.2091 8 10Z" fill="#4296FF"/>
</svg>
