<svg width="24px" height="24px" viewBox="0 0 24 24" fill="none" xmlns="http://www.w3.org/2000/svg">
<path fill-rule="evenodd" clip-rule="evenodd" d="M12 2C9.23858 2 7 4.23858 7 7V9C7 9.55228 7.44772 10 8 10H16C16.5523 10 17 9.55228 17 9V7C17 4.23858 14.7614 2 12 2ZM9 7C9 5.34315 10.3431 4 12 4C13.6569 4 15 5.34315 15 7V8H9V7Z" fill="#4296FF"/>
<path d="M14 14C14 14.7403 13.5978 15.3866 13 15.7324V17C13 17.5523 12.5523 18 12 18C11.4477 18 11 17.5523 11 17V15.7324C10.4022 15.3866 10 14.7403 10 14C10 12.8954 10.8954 12 12 12C13.1046 12 14 12.8954 14 14Z" fill="#4296FF"/>
<path fill-rule="evenodd" clip-rule="evenodd" d="M4 13C4 10.2386 6.23858 8 9 8H15C17.7614 8 20 10.2386 20 13V17C20 19.7614 17.7614 22 15 22H9C6.23858 22 4 19.7614 4 17V13ZM9 10C7.34315 10 6 11.3431 6 13V17C6 18.6569 7.34315 20 9 20H15C16.6569 20 18 18.6569 18 17V13C18 11.3431 16.6569 10 15 10H9Z" fill="#152C70"/>
</svg>
