<svg width="24px" height="24px" viewBox="0 0 24 24" fill="none" xmlns="http://www.w3.org/2000/svg">
<path d="M5 9C5.55228 9 6 9.44772 6 10V11C6 14.3137 8.68629 17 12 17C15.3137 17 18 14.3137 18 11V10C18 9.44772 18.4477 9 19 9C19.5523 9 20 9.44772 20 10V11C20 15.0803 16.9453 18.4471 12.9981 18.9383C12.9994 18.9587 13 18.9793 13 19V21C13 21.5523 12.5523 22 12 22C11.4477 22 11 21.5523 11 21V19C11 18.9793 11.0006 18.9587 11.0019 18.9383C7.05466 18.4471 4 15.0803 4 11V10C4 9.44772 4.44772 9 5 9Z" fill="#4296FF"/>
<path fill-rule="evenodd" clip-rule="evenodd" d="M8 6C8 3.79086 9.79086 2 12 2C14.2091 2 16 3.79086 16 6V11C16 13.2091 14.2091 15 12 15C9.79086 15 8 13.2091 8 11V6ZM12 4C10.8954 4 10 4.89543 10 6V11C10 12.1046 10.8954 13 12 13C13.1046 13 14 12.1046 14 11V6C14 4.89543 13.1046 4 12 4Z" fill="#152C70"/>
</svg>
