<svg width="24px" height="24px" viewBox="0 0 24 24" fill="none" xmlns="http://www.w3.org/2000/svg">
<path fill-rule="evenodd" clip-rule="evenodd" d="M6.08376 6.08376C6.51413 3.75992 8.55154 2 11 2H13C15.4485 2 17.4859 3.75992 17.9162 6.08376C20.2401 6.51413 22 8.55154 22 11V13C22 15.7614 19.7614 18 17 18H16.874C16.9562 17.6804 17 17.3453 17 17V16C18.6569 16 20 14.6569 20 13V11C20 9.34315 18.6569 8 17 8H7C5.34315 8 4 9.34315 4 11V13C4 14.6569 5.34315 16 7 16V17C7 17.3453 7.04375 17.6804 7.12602 18H7C4.23858 18 2 15.7614 2 13V11C2 8.55154 3.75992 6.51413 6.08376 6.08376ZM8.17071 6C8.58254 4.83481 9.69378 4 11 4H13C14.3062 4 15.4175 4.83481 15.8293 6H8.17071Z" fill="#152C70"/>
<path fill-rule="evenodd" clip-rule="evenodd" d="M6 13C6 12.4477 6.44772 12 7 12H17C17.5523 12 18 12.4477 18 13V17C18 19.7614 15.7614 22 13 22H11C8.23858 22 6 19.7614 6 17V13ZM8 14V17C8 18.6569 9.34315 20 11 20H13C14.6569 20 16 18.6569 16 17V14H8Z" fill="#4296FF"/>
</svg>
