<?xml version="1.0" ?><svg width="32px" height="32px" viewBox="0 0 32 32" xmlns="http://www.w3.org/2000/svg"><defs><style>.cls-1{fill:#77acf1;}.cls-2{fill:#04009a;}</style></defs><g data-name="1. Printer" id="_1._Printer"><path class="cls-1" d="M20,24H12a1,1,0,0,1,0-2h8a1,1,0,0,1,0,2Z"/><path class="cls-1" d="M20,28H12a1,1,0,0,1,0-2h8a1,1,0,0,1,0,2Z"/><path class="cls-1" d="M27.02,14a1,1,0,0,1-.01-2h.01a1,1,0,0,1,0,2Z"/><path class="cls-1" d="M23.02,14a1,1,0,0,1-.01-2h.01a1,1,0,0,1,0,2Z"/><path class="cls-1" d="M11,14H5a1,1,0,0,1,0-2h6a1,1,0,0,1,0,2Z"/><path class="cls-2" d="M29,8V6a3,3,0,0,0-3-3H25V1a1,1,0,0,0-1-1H8A1,1,0,0,0,7,1V3H6A3,3,0,0,0,3,6V8a3,3,0,0,0-3,3V21a3,3,0,0,0,3,3H4a1,1,0,0,0,0-2H3a1,1,0,0,1-1-1V11a1,1,0,0,1,1-1H29a1,1,0,0,1,1,1V21a1,1,0,0,1-1,1H28a1,1,0,0,0,0,2h1a3,3,0,0,0,3-3V11A3,3,0,0,0,29,8ZM7,8H5V6A1,1,0,0,1,6,5H7ZM23,4V8H9V2H23Zm4,4H25V5h1a1,1,0,0,1,1,1Z"/><path class="cls-2" d="M26,18H6a1,1,0,0,0,0,2H7V31a1,1,0,0,0,1,1H24a1,1,0,0,0,1-1V20h1a1,1,0,0,0,0-2ZM23,30H9V20H23Z"/></g></svg>