<?xml version="1.0" ?><svg width="32px" height="32px" viewBox="0 0 32 32" xmlns="http://www.w3.org/2000/svg"><defs><style>.cls-1{fill:#77acf1;}.cls-2{fill:#04009a;}</style></defs><g data-name="27. Ikhtiar" id="_27._Ikhtiar"><path class="cls-1" d="M19,27a1,1,0,0,1-1-1V22a1,1,0,0,1,2,0v4A1,1,0,0,1,19,27Z"/><path class="cls-1" d="M22,27H16a1,1,0,0,1,0-2h6a1,1,0,0,1,0,2Z"/><path class="cls-1" d="M7,15H5a1,1,0,0,1,0-2H7a1,1,0,0,1,0,2Z"/><path class="cls-2" d="M29,21H24.29a1,1,0,0,1,0-2H29a1,1,0,0,0,1-1V10a1,1,0,0,0-1-1,1,1,0,0,1,0-2,3,3,0,0,1,3,3v8A3,3,0,0,1,29,21Z"/><path class="cls-2" d="M9,21H3a3,3,0,0,1-3-3V10A3,3,0,0,1,3,7H13.71a1,1,0,0,1,0,2H3a1,1,0,0,0-1,1v8a1,1,0,0,0,1,1H9a1,1,0,0,1,0,2Z"/><path class="cls-2" d="M19,23a9,9,0,1,1,9-9A9.01,9.01,0,0,1,19,23ZM19,7a7,7,0,1,0,7,7A7.008,7.008,0,0,0,19,7Z"/><path class="cls-2" d="M19,19a5,5,0,1,1,5-5A5.006,5.006,0,0,1,19,19Zm0-8a3,3,0,1,0,3,3A3,3,0,0,0,19,11Z"/></g></svg>