<?xml version="1.0" ?><svg width="32px" height="32px" viewBox="0 0 32 32" xmlns="http://www.w3.org/2000/svg"><defs><style>.cls-1{fill:#04009a;}.cls-2{fill:#77acf1;}</style></defs><g data-name="38. Projector Screen" id="_38._Projector_Screen"><path class="cls-1" d="M29,6H3A3,3,0,0,1,3,0H8A1,1,0,0,1,8,2H3A1,1,0,0,0,3,4H29a1,1,0,0,0,0-2H12a1,1,0,0,1,0-2H29a3,3,0,0,1,0,6Z"/><path class="cls-1" d="M29,30H3a1,1,0,0,1-1-1V5A1,1,0,0,1,3,4H29a1,1,0,0,1,0,2H4V28H28V9a1,1,0,0,1,2,0V29A1,1,0,0,1,29,30Z"/><path class="cls-1" d="M16,32a1,1,0,0,1-1-1V29a1,1,0,0,1,2,0v2A1,1,0,0,1,16,32Z"/><path class="cls-1" d="M31,30H1a1,1,0,0,1,0-2H31a1,1,0,0,1,0,2Z"/><path class="cls-2" d="M17,18a1,1,0,0,1-.707-.293L12,13.414,7.707,17.707a1,1,0,0,1-1.414-1.414l5-5a1,1,0,0,1,1.414,0L17,15.586l6.293-6.293a1,1,0,0,1,1.414,1.414l-7,7A1,1,0,0,1,17,18Z"/><path class="cls-2" d="M25,13a1,1,0,0,1-1-1V10H22a1,1,0,0,1,0-2h3a1,1,0,0,1,1,1v3A1,1,0,0,1,25,13Z"/><path class="cls-2" d="M10,22H8a1,1,0,0,1,0-2h2a1,1,0,0,1,0,2Z"/><path class="cls-2" d="M17,22H15a1,1,0,0,1,0-2h2a1,1,0,0,1,0,2Z"/><path class="cls-2" d="M17,26H15a1,1,0,0,1,0-2h2a1,1,0,0,1,0,2Z"/><path class="cls-2" d="M24,22H22a1,1,0,0,1,0-2h2a1,1,0,0,1,0,2Z"/><path class="cls-2" d="M24,26H22a1,1,0,0,1,0-2h2a1,1,0,0,1,0,2Z"/><path class="cls-2" d="M10,26H8a1,1,0,0,1,0-2h2a1,1,0,0,1,0,2Z"/></g></svg>