<svg width="24px" height="24px" viewBox="0 0 24 24" fill="none" xmlns="http://www.w3.org/2000/svg">
<path fill-rule="evenodd" clip-rule="evenodd" d="M14 6C14 6.08402 13.9948 6.16683 13.9848 6.24813C17.4429 7.1309 20 10.2668 20 14V15C20 15.5523 19.5523 16 19 16H5C4.44772 16 4 15.5523 4 15V14C4 10.2668 6.55706 7.1309 10.0152 6.24813C10.0052 6.16683 10 6.08402 10 6C10 4.89543 10.8954 4 12 4C13.1046 4 14 4.89543 14 6ZM18 14C18 10.6863 15.3137 8 12 8C8.68629 8 6 10.6863 6 14H18Z" fill="#152C70"/>
<path d="M3 18C2.44772 18 2 18.4477 2 19C2 19.5523 2.44772 20 3 20H21C21.5523 20 22 19.5523 22 19C22 18.4477 21.5523 18 21 18H3Z" fill="#4296FF"/>
</svg>
