<?xml version="1.0" ?><svg width="32px" height="32px" viewBox="0 0 32 32" xmlns="http://www.w3.org/2000/svg"><defs><style>.cls-1{fill:#77acf1;}.cls-2{fill:#04009a;}</style></defs><g data-name="19. Ruler and Pencil" id="_19._Ruler_and_Pencil"><path class="cls-1" d="M16,7H13a1,1,0,0,1,0-2h3a1,1,0,0,1,0,2Z"/><path class="cls-1" d="M16,12H13a1,1,0,0,1,0-2h3a1,1,0,0,1,0,2Z"/><path class="cls-1" d="M16,17H13a1,1,0,0,1,0-2h3a1,1,0,0,1,0,2Z"/><path class="cls-1" d="M16,22H13a1,1,0,0,1,0-2h3a1,1,0,0,1,0,2Z"/><path class="cls-1" d="M16,27H13a1,1,0,0,1,0-2h3a1,1,0,0,1,0,2Z"/><path class="cls-2" d="M14,32H8a3,3,0,0,1-3-3V25a1,1,0,0,1,2,0v4a1,1,0,0,0,1,1h6a1,1,0,0,0,1-1V3a1,1,0,0,0-1-1H8A1,1,0,0,0,7,3V21a1,1,0,0,1-2,0V3A3,3,0,0,1,8,0h6a3,3,0,0,1,3,3V29A3,3,0,0,1,14,32Z"/><path class="cls-2" d="M23,32a1,1,0,0,1-.857-.485l-3-5A1,1,0,0,1,19,26V4a4,4,0,0,1,8,0V6a1,1,0,0,1-2,0V4a2,2,0,0,0-4,0V25.723l2,3.333,2-3.333V10a1,1,0,0,1,2,0V26a1,1,0,0,1-.143.515l-3,5A1,1,0,0,1,23,32Z"/><path class="cls-2" d="M26,27H20a1,1,0,0,1,0-2h6a1,1,0,0,1,0,2Z"/><path class="cls-2" d="M26,7H20a1,1,0,0,1,0-2h6a1,1,0,0,1,0,2Z"/></g></svg>