<svg width="24px" height="24px" viewBox="0 0 24 24" fill="none" xmlns="http://www.w3.org/2000/svg">
<path fill-rule="evenodd" clip-rule="evenodd" d="M2 7C2 4.23858 4.23858 2 7 2H15.1716C15.9672 2 16.7303 2.31607 17.2929 2.87868L21.1213 6.70711C21.6839 7.26972 22 8.03278 22 8.82843V17C22 19.7614 19.7614 22 17 22H7C4.23858 22 2 19.7614 2 17V7ZM8 6V4H14V6H8ZM16 7V4.41421L19.7071 8.12132C19.8946 8.30886 20 8.56321 20 8.82843V17C20 18.6569 18.6569 20 17 20H7C5.34315 20 4 18.6569 4 17V7C4 5.69378 4.83481 4.58254 6 4.17071V7C6 7.55228 6.44772 8 7 8H15C15.5523 8 16 7.55228 16 7Z" fill="#152C70"/>
<path fill-rule="evenodd" clip-rule="evenodd" d="M12 10C9.79086 10 8 11.7909 8 14C8 16.2091 9.79086 18 12 18C14.2091 18 16 16.2091 16 14C16 11.7909 14.2091 10 12 10ZM10 14C10 12.8954 10.8954 12 12 12C13.1046 12 14 12.8954 14 14C14 15.1046 13.1046 16 12 16C10.8954 16 10 15.1046 10 14Z" fill="#4296FF"/>
</svg>
