<svg width="24px" height="24px" viewBox="0 0 24 24" fill="none" xmlns="http://www.w3.org/2000/svg">
<path fill-rule="evenodd" clip-rule="evenodd" d="M6 13C6 10.2386 8.23858 8 11 8H13C15.7614 8 18 10.2386 18 13V16H6V13ZM11 10C9.34315 10 8 11.3431 8 13V14H16V13C16 11.3431 14.6569 10 13 10H11Z" fill="#4296FF"/>
<path d="M3 6C3 3.79086 4.79086 2 7 2H9C9.55228 2 10 2.44772 10 3C10 3.55228 9.55228 4 9 4H7C5.89543 4 5 4.89543 5 6V7C5 7.55228 4.55228 8 4 8C3.44772 8 3 7.55228 3 7V6Z" fill="#152C70"/>
<path d="M2 15C2 14.4477 2.44772 14 3 14H21C21.5523 14 22 14.4477 22 15C22 15.5523 21.5523 16 21 16V18C21 20.2091 19.2091 22 17 22H15C14.4477 22 14 21.5523 14 21C14 20.4477 14.4477 20 15 20H17C18.1046 20 19 19.1046 19 18V16H5V18C5 19.1046 5.89543 20 7 20H9C9.55228 20 10 20.4477 10 21C10 21.5523 9.55228 22 9 22H7C4.79086 22 3 20.2091 3 18V16C2.44772 16 2 15.5523 2 15Z" fill="#152C70"/>
<path d="M17 2C19.2091 2 21 3.79086 21 6V7C21 7.55228 20.5523 8 20 8C19.4477 8 19 7.55228 19 7V6C19 4.89543 18.1046 4 17 4H15C14.4477 4 14 3.55228 14 3C14 2.44772 14.4477 2 15 2H17Z" fill="#152C70"/>
</svg>
