<?xml version="1.0" ?><svg width="32px" height="32px" viewBox="0 0 32 32" xmlns="http://www.w3.org/2000/svg"><defs><style>.cls-1{fill:#04009a;}.cls-2{fill:#77acf1;}</style></defs><g data-name="5. Calendar" id="_5._Calendar"><path class="cls-1" d="M31,9V5a3,3,0,0,0-3-3H24V1a1,1,0,0,0-2,0V2H17V1a1,1,0,0,0-2,0V2H10V1A1,1,0,0,0,8,1V5a1,1,0,0,0,2,0V4h5V5a1,1,0,0,0,2,0V4h5V5a1,1,0,0,0,2,0V4h4a1,1,0,0,1,1,1V8H3V5A1,1,0,0,1,4,4H5A1,1,0,0,0,5,2H4A3,3,0,0,0,1,5V29a3,3,0,0,0,3,3H28a3,3,0,0,0,3-3V13a1,1,0,0,0-2,0V29a1,1,0,0,1-1,1H4a1,1,0,0,1-1-1V10H30A1,1,0,0,0,31,9Z"/><path class="cls-1" d="M11,15a2,2,0,0,0-2-2H7a2,2,0,0,0-2,2v2a2,2,0,0,0,2,2H9a2,2,0,0,0,2-2ZM9,17H7V15H9Z"/><path class="cls-1" d="M15,13a2,2,0,0,0-2,2v2a2,2,0,0,0,2,2h2a2,2,0,0,0,2-2V15a2,2,0,0,0-2-2Zm2,4H15V15h2Z"/><path class="cls-1" d="M27,15a2,2,0,0,0-2-2H23a2,2,0,0,0-2,2v2a2,2,0,0,0,2,2h2a2,2,0,0,0,2-2Zm-2,2H23V15h2Z"/><path class="cls-1" d="M9,21H7a2,2,0,0,0-2,2v2a2,2,0,0,0,2,2H9a2,2,0,0,0,2-2V23A2,2,0,0,0,9,21Zm0,4H7V23H9Z"/><path class="cls-1" d="M25,21H23a2,2,0,0,0-2,2v2a2,2,0,0,0,2,2h2a2,2,0,0,0,2-2V23A2,2,0,0,0,25,21Zm0,4H23V23h2Z"/><path class="cls-2" d="M17.414,24l1.293-1.293a1,1,0,0,0-1.414-1.414L16,22.586l-1.293-1.293a1,1,0,0,0-1.414,1.414L14.586,24l-1.293,1.293a1,1,0,1,0,1.414,1.414L16,25.414l1.293,1.293a1,1,0,0,0,1.414-1.414Z"/></g></svg>