<?xml version="1.0" ?><svg width="32px" height="32px" viewBox="0 0 32 32" xmlns="http://www.w3.org/2000/svg"><defs><style>.cls-1{fill:#04009a;}.cls-2{fill:#77acf1;}</style></defs><g data-name="10. Stamp" id="_10._Stamp"><path class="cls-1" d="M19,23H13a1,1,0,0,1-.992-.876l-.08-.643a14.462,14.462,0,0,0-3.069-7.005A9,9,0,1,1,23.874,4.639a1,1,0,1,1-1.748.97,7,7,0,1,0-11.681,7.648A16.52,16.52,0,0,1,13.881,21h4.238a15.577,15.577,0,0,1,3.332-7.612A6.908,6.908,0,0,0,23,9a1,1,0,0,1,2,0,9.015,9.015,0,0,1-1.992,5.644,13.568,13.568,0,0,0-2.935,6.832l-.081.648A1,1,0,0,1,19,23Z"/><path class="cls-2" d="M22,27H10a1,1,0,0,1-1-1V24a3,3,0,0,1,3-3h8a3,3,0,0,1,3,3v2A1,1,0,0,1,22,27ZM11,25H21V24a1,1,0,0,0-1-1H12a1,1,0,0,0-1,1Z"/><path class="cls-1" d="M29,30H28V28a3,3,0,0,0-3-3H7a3,3,0,0,0-3,3v2H3a1,1,0,0,0,0,2H9a1,1,0,0,0,0-2H6V28a1,1,0,0,1,1-1H25a1,1,0,0,1,1,1v2H13a1,1,0,0,0,0,2H29a1,1,0,0,0,0-2Z"/></g></svg>