<?xml version="1.0" ?><svg width="32px" height="32px" viewBox="0 0 32 32" xmlns="http://www.w3.org/2000/svg"><defs><style>.cls-1{fill:#77acf1;}.cls-2{fill:#04009a;}</style></defs><g data-name="36. Target" id="_36._Target"><path class="cls-1" d="M23,9H16a1,1,0,0,1,0-2h6V3H16a1,1,0,0,1,0-2h7a1,1,0,0,1,1,1V8A1,1,0,0,1,23,9Z"/><path class="cls-1" d="M29,12H21a1,1,0,0,1-1-1V8a1,1,0,0,1,2,0v2h5.613l-.562-1.684a1,1,0,0,1,0-.632L27.613,6H23a1,1,0,0,1,0-2h6a1,1,0,0,1,.949,1.316L29.054,8l.9,2.684A1,1,0,0,1,29,12Z"/><path class="cls-2" d="M31,32H13a1,1,0,0,1,0-2H28.937L16,13.614,3.063,30H9a1,1,0,0,1,0,2H1a1,1,0,0,1-.785-1.62l15-19a1.037,1.037,0,0,1,1.57,0l15,19A1,1,0,0,1,31,32Z"/><path class="cls-2" d="M16,13a1,1,0,0,1-1-1V1a1,1,0,0,1,2,0V12A1,1,0,0,1,16,13Z"/><path class="cls-2" d="M16,20.447a10.366,10.366,0,0,1-5.334-1.479,1,1,0,1,1,1.028-1.715,8.362,8.362,0,0,0,8.612,0,1,1,0,1,1,1.028,1.715A10.366,10.366,0,0,1,16,20.447Z"/></g></svg>