<?xml version="1.0" ?><svg width="32px" height="32px" viewBox="0 0 32 32" xmlns="http://www.w3.org/2000/svg"><defs><style>.cls-1{fill:#04009a;}.cls-2{fill:#77acf1;}</style></defs><g data-name="37. Teamwork" id="_37._Teamwork"><path class="cls-1" d="M25,26a5,5,0,1,1,5-5A5.006,5.006,0,0,1,25,26Zm0-8a3,3,0,1,0,3,3A3,3,0,0,0,25,18Z"/><path class="cls-1" d="M22,32H20a1,1,0,0,1-.98-.8l-1-5a1,1,0,0,1,.533-1.091l3.6-1.8a1,1,0,1,1,.894,1.789L20.13,26.553,20.82,30H22a1,1,0,0,1,0,2Z"/><path class="cls-1" d="M30,32H26a1,1,0,0,1,0-2h3.18l.69-3.447L26.953,25.1a1,1,0,1,1,.894-1.789l3.6,1.8A1,1,0,0,1,31.98,26.2l-1,5A1,1,0,0,1,30,32Z"/><path class="cls-1" d="M7,26a5,5,0,1,1,5-5A5.006,5.006,0,0,1,7,26Zm0-8a3,3,0,1,0,3,3A3,3,0,0,0,7,18Z"/><path class="cls-1" d="M4,32H2a1,1,0,0,1-.98-.8l-1-5a1,1,0,0,1,.533-1.091l3.6-1.8A1,1,0,1,1,5.047,25.1L2.13,26.553,2.82,30H4a1,1,0,0,1,0,2Z"/><path class="cls-1" d="M12,32H8a1,1,0,0,1,0-2h3.18l.69-3.447L8.953,25.1a1,1,0,1,1,.894-1.789l3.6,1.8A1,1,0,0,1,13.98,26.2l-1,5A1,1,0,0,1,12,32Z"/><path class="cls-2" d="M16.706,16H15.294A2.3,2.3,0,0,1,13,13.706a.294.294,0,0,0-.441-.255,2.294,2.294,0,0,1-3.135-.84l-.7-1.222a2.3,2.3,0,0,1,.84-3.134.295.295,0,0,0,0-.51,2.3,2.3,0,0,1-.84-3.134l.705-1.222a2.294,2.294,0,0,1,3.135-.84A.294.294,0,0,0,13,2.294,2.3,2.3,0,0,1,15.294,0h1.412A2.3,2.3,0,0,1,19,2.294a.284.284,0,0,0,.147.255.291.291,0,0,0,.294,0,2.294,2.294,0,0,1,3.135.84l.7,1.222a2.3,2.3,0,0,1-.84,3.134.295.295,0,0,0,0,.51,2.3,2.3,0,0,1,.84,3.134l-.7,1.222a2.294,2.294,0,0,1-3.135.84.288.288,0,0,0-.294,0,.284.284,0,0,0-.147.255A2.3,2.3,0,0,1,16.706,16Zm-4-4.592A2.3,2.3,0,0,1,15,13.706a.294.294,0,0,0,.294.294h1.412A.294.294,0,0,0,17,13.706a2.294,2.294,0,0,1,3.441-1.987.281.281,0,0,0,.224.029.285.285,0,0,0,.178-.137l.706-1.222a.293.293,0,0,0-.108-.4,2.295,2.295,0,0,1,0-3.974.293.293,0,0,0,.108-.4h0l-.706-1.222a.285.285,0,0,0-.178-.137.289.289,0,0,0-.224.029A2.294,2.294,0,0,1,17,2.294.294.294,0,0,0,16.706,2H15.294A.294.294,0,0,0,15,2.294a2.294,2.294,0,0,1-3.441,1.987.289.289,0,0,0-.224-.029.285.285,0,0,0-.178.137l-.706,1.222a.293.293,0,0,0,.108.4,2.295,2.295,0,0,1,0,3.974.293.293,0,0,0-.108.4l.706,1.222a.285.285,0,0,0,.178.137.28.28,0,0,0,.224-.029A2.292,2.292,0,0,1,12.706,11.408Z"/><path class="cls-2" d="M16,10a2,2,0,1,1,2-2A2,2,0,0,1,16,10Zm0-2h0Zm0,0h0Zm0,0h0Zm0,0h0Zm0,0h0Zm0,0h0Zm0,0h0Zm0,0h0Z"/></g></svg>