<?xml version="1.0" ?><svg width="32px" height="32px" viewBox="0 0 32 32" xmlns="http://www.w3.org/2000/svg"><defs><style>.cls-1{fill:#04009a;}.cls-2{fill:#77acf1;}</style></defs><g data-name="25. Telephone" id="_25._Telephone"><path class="cls-1" d="M5,28H3a3,3,0,0,1-3-3V5A3,3,0,0,1,3,2H5A1,1,0,0,1,5,4H3A1,1,0,0,0,2,5V25a1,1,0,0,0,1,1H5a1,1,0,0,1,0,2Z"/><path class="cls-1" d="M29,28H13a1,1,0,0,1,0-2H29a1,1,0,0,0,1-1V5a1,1,0,0,0-1-1H13a1,1,0,0,1,0-2H29a3,3,0,0,1,3,3V25A3,3,0,0,1,29,28Z"/><path class="cls-1" d="M11,24H7a3,3,0,0,1-3-3V3A3,3,0,0,1,7,0h4a3,3,0,0,1,3,3V21A3,3,0,0,1,11,24ZM7,2A1,1,0,0,0,6,3V21a1,1,0,0,0,1,1h4a1,1,0,0,0,1-1V3a1,1,0,0,0-1-1Z"/><path class="cls-2" d="M27,12H17a1,1,0,0,1-1-1V7a1,1,0,0,1,1-1H27a1,1,0,0,1,1,1v4A1,1,0,0,1,27,12Zm-9-2h8V8H18Z"/><path class="cls-1" d="M18.02,16a1,1,0,0,1-.01-2h.01a1,1,0,0,1,0,2Z"/><path class="cls-1" d="M22.02,16a1,1,0,0,1-.01-2h.01a1,1,0,0,1,0,2Z"/><path class="cls-1" d="M26.02,16a1,1,0,0,1-.01-2h.01a1,1,0,0,1,0,2Z"/><path class="cls-1" d="M18.02,20a1,1,0,0,1-.01-2h.01a1,1,0,0,1,0,2Z"/><path class="cls-1" d="M22.02,20a1,1,0,0,1-.01-2h.01a1,1,0,0,1,0,2Z"/><path class="cls-1" d="M26.02,20a1,1,0,0,1-.01-2h.01a1,1,0,0,1,0,2Z"/><path class="cls-1" d="M18.02,24a1,1,0,0,1-.01-2h.01a1,1,0,0,1,0,2Z"/><path class="cls-1" d="M22.02,24a1,1,0,0,1-.01-2h.01a1,1,0,0,1,0,2Z"/><path class="cls-1" d="M26.02,24a1,1,0,0,1-.01-2h.01a1,1,0,0,1,0,2Z"/><path class="cls-1" d="M6.5,32A3.5,3.5,0,0,1,3,28.5V27a1,1,0,0,1,2,0v1.5a1.5,1.5,0,0,0,3,0V23a1,1,0,0,1,2,0v5.5A3.5,3.5,0,0,1,6.5,32Z"/></g></svg>