<svg width="24px" height="24px" viewBox="0 0 24 24" fill="none" xmlns="http://www.w3.org/2000/svg">
<path fill-rule="evenodd" clip-rule="evenodd" d="M3 9.59128C3 9.03899 3.44772 8.59128 4 8.59128H9V20.5913H4C3.44772 20.5913 3 20.1436 3 19.5913V9.59128ZM5 10.5913V18.5913H7V10.5913H5Z" fill="#4296FF"/>
<path fill-rule="evenodd" clip-rule="evenodd" d="M12.8988 5.44993C12.7445 4.98708 12.1571 4.8484 11.8121 5.19339L9.72621 7.27927C9.26122 7.74426 9 8.37491 9 9.0325V18.5913H14.3624C15.5625 18.5913 16.6471 17.8761 17.1199 16.773L18.8796 12.6669C18.959 12.4816 19 12.282 19 12.0804C19 11.258 18.3333 10.5913 17.5109 10.5913H13C12.6921 10.5913 12.4013 10.4494 12.2118 10.2067C12.0223 9.96396 11.9552 9.64747 12.0299 9.34873L12.9129 5.81665C12.9432 5.69556 12.9383 5.56834 12.8988 5.44993ZM10.3979 3.77918C11.7942 2.38289 14.1717 2.94415 14.7962 4.81747C14.9559 5.29673 14.9757 5.81162 14.8532 6.30172L14.2808 8.59127H17.5109C19.4379 8.59127 21 10.1534 21 12.0804C21 12.5529 20.904 13.0205 20.7179 13.4548L18.9581 17.5609C18.1702 19.3993 16.3626 20.5913 14.3624 20.5913H7V9.0325C7 7.84448 7.47194 6.70512 8.312 5.86506L10.3979 3.77918Z" fill="#152C70"/>
</svg>
