<?xml version="1.0" ?><svg width="32px" height="32px" viewBox="0 0 32 32" xmlns="http://www.w3.org/2000/svg"><defs><style>.cls-1{fill:#77acf1;}.cls-2{fill:#04009a;}</style></defs><g data-name="9. Tie" id="_9._Tie"><path class="cls-1" d="M21.7,24.659l-2.6-10.414,1.932-2.362a1,1,0,1,0-1.548-1.266L17.526,13H14.474l-1.95-2.383a1,1,0,1,0-1.548,1.266l1.932,2.362L10.3,24.66a3.018,3.018,0,0,0,.79,2.848l4.2,4.2a1,1,0,0,0,1.414,0l4.2-4.2A3.017,3.017,0,0,0,21.7,24.659Zm-2.2,1.435L16,29.586l-3.492-3.492a1.008,1.008,0,0,1-.264-.95L14.78,15h2.44l2.535,10.143A1.007,1.007,0,0,1,19.492,26.094Z"/><path class="cls-2" d="M25.555,2.168l-3-2A.985.985,0,0,0,22,.012V0H10V.012a.985.985,0,0,0-.555.156l-3,2a1,1,0,0,0-.393,1.148l.667,2a1,1,0,1,0,1.9-.632L8.19,3.408,9.873,2.287,14.586,7l-4.044,4.044L9.97,8.757a1,1,0,0,0-1.94.486l1,4a1,1,0,0,0,.7.721A1.016,1.016,0,0,0,10,14a1,1,0,0,0,.707-.293L16,8.414l5.293,5.293A1,1,0,0,0,22,14a1.019,1.019,0,0,0,.244-.03,1,1,0,0,0,.714-.683l3-10A1,1,0,0,0,25.555,2.168ZM12.414,2h7.172L16,5.586Zm9.109,9.109L17.414,7l4.713-4.713,1.7,1.134Z"/></g></svg>