<svg width="24px" height="24px" viewBox="0 0 24 24" fill="none" xmlns="http://www.w3.org/2000/svg">
<path fill-rule="evenodd" clip-rule="evenodd" d="M6 8H5C3.34315 8 2 6.65685 2 5C2 4.44772 2.44772 4 3 4L6.99963 4C7.91184 2.78555 9.36418 2 11 2H13C14.6358 2 16.0882 2.78555 17.0004 4H21C21.5523 4 22 4.44772 22 5C22 6.65685 20.6569 8 19 8H18V10H21C21.5523 10 22 10.4477 22 11C22 12.6569 20.6569 14 19 14H18V16H21C21.5523 16 22 16.4477 22 17C22 18.6569 20.6569 20 19 20H17.0004C16.0882 21.2144 14.6358 22 13 22H11C9.36418 22 7.91184 21.2144 6.99963 20H5C3.34315 20 2 18.6569 2 17C2 16.4477 2.44772 16 3 16H6V14H5C3.34315 14 2 12.6569 2 11C2 10.4477 2.44772 10 3 10H6V8ZM8 17C8 18.6569 9.34315 20 11 20H13C14.6569 20 16 18.6569 16 17V7C16 5.34315 14.6569 4 13 4H11C9.34372 4 8.00092 5.34222 8 6.99829L8 17Z" fill="#152C70"/>
<path d="M12 9C12.8284 9 13.5 8.32843 13.5 7.5C13.5 6.67157 12.8284 6 12 6C11.1716 6 10.5 6.67157 10.5 7.5C10.5 8.32843 11.1716 9 12 9Z" fill="#4296FF"/>
<path d="M13.5 12C13.5 12.8284 12.8284 13.5 12 13.5C11.1716 13.5 10.5 12.8284 10.5 12C10.5 11.1716 11.1716 10.5 12 10.5C12.8284 10.5 13.5 11.1716 13.5 12Z" fill="#4296FF"/>
<path d="M12 18C12.8284 18 13.5 17.3284 13.5 16.5C13.5 15.6716 12.8284 15 12 15C11.1716 15 10.5 15.6716 10.5 16.5C10.5 17.3284 11.1716 18 12 18Z" fill="#4296FF"/>
</svg>
