<svg width="18" height="18" viewBox="0 0 18 18" fill="none" xmlns="http://www.w3.org/2000/svg">
<path d="M17.1598 2.74408C17.1598 1.66269 16.2583 0.791834 15.1658 0.842165C14.1985 0.886726 13.41 1.66607 13.355 2.63284C13.3092 3.43915 13.7654 4.14419 14.4399 4.4646V7.09607C14.4399 7.69695 13.9527 8.18406 13.3519 8.18406H10.7204C10.5323 7.7882 10.2117 7.4676 9.81588 7.27954V4.4646C10.4903 4.14416 10.9466 3.43915 10.9007 2.63284C10.8457 1.66607 10.0572 0.886726 9.0899 0.842165C7.99742 0.791866 7.0959 1.66269 7.0959 2.74408C7.0959 3.50357 7.54068 4.15901 8.18388 4.4646V7.27957C7.78803 7.46767 7.46743 7.78823 7.27937 8.18409H3.55985V4.4646C4.23426 4.14416 4.69055 3.43915 4.64468 2.63284C4.58969 1.66607 3.80117 0.886726 2.83386 0.842165C1.74138 0.791866 0.839858 1.66269 0.839858 2.74408C0.839858 3.50357 1.28464 4.15901 1.92785 4.4646V13.5356C1.25344 13.856 0.797146 14.561 0.843014 15.3673C0.897998 16.3341 1.68652 17.1134 2.65383 17.158C3.74631 17.2083 4.64783 16.3375 4.64783 15.2561C4.64783 14.4966 4.20305 13.8411 3.55985 13.5356V9.81609H7.2793C7.4674 10.2119 7.78797 10.5325 8.18382 10.7206V13.5356C7.50941 13.856 7.05312 14.561 7.09899 15.3673C7.15397 16.3341 7.9425 17.1135 8.90981 17.158C10.0023 17.2083 10.9038 16.3375 10.9038 15.2561C10.9038 14.4966 10.459 13.8412 9.81582 13.5356V10.7206C10.2117 10.5325 10.5323 10.2119 10.7203 9.81609H13.3518C14.854 9.81609 16.0718 8.59831 16.0718 7.0961V4.4646C16.7151 4.15901 17.1598 3.50357 17.1598 2.74408Z" fill="#667085"/>
</svg>
