<svg width="24px" height="24px" viewBox="0 0 24 24" fill="none" xmlns="http://www.w3.org/2000/svg">
<path fill-rule="evenodd" clip-rule="evenodd" d="M7 2C4.23858 2 2 4.23858 2 7V17C2 19.7614 4.23858 22 7 22H17C19.7614 22 22 19.7614 22 17V11C22 8.55154 20.2401 6.51413 17.9162 6.08376C17.4859 3.75992 15.4485 2 13 2H7ZM15.8293 6C15.4175 4.83481 14.3062 4 13 4H7C5.69378 4 4.58254 4.83481 4.17071 6H15.8293ZM4 17V8H17C18.6569 8 20 9.34315 20 11V17C20 18.6569 18.6569 20 17 20H7C5.34315 20 4 18.6569 4 17Z" fill="#152C70"/>
<path d="M18 14C18 15.1046 17.1046 16 16 16C14.8954 16 14 15.1046 14 14C14 12.8954 14.8954 12 16 12C17.1046 12 18 12.8954 18 14Z" fill="#4296FF"/>
</svg>
