<?xml version="1.0" ?><svg width="32px" height="32px" viewBox="0 0 32 32" xmlns="http://www.w3.org/2000/svg"><defs><style>.cls-1{fill:#04009a;}.cls-2{fill:#77acf1;}</style></defs><g data-name="16. Watch" id="_16._Watch"><path class="cls-1" d="M23,27H13a1,1,0,0,1,0-2H23a1,1,0,0,0,1-1V8a1,1,0,0,0-1-1,1,1,0,0,1,0-2,3,3,0,0,1,3,3V24A3,3,0,0,1,23,27Z"/><path class="cls-1" d="M9,27a3,3,0,0,1-3-3V8A3,3,0,0,1,9,5H19a1,1,0,0,1,0,2H9A1,1,0,0,0,8,8V24a1,1,0,0,0,1,1,1,1,0,0,1,0,2Z"/><path class="cls-1" d="M23,7a1,1,0,0,1-1-1V3a1,1,0,0,0-1-1H11a1,1,0,0,0-1,1V6A1,1,0,0,1,8,6V3a3,3,0,0,1,3-3H21a3,3,0,0,1,3,3V6A1,1,0,0,1,23,7Z"/><path class="cls-1" d="M21,32H11a3,3,0,0,1-3-3V26a1,1,0,0,1,2,0v3a1,1,0,0,0,1,1H21a1,1,0,0,0,1-1V26a1,1,0,0,1,2,0v3A3,3,0,0,1,21,32Z"/><path class="cls-2" d="M12,21a1,1,0,0,1-.707-1.707L15,15.586V10a1,1,0,0,1,2,0v6a1,1,0,0,1-.293.707l-4,4A1,1,0,0,1,12,21Z"/></g></svg>