<?xml version="1.0" ?><svg width="32px" height="32px" viewBox="0 0 32 32" xmlns="http://www.w3.org/2000/svg"><defs><style>.cls-1{fill:#04009a;}.cls-2{fill:#77acf1;}</style></defs><g data-name="28. Board" id="_28._Board"><path class="cls-1" d="M17,26H3a3,3,0,0,1-3-3V5A3,3,0,0,1,3,2h9a1,1,0,0,1,0,2H3A1,1,0,0,0,2,5V23a1,1,0,0,0,1,1H17a1,1,0,0,1,0,2Z"/><path class="cls-1" d="M29,26H21a1,1,0,0,1,0-2h8a1,1,0,0,0,1-1V5a1,1,0,0,0-1-1H16a1,1,0,0,1,0-2H29a3,3,0,0,1,3,3V23A3,3,0,0,1,29,26Z"/><path class="cls-1" d="M8,32a1,1,0,0,1-.894-1.447l3-6a1,1,0,1,1,1.79.894l-3,6A1,1,0,0,1,8,32Z"/><path class="cls-1" d="M24,32a1,1,0,0,1-.9-.553l-3-6a1,1,0,0,1,1.79-.894l3,6A1,1,0,0,1,24,32Z"/><path class="cls-1" d="M16,4a1,1,0,0,1-1-1V1a1,1,0,0,1,2,0V3A1,1,0,0,1,16,4Z"/><path class="cls-2" d="M5,19a1,1,0,0,1-.707-1.707l6-6A.982.982,0,0,1,11.045,11a1,1,0,0,1,.723.358l4.3,5.16,9.226-9.226a1,1,0,1,1,1.414,1.414l-10,10a.983.983,0,0,1-.752.292,1,1,0,0,1-.723-.358l-4.3-5.16L5.707,18.707A1,1,0,0,1,5,19Z"/><path class="cls-2" d="M27,12a1,1,0,0,1-1-1V8H23a1,1,0,0,1,0-2h4a1,1,0,0,1,1,1v4A1,1,0,0,1,27,12Z"/></g></svg>