<svg width="42" height="40" viewBox="0 0 42 40" fill="none" xmlns="http://www.w3.org/2000/svg">
<path fill-rule="evenodd" clip-rule="evenodd" d="M25.2377 37.1631C25.2377 35.7115 24.0609 34.5346 22.6093 34.5346H19.3907C18.6936 34.5346 18.0251 34.8116 17.5321 35.3045C17.0392 35.7974 16.7623 36.466 16.7623 37.1631C16.7623 38.6147 17.9391 39.7915 19.3907 39.7915H22.6093C24.0609 39.7915 25.2377 38.6147 25.2377 37.1631ZM5.52571 30.3854C5.96474 30.419 6.49589 30.4382 7.02942 30.407C7.31366 31.8484 8.01978 33.1854 9.0738 34.2395C10.4731 35.6387 12.3709 36.4248 14.3497 36.4248H15.3526C15.3084 36.6668 15.2857 36.9138 15.2857 37.1631C15.2857 37.4152 15.3084 37.662 15.352 37.9014H14.3497C11.9793 37.9014 9.70586 36.9597 8.02971 35.2836C6.69252 33.9463 5.82274 32.229 5.52571 30.3854ZM4.77463 28.8143C3.60888 28.6177 2.5241 28.0635 1.67729 27.2166C0.60334 26.1427 0 24.6861 0 23.1672V19.6774C0 18.1586 0.60334 16.702 1.67729 15.628C2.75125 14.554 4.20787 13.9506 5.72668 13.9506H6.10788C6.71721 6.2597 13.1519 0.208008 21 0.208008C28.8481 0.208008 35.2828 6.2597 35.8921 13.9506H36.2733C37.7921 13.9506 39.2488 14.554 40.3227 15.628C41.3967 16.702 42 18.1586 42 19.6774V23.1672C42 24.6861 41.3967 26.1427 40.3227 27.2166C39.2488 28.2907 37.7921 28.894 36.2733 28.894H34.5834C33.8825 28.894 33.3144 28.3258 33.3144 27.625V15.1474C33.3144 8.34633 27.801 2.83301 21 2.83301C14.199 2.83301 8.68563 8.34633 8.68563 15.1474V27.625C8.68563 28.1198 8.40238 28.5486 7.98911 28.7578C6.8515 29.1526 5.08725 28.867 4.77463 28.8143Z" fill="white"/>
</svg>
