<svg width="18" height="18" viewBox="0 0 18 18" fill="none" xmlns="http://www.w3.org/2000/svg">
<g clip-path="url(#clip0_1132_20386)">
<path d="M13.9421 4.14969L15.1305 2.96132H16.0539C16.3334 2.96132 16.5601 2.73466 16.5601 2.45507V0.866357C16.5601 0.586772 16.3334 0.360107 16.0539 0.360107H13.6457C13.5114 0.360107 13.3826 0.413466 13.2877 0.508405L11.7943 2.00188L11.5555 1.76313C11.3579 1.56545 11.0373 1.56542 10.8396 1.76313L9.75607 2.84664C9.43039 2.58987 9.03096 2.45014 8.60986 2.45014H2.21636C1.19282 2.45014 0.360107 3.28286 0.360107 4.30639V15.7839C0.360107 16.8074 1.19282 17.6401 2.21636 17.6401H11.6374C12.6609 17.6401 13.4937 16.8074 13.4937 15.7839V7.33387C13.4937 6.91277 13.3539 6.51334 13.0972 6.18769L14.1807 5.10418C14.3784 4.90647 14.3784 4.58595 14.1807 4.38824L13.9421 4.14969ZM13.8554 1.37261H15.5476V1.94882H14.9208C14.7865 1.94882 14.6577 2.00218 14.5628 2.09712L13.2262 3.43375L12.5102 2.71782L13.8554 1.37261ZM12.4812 15.7839C12.4812 16.2491 12.1026 16.6276 11.6374 16.6276H2.21636C1.75111 16.6276 1.37261 16.2491 1.37261 15.7839V4.30636C1.37261 3.84112 1.75111 3.46261 2.21636 3.46261H8.60986C8.83524 3.46261 9.04712 3.55039 9.20649 3.70973L12.234 6.73727C12.3934 6.89661 12.4811 7.10852 12.4811 7.33387V15.7839H12.4812ZM12.3908 5.46216L10.4816 3.55296L11.1976 2.83702L13.1067 4.74619L12.3908 5.46216Z" fill="#667085"/>
<path d="M8.68824 4.6234C8.59331 4.52846 8.46455 4.4751 8.33029 4.4751H3.88937C3.05993 4.4751 2.38513 5.1499 2.38513 5.97934C2.38513 6.80877 3.05993 7.48357 3.88937 7.48357H10.3263C10.531 7.48357 10.7156 7.36022 10.794 7.17105C10.8723 6.98188 10.829 6.76412 10.6842 6.61934L8.68824 4.6234ZM3.88937 6.47111C3.61822 6.47111 3.39763 6.25052 3.39763 5.97937C3.39763 5.70822 3.61822 5.48763 3.88937 5.48763H8.12057L9.10408 6.47114H3.88937V6.47111Z" fill="#667085"/>
<path d="M17.0504 6.55529C16.7871 6.15407 16.5269 5.82855 16.516 5.81489C16.4198 5.69501 16.2746 5.62524 16.1209 5.62524C15.9673 5.62524 15.822 5.69501 15.7259 5.81489C15.7149 5.82855 15.4547 6.15407 15.1914 6.55529C14.6633 7.36016 14.6022 7.73901 14.6022 7.95399C14.6022 8.79143 15.2835 9.47274 16.1209 9.47274C16.9584 9.47274 17.6397 8.79143 17.6397 7.95399C17.6397 7.73901 17.5786 7.36016 17.0504 6.55529ZM16.1209 8.46024C15.8418 8.46024 15.6147 8.23314 15.6147 7.9547C15.6194 7.80877 15.833 7.41072 16.1209 6.9854C16.4087 7.41052 16.6222 7.8083 16.6272 7.95443C16.6269 8.23338 16.3999 8.46024 16.1209 8.46024Z" fill="#667085"/>
<path d="M9.96712 9.73164C10.1648 9.53393 10.1648 9.21341 9.96712 9.0157C9.76948 8.81803 9.44893 8.81799 9.25118 9.0157L8.38695 9.87994H5.46747L4.60327 9.01573C4.40559 8.81803 4.08504 8.81803 3.88733 9.01573C3.68962 9.21344 3.68962 9.53396 3.88733 9.73167L4.75153 10.5959V13.5154L3.88729 14.3796C3.68959 14.5773 3.68959 14.8979 3.88729 15.0956C3.98615 15.1944 4.11571 15.2439 4.24525 15.2439C4.37478 15.2439 4.50438 15.1944 4.6032 15.0956L5.46744 14.2313H8.38691L9.25115 15.0956C9.35 15.1944 9.47957 15.2438 9.6091 15.2438C9.73864 15.2438 9.86824 15.1944 9.96706 15.0955C10.1648 14.8978 10.1648 14.5773 9.96706 14.3796L9.10285 13.5154V10.5958L9.96712 9.73164ZM8.09039 13.2188H5.764V10.8924H8.09039V13.2188Z" fill="#667085"/>
</g>
<defs>
<clipPath id="clip0_1132_20386">
<rect width="17.28" height="17.28" fill="white" transform="translate(0.359985 0.360107)"/>
</clipPath>
</defs>
</svg>
