<svg width="24" height="24" viewBox="0 0 24 24" fill="none" xmlns="http://www.w3.org/2000/svg">
<g clip-path="url(#clip0_1218_22076)">
<path d="M6.57227 10.949C6.57227 14.1018 9.12804 16.6576 12.2809 16.6576C15.4337 16.6576 17.9894 14.1018 17.9894 10.949C17.9894 7.79619 15.4337 5.24042 12.2809 5.24042C9.12958 5.24388 6.57592 7.79773 6.57227 10.949ZM12.2809 6.02776C14.9989 6.02776 17.2021 8.231 17.2021 10.949C17.2021 13.667 14.9989 15.8703 12.2809 15.8703C9.56284 15.8703 7.3596 13.667 7.3596 10.949C7.36268 8.23234 9.56419 6.03083 12.2809 6.02776Z" fill="#667085"/>
<path d="M19.9303 17.6281L16.8465 19.0852C16.4207 18.2932 15.604 17.7892 14.7052 17.7638L11.8584 17.6856C11.4076 17.6727 10.9653 17.5585 10.5645 17.3515L10.2749 17.2014C8.79167 16.4283 7.02381 16.4302 5.54217 17.2064L5.56024 16.5501C5.5662 16.3327 5.39493 16.1517 5.17753 16.1457L2.05585 16.0598C1.83845 16.0538 1.65757 16.2251 1.65161 16.4425L1.46304 23.2929C1.45708 23.5103 1.62835 23.6914 1.84575 23.6973L4.96743 23.7832H4.97819C5.19156 23.7832 5.3661 23.6135 5.37186 23.4003L5.3809 23.0726L6.19188 22.6384C6.5102 22.4671 6.88234 22.4263 7.23007 22.5248L12.0729 23.884C12.0813 23.8865 12.0898 23.8884 12.0985 23.8903C12.4485 23.9635 12.8053 24.0003 13.1628 24.0001C13.9201 24.0004 14.6686 23.8372 15.357 23.5212C15.3739 23.5135 15.3902 23.5045 15.4058 23.4943L22.4275 18.9525C22.6024 18.8393 22.6589 18.6096 22.5564 18.4281C22.0351 17.5032 20.8789 17.1508 19.9303 17.6281ZM2.26095 22.9211L2.4278 16.8577L4.76233 16.9219L4.59548 22.9855L2.26095 22.9211ZM15.0023 22.8181C14.1471 23.2041 13.192 23.3106 12.2728 23.1228L7.44305 21.767C6.89945 21.6134 6.31759 21.6771 5.82031 21.9444L5.40589 22.1665L5.5168 18.135C6.83005 17.2616 8.5143 17.1718 9.9129 17.9005L10.2026 18.0506C10.7089 18.312 11.2673 18.4562 11.8368 18.4727L14.6838 18.551C15.4835 18.574 16.1626 19.1434 16.3248 19.9269L12.0842 19.8098C11.8668 19.8039 11.6859 19.9753 11.6798 20.1925C11.6738 20.4099 11.8453 20.591 12.0625 20.597L16.7423 20.7258H16.7533C16.9665 20.7256 17.1408 20.5558 17.1466 20.3429C17.1514 20.1718 17.1387 20.0005 17.1085 19.8321L20.2715 18.3376C20.2746 18.3363 20.2777 18.3347 20.2807 18.3332C20.7294 18.1062 21.2718 18.1821 21.6409 18.5237L15.0023 22.8181Z" fill="#667085"/>
<path d="M12.675 4.13353V0.393669C12.675 0.176267 12.4988 0 12.2814 0C12.064 0 11.8877 0.176267 11.8877 0.393669V4.13353C11.8877 4.35093 12.064 4.5272 12.2814 4.5272C12.4988 4.5272 12.675 4.35093 12.675 4.13353Z" fill="#667085"/>
<path d="M15.6262 4.13344V2.36193C15.6262 2.14453 15.4499 1.96826 15.2325 1.96826C15.0151 1.96826 14.8389 2.14453 14.8389 2.36193V4.13344C14.8389 4.35085 15.0151 4.52711 15.2325 4.52711C15.4499 4.52711 15.6262 4.35085 15.6262 4.13344Z" fill="#667085"/>
<path d="M9.72191 4.13344V2.36193C9.72191 2.14453 9.54564 1.96826 9.32824 1.96826C9.11084 1.96826 8.93457 2.14453 8.93457 2.36193V4.13344C8.93457 4.35085 9.11084 4.52711 9.32824 4.52711C9.54564 4.52711 9.72191 4.35085 9.72191 4.13344Z" fill="#667085"/>
<path d="M10.3125 12.6788H9.06738V9.16638H10.3228C10.6761 9.16638 10.9802 9.2367 11.2352 9.37733C11.4902 9.51682 11.6863 9.71748 11.8235 9.97931C11.9618 10.2411 12.031 10.5544 12.031 10.9192C12.031 11.285 11.9618 11.5995 11.8235 11.8624C11.6863 12.1254 11.489 12.3272 11.2318 12.4678C10.9757 12.6085 10.6692 12.6788 10.3125 12.6788ZM9.81 12.0425H10.2816C10.5012 12.0425 10.6858 12.0036 10.8356 11.9259C10.9865 11.847 11.0997 11.7252 11.1752 11.5606C11.2518 11.3948 11.2901 11.181 11.2901 10.9192C11.2901 10.6596 11.2518 10.4475 11.1752 10.2829C11.0997 10.1182 10.9871 9.99704 10.8373 9.91929C10.6875 9.84154 10.5029 9.80266 10.2834 9.80266H9.81V12.0425Z" fill="#667085"/>
<path d="M12.4805 12.6788V9.16638H13.2231V10.6156H14.7306V9.16638H15.4715V12.6788H14.7306V11.2279H13.2231V12.6788H12.4805Z" fill="#667085"/>
</g>
<defs>
<clipPath id="clip0_1218_22076">
<rect width="24" height="24" fill="white"/>
</clipPath>
</defs>
</svg>
